<svg style="position: absolute; width: 0; height: 0;" width="0" height="0" version="1.1" xmlns="http://www.w3.org/2000/svg" xmlns:xlink="http://www.w3.org/1999/xlink"><defs><symbol id="desktop" viewBox="0 -212 1024 1024"><path d="M150 80 l505 0 q10 6 16 13 q6 7 11 18 l0 381 q-6 12 -12 18.5 q-6 6.5 -19 11.5 l-164 0 l5 27 q7 0 13 -0.5 q6 -0.5 12 0.5 q23 6 29.5 28 q6.5 22 -7.5 39 l-279 0 q-11 -14 -6.5 -35.5 q4.5 -21.5 23.5 -28.5 q9 -1 17 -2.5 q8 -1.5 17 -2.5 l5 -23 l-165 0 q-15 -6 -16.5 -8 q-1.5 -2 -13.5 -19 l0 -391 q10 -15 11.5 -17 q1.5 -2 17.5 -9 ZM740 80 l210 0 q10 6 15 11 q5 5 10 15 l0 485 q-5 10 -11 15.5 q-6 5.5 -17 9.5 l-210 0 q-10 -5 -16 -11.5 q-6 -6.5 -11 -17.5 l0 -478 q6 -13 12 -18 q6 -5 18 -11 ZM826.5 285.5 q7.5 -3.5 18.5 -3.5 q11 0 16 2.5 q5 2.5 10 7.5 q5 5 8.5 12.5 q3.5 7.5 3.5 17 q0 9.5 -3.5 17 q-3.5 7.5 -7.5 11.5 q-4 4 -10.5 7.5 q-6.5 3.5 -21 2.5 q-14.5 -1 -22 -7.5 q-7.5 -6.5 -11 -13.5 q-3.5 -7 -3.5 -18 q0 -11 3.5 -17.5 q3.5 -6.5 7.5 -10.5 q4 -4 11.5 -7.5 ZM784 443 l119 0 q8 7 8 13 q0 6 -8 12 l-119 0 q-7 -6 -7 -12 q0 -6 7 -13 ZM784 483 l119 0 q8 7 8 13 q0 6 -8 13 l-119 0 q-7 -7 -7 -13 q0 -6 7 -13 ZM784 524 l119 0 q8 6 8 12 q0 6 -8 13 l-119 0 q-7 -7 -7 -13 q0 -6 7 -12 ZM643 107 l-490 0 l-8 12 l0 322 l510 0 l0 -327 l-12 -7 ZM939 107 l-195 0 q-8 7 -8 8.5 q0 1.5 -1 17.5 l217 0 l-7 -24 l-6 -2 ZM952 161 l-217 0 l0 12 l217 0 l0 -12 ZM952 201 l-217 0 l0 376 q5 9 6 9.5 q1 0.5 8 2.5 l195 0 l6 -7 l2 -381 ZM831 317 q0 10 9.5 13.5 q9.5 3.5 12 1 q2.5 -2.5 3 -3.5 q0.5 -1 1.5 -4 q1 -3 -5 -9 q-6 -6 -13.5 -7 q-7.5 -1 -7.5 9 ZM395 470 l-250 0 l6 23 l7 2 l237 0 q-7 -7 -7.5 -12 q-0.5 -5 7.5 -13 ZM655 470 l-249 0 q5 3 7 7.5 q2 4.5 1 8 q-1 3.5 -8 9.5 l242 0 q8 -7 8 -8.5 q0 -1.5 -1 -16.5 ZM457 524 l-114 0 l-5 25 l125 0 l-6 -25 ZM510 577 l-223 0 l-8 12 l242 0 q0 -5 -11 -12 Z"></path></symbol><symbol id="laptop" viewBox="0 -212 1024 1024"><path d="M290 2 l611 0 q0 102 -1 203 q-1 101 52 506 l-3 3 l-706 0 l-3 -3 q52 -404 49.5 -503.5 q-2.5 -99.5 -3.5 -199.5 l4 -6 ZM341 49 l513 1 l4 7 l-2 308 l-8 5 l-507 0 l-7 -8 l0 -305 l7 -8 ZM322 441 l47 0 l0 24 l-48 0 l1 -24 ZM405 441 l47 0 l0 24 l-47 0 l0 -24 ZM489 441 l47 2 l0 22 l-47 0 l0 -24 ZM573 441 l46 0 l0 24 l-46 0 l0 -24 ZM657 441 l46 0 l0 24 l-48 0 l2 -24 ZM739 441 l48 0 l0 24 l-48 0 l0 -24 ZM823 441 l47 2 l0 22 l-47 0 l0 -24 ZM322 489 l47 0 l0 24 l-48 0 l1 -24 ZM406 489 l45 0 l1 24 l-47 0 l1 -24 ZM489 489 l47 1 l0 23 l-47 0 l0 -24 ZM573 489 l46 0 l0 24 l-46 0 l0 -24 ZM657 489 l46 0 l0 24 l-48 0 l2 -24 ZM740 489 l45 0 l2 24 l-48 0 l1 -24 ZM823 489 l47 1 l0 23 l-47 0 l0 -24 ZM321 538 l48 0 l0 22 l-48 0 l0 -22 ZM405 538 l47 0 l0 22 l-47 0 l0 -22 ZM489 538 l47 0 l0 22 l-47 0 l0 -22 ZM573 538 l46 0 l0 22 l-46 0 l0 -22 ZM655 538 l48 0 l0 22 l-48 0 l0 -22 ZM739 538 l48 0 l0 22 l-48 0 l0 -22 ZM823 538 l47 0 l0 22 l-47 0 l0 -22 ZM321 585 l48 0 l0 24 l-47 0 l-1 -24 ZM405 585 l47 0 l0 24 l-47 0 l0 -24 ZM489 585 l47 0 l-1 24 l-46 0 l0 -24 ZM573 585 l46 0 l0 24 l-46 0 l0 -24 ZM655 585 l48 0 l0 24 l-46 0 l-2 -24 ZM739 585 l48 0 l0 24 l-48 0 l0 -24 ZM823 585 l47 0 l-1 24 l-46 0 l0 -24 ZM465 633 l24 0 l0 22 l214 0 l0 -22 l23 0 q2 30 3 34 q1 4 -12 13 l-245 0 q-10 -11 -9 -14.5 q1 -3.5 2 -32.5 ZM882 25 l-572 0 l0 367 l572 0 l0 -367 ZM834 74 l-477 0 l0 271 l477 0 l0 -271 ZM884 419 l-577 0 l-43 268 l0 5 l664 0 l-44 -273 Z"></path></symbol><symbol id="imac" viewBox="0 -212 1024 1024"><path d="M214 -38 l676 0 q12 9 17.5 15.5 q5.5 6.5 10.5 18.5 l0 506 q-28 51 -109 46 q-81 -5 -109 -10 q-4 7 -8.5 13.5 q-4.5 6.5 -8.5 12.5 q-6 9 -9 18 q-16 37 -5 41.5 q11 4.5 43 5.5 q19 1 37 6 q18 5 34 15 l2 56 l-469 0 q-2 -39 4 -51.5 q6 -12.5 41 -21.5 l69 -6 q23 -17 8.5 -44 q-14.5 -27 -27.5 -44 q-29 6 -114 11.5 q-85 5.5 -114 -48.5 l0 -506 q4 -12 11 -20 q7 -8 20 -14 ZM600.5 110.5 q9.5 -0.5 9.5 2.5 q-9 20 -17 29.5 q-8 9.5 -19 12 q-11 2.5 -10.5 -7 q0.5 -9.5 14 -23 q13.5 -13.5 23 -14 ZM618 166.5 q9 7.5 10 10 q1 2.5 -15 10 q-16 7.5 -22.5 38.5 q-6.5 31 23.5 54 q4 3 9 5 q5 2 10 4 q-17 27 -35 32.5 q-18 5.5 -41 -19.5 l-3 0 q-27 29 -47 18.5 q-20 -10.5 -35 -42.5 q-11 -25 -8.5 -56 q2.5 -31 23.5 -50 q10 -8 24.5 -9.5 q14.5 -1.5 24.5 1.5 q12 3 15.5 8 q3.5 5 14.5 2 q19 -7 31 -10.5 q12 -3.5 21 4 ZM880 9 l-659 0 l0 430 l659 0 l0 -430 ZM561.5 471.5 q-4.5 -2.5 -12.5 -2.5 q-8 0 -11.5 3 q-3.5 3 -6 7 q-2.5 4 -2.5 10.5 q0 6.5 1.5 9.5 q1.5 3 4.5 5.5 q3 2.5 7.5 4 q4.5 1.5 10 1.5 q5.5 0 11 -4 q5.5 -4 7 -7 q1.5 -3 1.5 -9.5 q0 -6.5 -3 -11 q-3 -4.5 -7.5 -7 ZM683 539 l-255 0 q20 29 28 58 q8 29 -31 45 q-12 -1 -49 2 q-37 3 -47 20 q-2 7 -1 14.5 q1 7.5 1 15.5 l443 0 l0 -35 l-35 -11 l-60 -5 q-4 -1 -7.5 -3 q-3.5 -2 -7.5 -4 q-17 -18 -3.5 -49 q13.5 -31 24.5 -48 Z"></path></symbol><symbol id="macmini" viewBox="0 -212 1024 1024"><path d="M243.5 -5.5 q18.5 -4.5 308.5 -4.5 q290 0 308.5 7.5 q18.5 7.5 35 23 q16.5 15.5 27.5 35.5 q11 20 11 314.5 q0 294.5 -11 314.5 q-11 20 -26 34 q-15 14 -43 23.5 q-28 9.5 -318 9.5 q-290 0 -308.5 -8 q-18.5 -8 -37 -25 q-18.5 -17 -27.5 -35.5 q-9 -18.5 -9 -313 q0 -294.5 9 -313 q9 -18.5 21.5 -30.5 q12.5 -12 26.5 -20 q14 -8 32.5 -12.5 ZM576.5 147 q15.5 0 21.5 9 q-6 30 -18.5 47.5 q-12.5 17.5 -28 17.5 q-15.5 0 -18.5 -3 q-3 -3 -3 -17.5 q0 -14.5 15.5 -34 q15.5 -19.5 31 -19.5 ZM476 236.5 q14 -6.5 32.5 -6.5 q18.5 0 26 3.5 q7.5 3.5 17 3.5 q9.5 0 15.5 -3.5 q6 -3.5 26 -3.5 q20 0 40 17 q20 17 20 26.5 q0 9.5 -9 17 q-9 7.5 -12 20 q-3 12.5 3 20 q6 7.5 14 12.5 q8 5 11 12.5 q3 7.5 -12.5 35.5 q-15.5 28 -21.5 34 q-6 6 -18.5 12 q-12.5 6 -25 6 q-12.5 0 -49.5 0 q-37 0 -43 -3 q-6 -3 -20 -17 q-14 -14 -23 -31 q-9 -17 -14 -32 q-5 -15 -5 -40 q0 -25 6.5 -40.5 q6.5 -15.5 17 -26 q10.5 -10.5 24.5 -17 ZM580.5 394 q11.5 3 20.5 -11 q9 -14 -1 -25.5 q-10 -11.5 -13 -33 q-3 -21.5 4 -34.5 q7 -13 3 -13 q-4 0 -11.5 -1 q-7.5 -1 -15.5 1 q-5 1 -8 3.5 q-3 2.5 -7 2.5 q-16 0 -31.5 -4 q-15.5 -4 -30.5 -2 q-8 1 -12.5 7.5 q-4.5 6.5 -5.5 13.5 q-8 31 3.5 53.5 q11.5 22.5 29.5 45.5 q24 -5 44 -5.5 q20 -0.5 31.5 2.5 ZM268 570 l567 0 q25 -13 36.5 -23.5 q11.5 -10.5 22.5 -35.5 l0 -419 q-12 -25 -24.5 -36 q-12.5 -11 -40.5 -20 l-579 0 q-22 9 -33.5 21.5 q-11.5 12.5 -22.5 34.5 l0 419 q15 29 29 40.5 q14 11.5 45 18.5 ZM200 591 l-6 0 q0 54 7 75.5 q7 21.5 58 38.5 l579 0 q45 -18 50.5 -43 q5.5 -25 5.5 -71 l-56 22 l-598 0 l-40 -22 Z"></path></symbol><symbol id="macbook" viewBox="0 -212 1024 1024"><path d="M211 12 l641 0 q0 103 -1.5 204.5 q-1.5 101.5 53.5 508.5 l-3 3 l-740 0 l-2 -3 q54 -405 51.5 -505.5 q-2.5 -100.5 -3.5 -200.5 l4 -7 ZM265 60 l537 1 l4 7 l-2 308 l-8 6 l-531 0 l-8 -8 l0 -306 l8 -8 ZM552 120 q9 0 11 4 q-4 16 -13.5 29 q-9.5 13 -19.5 11.5 q-10 -1.5 -9 -10 q1 -8.5 11.5 -21.5 q10.5 -13 19.5 -13 ZM600 186 q-15 12 -22 28.5 q-7 16.5 7 34.5 q3 4 8.5 7 q5.5 3 10.5 7 q-3 17 -14 31 q-11 14 -29 21 q-10 2 -22.5 -2.5 q-12.5 -4.5 -25.5 -3.5 q-9 4 -14.5 7.5 q-5.5 3.5 -16.5 -1.5 q-34 -19 -42 -67.5 q-8 -48.5 25 -74.5 q20 -11 34 -4 q14 7 30 5 q4 -1 6.5 -2.5 q2.5 -1.5 7.5 -2.5 q17 -6 30.5 -1 q13.5 5 26.5 18 ZM245 454 l48 0 l0 24 l-49 0 l1 -24 ZM332 454 l49 0 l0 24 l-49 0 l0 -24 ZM419 454 l50 1 l0 23 l-50 0 l0 -24 ZM507 454 l49 0 l0 24 l-49 0 l0 -24 ZM595 454 l48 0 l0 24 l-50 0 l2 -24 ZM682 454 l49 0 l0 24 l-49 0 l0 -24 ZM769 454 l50 1 l0 23 l-50 0 l0 -24 ZM245 501 l48 0 l0 25 l-49 0 l1 -25 ZM333 501 l47 0 l1 25 l-49 0 l1 -25 ZM419 501 l50 2 l0 23 l-50 0 l0 -25 ZM507 501 l49 0 l0 25 l-49 0 l0 -25 ZM595 501 l48 0 l0 25 l-50 0 l2 -25 ZM683 501 l47 0 l1 25 l-49 0 l1 -25 ZM769 501 l50 2 l0 23 l-50 0 l0 -25 ZM244 551 l49 0 l0 22 l-49 0 l0 -22 ZM332 551 l49 0 l0 22 l-49 0 l0 -22 ZM419 551 l50 0 l0 22 l-50 0 l0 -22 ZM507 551 l49 0 l0 22 l-49 0 l0 -22 ZM593 551 l50 0 l0 22 l-50 0 l0 -22 ZM682 551 l49 0 l0 22 l-49 0 l0 -22 ZM769 551 l50 0 l0 22 l-50 0 l0 -22 ZM244 599 l49 0 l0 24 l-48 0 l-1 -24 ZM332 599 l49 0 l0 24 l-49 0 l0 -24 ZM419 599 l50 0 l-1 24 l-49 0 l0 -24 ZM507 599 l49 0 l0 24 l-49 0 l0 -24 ZM593 599 l50 0 l0 24 l-48 0 l-2 -24 ZM682 599 l49 0 l0 24 l-49 0 l0 -24 ZM769 599 l50 0 l-2 24 l-48 0 l0 -24 ZM394 647 l25 0 l0 22 l224 0 l0 -22 l26 0 q1 29 2 33 q1 4 -13 14 l-256 0 q-11 -11 -9.5 -14.5 q1.5 -3.5 1.5 -32.5 ZM831 35 l-599 0 l0 370 l599 0 l0 -370 ZM781 84 l-499 0 l0 273 l499 0 l0 -273 ZM834 431 l-605 0 l-46 270 l0 4 l697 0 l-46 -274 Z"></path></symbol></defs></svg>