<svg style="position: absolute; width: 0; height: 0;" width="0" height="0" version="1.1" xmlns="http://www.w3.org/2000/svg" xmlns:xlink="http://www.w3.org/1999/xlink"><defs><symbol id="exclam" viewBox="0 -170 2048 2048"><path d="M588 1431 q0 -92 -107 -92 q-93 0 -176 74 q-84 74 -84 166 q0 92 105 92 q93 0 178 -74 q84 -73 84 -166 ZM764 227 q-111 272 -204 525 q-93 253 -175 495 l258 -19 q117 -270 228.5 -518 q111.5 -248 228.5 -483 l-336 0 Z"></path></symbol><symbol id="quotedbl" viewBox="0 -170 2048 2048"><path d="M1108 1258 l-342 8 l-107 246 l50 4 l-66 53 l-53 119 l420 -181 l98 -249 ZM1493 1251 l-342 9 l-107 245 l50 4 l-66 54 l-53 121 l420 -183 l98 -250 Z"></path></symbol><symbol id="numbersign" viewBox="0 -170 2048 2048"><path d="M1092 1218 l-52 123 l-96 4 l51 -123 l97 -4 ZM1573 981 l-158 8 l66 -158 l-224 -10 l-75 180 l-95 2 l64 -155 l-231 -2 l-70 170 l-156 8 l-90 217 l154 -6 l-49 120 l-154 7 l-76 229 l133 -6 l-49 119 l232 4 l55 -133 l94 -4 l-49 118 l225 11 l58 -138 l165 -6 l76 -229 l-145 6 l51 -125 l129 -6 l119 -221 Z"></path></symbol><symbol id="dollar" viewBox="0 -170 2048 2048"><path d="M1989 -53 q-52 -4 -112 -7.5 q-60 -3.5 -132 -3.5 l-78 0 q54 -106 87.5 -176.5 q33.5 -70.5 49.5 -105.5 l-432 29 q-51 99 -88 168.5 q-37 69.5 -61 117.5 q-233 51 -426 246 q-209 209 -209 432 q0 106 49 240 q22 57 46 114.5 q24 57.5 46 114.5 q21 53 21 90 q0 68 -123 117 q-88 37 -219 55 q-17 4 -72.5 11.5 q-55.5 7.5 -155.5 17.5 l-129 451 q143 -10 250 -22 q107 -12 182 -28 q-23 58 -47.5 108 q-24.5 50 -50.5 95 l434 -31 q76 -138 148 -346 q71 -42 129 -93.5 q58 -51.5 104 -115.5 q107 -137 107 -286 q0 -120 -103 -320 q-102 -201 -102 -274 q0 -168 313 -168 q15 0 42 1.5 q27 1.5 59 3.5 q32 2 67 4 q35 2 67.5 4 q32.5 2 59.5 3.5 q27 1.5 43 1.5 l4 0 l232 -448 Z"></path></symbol><symbol id="percent" viewBox="0 -170 2048 2048"><path d="M1421 1227 q0 67 -73 131 q-71 63 -140 63 q-78 0 -78 -71 q0 -78 76 -154 q78 -78 154 -78 q15 0 39 10 l-41 19 q63 33 63 80 ZM1151 309 q0 70 -74 133 q-68 64 -139 64 q-78 0 -78 -72 q0 -80 76 -155 q78 -78 154 -78 q15 0 38 10 l-41 18 q64 33 64 80 ZM2079 -45 l-264 -82 l-369 422 q8 -29 8 -68 q0 -32 -12 -73 l28 -13 q-24 -223 -256 -223 q-226 0 -444 203 q-217 199 -217 426 q0 118 69 181 q69 63 189 63 q132 0 262 -70 l-899 1026 l313 -12 l355 -396 q-19 60 -19 123 q0 59 18 104 q18 45 52 75.5 q34 30.5 81.5 46.5 q47.5 16 106.5 16 q210 0 422 -174 q221 -180 221 -387 q0 -33 -12 -74 l27 -12 q-26 -221 -252 -221 q-128 0 -250 61 l842 -942 Z"></path></symbol><symbol id="ampersand" viewBox="0 -170 2048 2048"><path d="M1243 954 l-147 383 q-87 15 -140 22 q-53 7 -79 7 q-234 0 -234 -109 q0 -20 8 -38 q45 -119 213 -191 q70 -33 140.5 -50.5 q70.5 -17.5 146.5 -21.5 q8 -1 15 -1.5 q7 -0.5 14 -0.5 l24 0 l39 0 ZM2189 -84 q-114 -18 -460 -18 q-426 0 -660 73 q-359 111 -483 412 q-35 90 -35 164 q0 157 125 274 q-347 183 -447 439 q-34 93 -34 163 q0 166 165 242 q133 59 310 59 q346 0 831 -116 l82 -344 l-92 22 q82 -242 142.5 -419 q60.5 -177 101.5 -300 l-330 -71 l-53 147 q-54 -2 -109 -10 q-55 -8 -113 -25 q-155 -45 -155 -123 q0 -13 6 -30 q72 -163 422 -189 q60 -4 114.5 -6 q54.5 -2 108.5 -2 q94 0 176.5 7.5 q82.5 7.5 155.5 23.5 l231 -373 Z"></path></symbol><symbol id="quotesingle" viewBox="0 -170 2048 2048"><path d="M1100 1229 l-342 8 l-107 246 l49 4 l-65 53 l-53 121 l419 -180 l99 -252 Z"></path></symbol><symbol id="parenleft" viewBox="0 -170 2048 2048"><path d="M1206 -250 q-292 266 -454 482 q-99 128 -180.5 271 q-81.5 143 -147.5 304 q-164 408 -164 666 q0 207 86 432 l465 -119 q-96 -208 -96 -414 q0 -253 149 -610 q121 -287 318 -530 q82 -106 191 -213.5 q109 -107.5 247 -225.5 l-414 -43 Z"></path></symbol><symbol id="parenright" viewBox="0 -170 2048 2048"><path d="M1362 170 q0 -192 -78 -416 l-463 101 q94 207 94 413 q0 207 -114 498 q-130 328 -338 598 q-93 121 -211.5 241.5 q-118.5 120.5 -267.5 243.5 l401 62 q306 -273 489 -514 q202 -274 345 -623 q143 -349 143 -604 Z"></path></symbol><symbol id="asterisk" viewBox="0 -170 2048 2048"><path d="M1651 862 l-359 110 l226 -409 l-392 38 l-127 402 l-333 -64 l-181 340 l340 -34 l-397 315 l240 164 l299 -324 l37 303 l389 -239 l-170 -250 l366 -29 l62 -323 Z"></path></symbol><symbol id="plus" viewBox="0 -170 2048 2048"><path d="M1343 730 l-282 8 l88 -236 l-287 2 l-92 242 l-281 8 l-81 287 l256 -8 l-86 229 l288 -2 l88 -235 l308 -11 l81 -284 Z"></path></symbol><symbol id="comma" viewBox="0 -170 2048 2048"><path d="M618 47 l-342 10 l-106 244 l49 6 l-65 51 l-54 121 l420 -180 l98 -252 Z"></path></symbol><symbol id="hyphen" viewBox="0 -170 2048 2048"><path d="M1268 676 q-172 19 -361.5 35.5 q-189.5 16.5 -400.5 31.5 l-158 291 q212 -14 403.5 -32.5 q191.5 -18.5 378.5 -45.5 l138 -280 Z"></path></symbol><symbol id="period" viewBox="0 -170 2048 2048"><path d="M662 334 q0 -107 -136 -107 q-98 0 -194 72 q-105 78 -105 172 q0 109 138 109 q95 0 192 -74 q105 -76 105 -172 Z"></path></symbol><symbol id="slash" viewBox="0 -170 2048 2048"><path d="M1366 -268 q-178 235 -366.5 504.5 q-188.5 269.5 -399.5 582.5 q-92 138 -178 270 q-86 132 -167 259.5 q-81 127.5 -158 251.5 q-77 124 -150 247 l370 80 q129 -211 280 -446.5 q151 -235.5 335 -509.5 q102 -151 201.5 -296 q99.5 -145 197 -285.5 q97.5 -140.5 195 -277.5 q97.5 -137 196.5 -272 l-356 -108 Z"></path></symbol><symbol id="zero" viewBox="0 -170 2048 2048"><path d="M1409 508 l-111 74 q21 53 21 115 q0 192 -174 403 q-182 225 -363 225 q-137 0 -137 -147 q0 -114 86 -324 q213 -519 477 -538 l15 0 q194 0 188 174 l-2 18 ZM1817 277 q0 -187 -115 -289 q-106 -94 -299 -94 q-158 0 -324 78 q-324 158 -581 569 q-258 410 -258 768 q0 188 90 297 q95 110 284 110 q319 0 641 -284 q290 -257 424 -582 q74 -181 74 -313 q0 -78 -18 -146 l77 -51 q3 -20 4 -36.5 q1 -16.5 1 -26.5 Z"></path></symbol><symbol id="one" viewBox="0 -170 2048 2048"><path d="M1262 -137 q-163 76 -326.5 146.5 q-163.5 70.5 -331.5 136.5 l60 299 q87 -27 150.5 -49.5 q63.5 -22.5 111.5 -45.5 q-160 388 -257.5 632.5 q-97.5 244.5 -138.5 355.5 l-186 12 l-147 356 q177 -22 381.5 -35.5 q204.5 -13.5 441.5 -19.5 l141 -346 l-203 14 q68 -182 137.5 -362 q69.5 -180 141.5 -360.5 q72 -180.5 146.5 -362 q74.5 -181.5 152.5 -367.5 l-274 -4 Z"></path></symbol><symbol id="two" viewBox="0 -170 2048 2048"><path d="M1851 193 q0 -165 -125 -254 q-110 -80 -280 -80 q-278 0 -543 192 q-249 181 -383 439 l400 -19 q59 -97 153 -158 q100 -69 207 -69 q133 0 133 98 q0 62 -61 135 q-11 10 -25 26.5 q-14 16.5 -37 39.5 q-100 99 -175 172 q-75 73 -126 121 q-189 182 -409.5 401 q-220.5 219 -479.5 481 q385 -16 697.5 -37.5 q312.5 -21.5 560.5 -46.5 l155 -364 q-161 16 -291 25 q-130 9 -233 12 q157 -161 273 -277 q116 -116 194 -194 q194 -188 262 -287 q133 -181 133 -356 Z"></path></symbol><symbol id="three" viewBox="0 -170 2048 2048"><path d="M2030 -117 l-1266 66 l-156 379 l615 -31 l-531 625 q149 -11 229 -16 q80 -5 97 -5 q172 0 172 117 q0 82 -84 178 q-74 84 -162 123 q-63 31 -135 37 l-16 0 q-150 0 -150 -127 q0 -27 10 -66 l-403 35 q-43 104 -43 201 q0 168 127 258 q112 82 287 82 q284 0 577 -209 q282 -205 395 -475 q52 -116 52 -236 q0 -206 -195 -274 l580 -662 Z"></path></symbol><symbol id="four" viewBox="0 -170 2048 2048"><path d="M963 1069 q-52 10 -98.5 14 q-46.5 4 -94.5 2 l-31 0 q82 -93 180 -201.5 q98 -108.5 222 -240.5 l-178 426 ZM1479 -133 q-148 141 -309.5 303 q-161.5 162 -346.5 354 q-76 79 -235 247.5 q-159 168.5 -404 428.5 l-127 313 q199 -9 384 -21 q185 -12 360 -28 l-111 258 l443 -22 l104 -263 l190 -12 l152 -399 l-184 12 q166 -395 287.5 -685 q121.5 -290 207.5 -488 l-411 2 Z"></path></symbol><symbol id="five" viewBox="0 -170 2048 2048"><path d="M1997 -117 q-118 9 -203.5 14 q-85.5 5 -142.5 7 q-163 10 -268.5 15 q-105.5 5 -159.5 5 q-78 0 -166 -6 q-63 87 -140.5 206 q-77.5 119 -177.5 274 q-100 160 -185 294.5 q-85 134.5 -157 257.5 l312 113 q154 -172 325 -172 q154 0 154 117 q0 125 -135 231 q-131 107 -260 107 q-150 0 -150 -125 q0 -29 10 -68 l-403 35 q-43 104 -43 201 q0 167 127 258 q106 82 284 82 q285 0 578 -209 q288 -208 397 -475 q54 -135 54 -234 q0 -158 -121 -237 q-104 -68 -271 -68 q-94 0 -190 21 q27 -48 68 -111.5 q41 -63.5 98 -144.5 l541 -17 l225 -371 Z"></path></symbol><symbol id="six" viewBox="0 -170 2048 2048"><path d="M1143 1028 q0 122 -135 225 q-128 99 -250 99 q-160 0 -160 -125 q0 -117 133 -226 q130 -106 254 -106 q33 0 62 9 q29 9 50 26 q21 17 33.5 41.5 q12.5 24.5 12.5 56.5 ZM1681 -109 l-438 31 l-788 913 q-72 82 -120.5 144.5 q-48.5 62.5 -76.5 105.5 q-90 152 -90 299 q0 174 129 267 q115 84 293 84 q276 0 569 -207 q284 -200 391 -467 q49 -122 49 -226 q0 -167 -135 -251 q-121 -65 -293 -64 l-32 0 l542 -629 Z"></path></symbol><symbol id="seven" viewBox="0 -170 2048 2048"><path d="M2025 -137 q-247 22 -560.5 35.5 q-313.5 13.5 -700.5 20.5 l-156 379 q69 0 266 -6 q88 -3 153.5 -4 q65.5 -1 113.5 -1 l63 0 q-55 69 -116 148.5 q-61 79.5 -130 173.5 q-10 16 -69.5 98.5 q-59.5 82.5 -165.5 233.5 q-172 241 -295 426.5 q-123 185.5 -209 320.5 l432 41 q227 -366 592 -862 q221 -299 414.5 -549 q193.5 -250 367.5 -455 Z"></path></symbol><symbol id="eight" viewBox="0 -170 2048 2048"><path d="M1133 1064 q0 117 -136 205 q-128 84 -243 84 q-166 0 -166 -117 q0 -114 135 -207 q127 -84 242 -84 q168 0 168 119 ZM1300 347 q56 35 56 82 q0 91 -105 158 q-97 59 -188 59 q-131 0 -131 -102 q0 -100 117 -190 q108 -84 213 -84 q62 0 102 37 l-64 40 ZM1806 266 q0 -83 -55 -142 l49 -33 q-104 -200 -352 -200 q-262 0 -504 137 q-264 145 -358 371 q-45 102 -45 192 q0 103 63 172 q-309 174 -420 461 q-37 95 -37 172 q0 166 144 248 q121 72 293 72 q280 0 555 -164 q282 -170 389 -422 q49 -116 49 -213 q0 -113 -72 -197 q193 -118 267 -305 q34 -93 34 -149 Z"></path></symbol><symbol id="nine" viewBox="0 -170 2048 2048"><path d="M1331 330 q41 41 41 88 q0 30 -12 61 q-38 98 -143 160 q-106 62 -211 62 q-158 0 -158 -123 q0 -127 147 -238 q139 -104 269 -104 q82 0 125 55 l-58 39 ZM1841 131 q-84 -274 -393 -274 q-291 0 -582 192 q-292 188 -401 459 q-43 102 -43 207 q0 153 94 244 q95 90 248 108 l-705 649 l471 0 l988 -907 q192 -180 258 -332 q49 -117 49 -207 q0 -50 -23 -114 l39 -25 Z"></path></symbol><symbol id="colon" viewBox="0 -170 2048 2048"><path d="M664 1103 q0 -110 -132 -110 q-100 0 -198 80 q-105 86 -105 184 q0 115 133 115 q99 0 201 -84 q101 -86 101 -185 ZM981 337 q0 -110 -131 -110 q-100 0 -203 84 q-100 82 -100 182 q0 113 131 113 q97 0 201 -84 q102 -85 102 -185 Z"></path></symbol><symbol id="semicolon" viewBox="0 -170 2048 2048"><path d="M651 913 l-342 10 l-110 260 l49 7 l-66 55 l-55 127 l422 -191 l102 -268 ZM981 159 q0 -110 -131 -110 q-100 0 -203 84 q-100 82 -100 182 q0 115 131 115 q97 0 200 -86 q103 -85 103 -185 Z"></path></symbol><symbol id="less" viewBox="0 -170 2048 2048"><path d="M1333 309 l-428 2 l-483 569 l43 539 l430 -29 l-47 -522 l485 -559 Z"></path></symbol><symbol id="equal" viewBox="0 -170 2048 2048"><path d="M1208 860 q-168 19 -356 37 q-188 18 -406 35 l-178 291 q271 -25 467.5 -43.5 q196.5 -18.5 331.5 -28.5 l141 -291 ZM1364 485 q-194 29 -381 45.5 q-187 16.5 -381 24.5 l-153 289 q211 -4 405 -24.5 q194 -20.5 379 -59.5 l131 -275 Z"></path></symbol><symbol id="greater" viewBox="0 -170 2048 2048"><path d="M1114 807 l-37 -518 l-432 29 l39 516 l-504 569 l438 -30 l496 -566 Z"></path></symbol><symbol id="question" viewBox="0 -170 2048 2048"><path d="M680 1464 q0 -92 -107 -92 q-94 0 -176 73 q-84 74 -84 166 q0 93 105 93 q93 0 178 -74 q84 -73 84 -166 ZM1667 483 q0 -250 -403 -250 q-130 0 -257 13.5 q-127 13.5 -255 41.5 l-72 297 q120 -28 238.5 -43.5 q118.5 -15.5 248.5 -15.5 q119 0 119 68 q0 84 -94 139 q-80 48 -172 55 q-120 11 -208 19 q-88 8 -148 12 q-51 106 -103 220.5 q-52 114.5 -112 244.5 l311 -13 l82 -184 q625 -45 788 -444 q37 -87 37 -160 Z"></path></symbol><symbol id="at" viewBox="0 -170 2048 2048"><path d="M1200 1214 q-181 119 -346 119 q-143 0 -211 -80 l191 -14 l63 -115 q10 -2 14 -2 l13 0 l18 0 q37 0 84 6 l-20 99 l194 -13 ZM1108 499 q-150 230 -267.5 415.5 q-117.5 185.5 -203.5 332.5 q-47 -67 -47 -150 q0 -188 170 -370 q153 -162 348 -228 ZM1094 794 q-11 56 -19 97 q-8 41 -12 69 q-8 -2 -25 -2 l-26 0 l-21 0 q17 -28 42.5 -69 q25.5 -41 60.5 -95 ZM1479 612 q39 65 39 135 q0 128 -103 267 q-43 57 -95 106.5 q-52 49.5 -116 91.5 q27 -199 62.5 -376.5 q35.5 -177.5 83.5 -344.5 l-224 2 q82 -24 164 -24 q169 0 230 121 l-41 22 ZM1802 508 q-84 -283 -397 -283 q-306 0 -608 215 q-303 213 -418 502 q-53 138 -53 250 q0 186 118 286 q112 99 301 99 q292 0 582 -211 q144 -106 244 -222.5 q100 -116.5 158 -254.5 q53 -138 53 -230 q0 -73 -21 -129 l41 -22 Z"></path></symbol><symbol id="A" viewBox="0 -170 2048 2048"><path d="M1077 402 q-45 205 -76.5 358 q-31.5 153 -48.5 258 q-56 -6 -125 -6 q-72 0 -133 6 q129 -211 223.5 -361.5 q94.5 -150.5 159.5 -254.5 ZM1067 -166 q-375 572 -662.5 1031.5 q-287.5 459.5 -494.5 816.5 l414 12 l172 -324 q48 -4 88.5 -7 q40.5 -3 77.5 -3 q106 0 210 18 l-63 318 l446 -107 q137 -995 351 -1757 l-539 2 Z"></path></symbol><symbol id="B" viewBox="0 -170 2048 2048"><path d="M1233 1089 q0 128 -186 207 q-147 61 -297 61 q-13 0 -39 -1 q-26 -1 -68 -3 l170 -387 q112 -12 156 -12 q264 0 264 135 ZM1503 364 q0 19 -8 37 q-79 216 -534 254 l151 -307 l-115 -72 q88 -8 151 -11 q63 -3 105 -3 q250 0 250 102 ZM2001 143 q0 -254 -510 -254 q-41 0 -174 9 q-133 9 -363 30 q-130 12 -239 35 l-92 370 q26 -7 58.5 -13.5 q32.5 -6.5 70.5 -12.5 q-181 393 -299.5 652 q-118.5 259 -182.5 394 q-27 -1 -80 -12 l-200 346 q100 14 207 21.5 q107 7.5 225 7.5 q82 0 153.5 -3.5 q71.5 -3.5 137.5 -7.5 q288 -23 532 -155 q281 -150 377 -391 q37 -92 37 -166 q0 -143 -137 -238 q340 -205 442 -455 q37 -90 37 -157 Z"></path></symbol><symbol id="C" viewBox="0 -170 2048 2048"><path d="M1931 258 q-47 -362 -440 -362 q-351 0 -700 317 q-302 278 -453 641 q-94 219 -94 447 q0 417 387 417 q281 0 567 -196 q132 -93 235 -203 q103 -110 181 -242 l-344 -86 q-35 70 -85 127 q-50 57 -114 105 q-140 104 -283 104 q-135 0 -135 -155 q0 -132 76 -308 q84 -198 215 -348 q162 -183 344 -200 l27 0 q152 0 201 127 l415 -185 Z"></path></symbol><symbol id="D" viewBox="0 -170 2048 2048"><path d="M1401 539 q0 61 -35 160 q-78 204 -283 365 q-203 162 -421 207 q110 -308 216.5 -545.5 q106.5 -237.5 211.5 -417.5 l-80 -84 q160 20 262 86 q129 86 129 229 ZM1823 398 q0 -280 -269 -426 q-212 -115 -520 -115 q-166 0 -334 39 l-92 371 q31 -8 61.5 -15 q30.5 -7 59.5 -16 q-93 186 -178 367.5 q-85 181.5 -163 361.5 q-78 180 -150.5 359.5 q-72.5 179.5 -139.5 361.5 q291 -18 348 -24 q401 -33 783 -320 q381 -282 532 -661 q62 -156 62 -283 Z"></path></symbol><symbol id="E" viewBox="0 -170 2048 2048"><path d="M1966 -141 q-289 30 -600.5 48.5 q-311.5 18.5 -652.5 25.5 l-144 369 l150 -3 q-157 344 -304 704.5 q-147 360.5 -286 739.5 q272 -30 538.5 -48.5 q266.5 -18.5 540.5 -22.5 l162 -396 q-169 4 -328.5 14.5 q-159.5 10.5 -320.5 26.5 q23 -75 55.5 -153 q32.5 -78 77.5 -162 q136 -20 262 -29.5 q126 -9.5 246 -7.5 l61 0 l164 -397 q-142 2 -283.5 11 q-141.5 9 -287.5 26 q29 -91 60.5 -169 q31.5 -78 64.5 -145 q160 -16 320 -26.5 q160 -10.5 327 -14.5 l178 -391 Z"></path></symbol><symbol id="F" viewBox="0 -170 2048 2048"><path d="M1966 -141 q-265 26 -576 44.5 q-311 18.5 -677 29.5 l-156 377 l156 6 q-162 350 -307.5 705.5 q-145.5 355.5 -276.5 721.5 l434 -30 q63 -182 133.5 -357 q70.5 -175 157.5 -354 q136 -20 262 -29.5 q126 -9.5 246 -7.5 l61 0 l164 -397 q-142 2 -283.5 11 q-141.5 9 -287.5 26 q33 -100 64.5 -177 q31.5 -77 60.5 -137 q148 -16 307 -25.5 q159 -9.5 340 -13.5 l178 -393 Z"></path></symbol><symbol id="G" viewBox="0 -170 2048 2048"><path d="M1952 251 q-54 -360 -447 -360 q-310 0 -620 239 q-285 223 -473 568 q-187 340 -187 655 q0 367 332 367 q235 0 471 -148 l-51 123 l389 -27 l426 -1034 l-420 94 q-168 467 -358 555 q-96 41 -199 41 q-156 0 -156 -170 q0 -115 72 -297 q83 -199 217 -348 q166 -180 344 -196 l29 0 q206 0 217 213 l414 -275 Z"></path></symbol><symbol id="H" viewBox="0 -170 2048 2048"><path d="M1661 -117 q-146 313 -236 509 q-90 196 -122 276 l-398 -19 l322 -708 l-422 2 q-72 153 -166 360 q-94 207 -213 481 q-129 295 -225.5 530.5 q-96.5 235.5 -163.5 422.5 l422 0 q63 -181 130.5 -348 q67.5 -167 143.5 -328 l406 22 l-219 594 l419 0 q75 -217 157 -434.5 q82 -217.5 173 -440.5 q91 -223 194 -452 q103 -229 218 -469 l-420 2 Z"></path></symbol><symbol id="I" viewBox="0 -170 2048 2048"><path d="M1669 -150 q-72 -4 -153 -7 q-81 -3 -175 -3 q-138 0 -278 6.5 q-140 6.5 -289 20.5 l-160 366 q42 -4 91.5 -6 q49.5 -2 109.5 -6 q-141 299 -252 571 q-111 272 -196 523 l-211 26 l-133 355 q223 -31 438.5 -46.5 q215.5 -15.5 429.5 -15.5 l45 0 l133 -354 l-203 2 q99 -276 195 -524 q96 -248 201 -477 l-156 -70 l94 0 q128 0 307 6 l162 -367 Z"></path></symbol><symbol id="J" viewBox="0 -170 2048 2048"><path d="M1989 -172 q-68 -6 -150 -6 q-141 0 -330.5 15.5 q-189.5 15.5 -437.5 48.5 l-180 387 q75 -4 129.5 -8 q54.5 -4 91.5 -9 q-117 281 -201 485 q-84 204 -141 345 q-96 221 -260 221 q-72 0 -115 -43 l-387 324 q91 151 303 151 q206 0 445 -129 q353 -193 499 -538 q23 -52 59 -147 q36 -95 89 -243 q45 -123 84 -219 q39 -96 72 -166 l-146 -63 q182 -11 280 -17 q98 -6 115 -8 l181 -381 Z"></path></symbol><symbol id="K" viewBox="0 -170 2048 2048"><path d="M1647 -145 q-123 142 -295 315 q-172 173 -402 390 q105 -260 172.5 -421 q67.5 -161 98.5 -226 l-420 2 q-111 225 -212.5 449 q-101.5 224 -195.5 450.5 q-94 226.5 -180 456 q-86 229.5 -166 464.5 l432 -28 q82 -206 144.5 -355.5 q62.5 -149.5 107.5 -255.5 q123 152 123 414 q0 83 -12 189 l467 -60 q2 -29 3 -56.5 q1 -27.5 1 -53.5 q0 -409 -154 -750 q112 -100 193 -176 q81 -76 135 -127 q150 -151 279 -283 q129 -132 247 -252 l-366 -86 Z"></path></symbol><symbol id="L" viewBox="0 -170 2048 2048"><path d="M801 -141.24 q-422 864 -750 1818 l64 0 q203 2 406 -13 q203 -15 421 -44 l201 -418 q-130 21 -245 31 q-115 10 -220 8 l-47 0 q117 -309 261 -652 q144 -343 331 -732 l-422 2 Z"></path></symbol><symbol id="M" viewBox="0 -170 2048 2048"><path d="M2122 -143 l-856 979 l-140 -918 l-479 250 l39 137 q-156 358 -303 721 q-147 363 -287 741 l430 -28 q60 -175 133.5 -360.5 q73.5 -185.5 161.5 -385.5 l152 643 l616 -645 q-105 224 -177 396.5 q-72 172.5 -120 297.5 l432 -28 l547 -1286 q27 -64 44.5 -104 q17.5 -40 27.5 -56 q50 -94 176 -240 l-397 -114 Z"></path></symbol><symbol id="N" viewBox="0 -170 2048 2048"><path d="M1704 -139 q-221 395 -401 895 l-179 -899 l-477 248 l39 139 q-160 365 -306.5 725.5 q-146.5 360.5 -283.5 734.5 l430 -28 q72 -199 147 -382.5 q75 -183.5 150 -363.5 l191 713 l405 -55 q247 -779 633 -1586 l-348 -141 Z"></path></symbol><symbol id="O" viewBox="0 -170 2048 2048"><path d="M1378 563 q25 59 25 123 q0 199 -193 416 q-197 227 -389 227 q-155 0 -155 -184 q0 -240 190 -514 q202 -294 428 -311 l27 0 q184 0 217 143 l-150 100 ZM1952 256 q-54 -360 -447 -360 q-362 0 -708 315 q-311 279 -459 645 q-92 229 -92 432 q0 201 96 316 q101 116 303 116 q333 0 674 -286 q312 -266 448 -598 q74 -183 74 -310 q0 -87 -31 -176 l142 -94 Z"></path></symbol><symbol id="P" viewBox="0 -170 2048 2048"><path d="M1456 367 q0 25 -16 76 q-51 137 -242 244 q-164 90 -334 110 l238 -512 l-80 -49 l27 0 l22 0 q6 0 13.5 -0.5 q7.5 -0.5 15.5 -1.5 q5 -1 10 -1.5 q5 -0.5 10 -0.5 l21 0 l37 0 q278 0 278 135 ZM1950 175 q0 -320 -703 -320 q-165 0 -301.5 12 q-136.5 12 -245.5 37 l-90 369 q29 -7 61.5 -13.5 q32.5 -6.5 67.5 -11.5 q-204 453 -371 810.5 q-167 357.5 -296 637.5 l395 -26 l231 -510 q362 -44 668 -227 q315 -194 498 -496 q86 -143 86 -262 Z"></path></symbol><symbol id="Q" viewBox="0 -170 2048 2048"><path d="M1468 444 q17 46 17 82 q0 83 -74 225 q-27 54 -58.5 105.5 q-31.5 51.5 -70.5 99.5 q2 -35 9 -87 q7 -52 20 -122 l-371 242 q-4 76 -6 131 q-2 55 -2 90 q-29 8 -68 8 q-153 0 -153 -188 q0 -244 198 -522 q215 -305 445 -305 q163 0 209 178 l-95 63 ZM1991 196 q-15 -99 -51 -176.5 q-36 -77.5 -93 -131 q-57 -53.5 -134 -81.5 q-77 -28 -173 -28 q-350 0 -696 319 q-305 281 -455 643 q-90 224 -90 432 q0 204 94 316 q100 118 301 118 q129 0 285 -55 q37 109 117 172 l448 -284 q-131 -33 -186 -111 q334 -285 495 -686 q66 -168 66 -277 q0 -59 -14 -112 l86 -58 Z"></path></symbol><symbol id="R" viewBox="0 -170 2048 2048"><path d="M1503 377 q0 35 -14 71 q-52 143 -242 244 q-161 90 -334 111 l222 -469 l-99 -70 q29 0 119 -6 q37 -2 65.5 -3 q28.5 -1 51.5 -1 q231 0 231 123 ZM1999 184 q0 -307 -653 -307 q-384 0 -646 57 l-90 367 q82 -19 166 -27 q-155 318 -325 671 q-170 353 -357 759 l424 -29 q35 -81 84 -187.5 q49 -106.5 115 -248.5 q153 90 207 184 q53 91 53 264 l463 -57 q1 -5 1.5 -12 q0.5 -7 0.5 -17 l0 -28 q0 -338 -268 -516 q492 -196 739 -613 q86 -143 86 -260 Z"></path></symbol><symbol id="S" viewBox="0 -170 2048 2048"><path d="M1749 -170 q-60 -8 -116 -11 q-56 -3 -107 -3 q-206 0 -352 49 q-159 52 -310 186 q-155 137 -215 285 q-33 78 -33 174 q0 39 6 95.5 q6 56.5 19 131.5 q13 76 19 132.5 q6 56.5 6 93.5 q0 89 -17 135 q-29 71 -121 102 q-154 46 -344 72 l-131 448 q295 -18 539 -112 q305 -111 446 -299 q133 -182 133 -441 q0 -48 -6 -120.5 q-6 -72.5 -16 -172.5 q-10 -93 -15.5 -137.5 q-5.5 -44.5 -5.5 -46.5 q0 -81 123 -119 q82 -24 197 -24 l102 0 l199 -418 Z"></path></symbol><symbol id="T" viewBox="0 -170 2048 2048"><path d="M1948 -137 l-1217 21 l-182 397 l399 -6 q-87 176 -165.5 350 q-78.5 174 -150.5 348 q-72 174 -138 349.5 q-66 175.5 -127 353.5 l413 14 q113 -315 254.5 -650 q141.5 -335 315.5 -706 l-131 -65 l544 -8 l185 -398 Z"></path></symbol><symbol id="U" viewBox="0 -170 2048 2048"><path d="M1722 -96 l-401 981 q-65 162 -182 279 q-139 137 -293 137 q-135 0 -135 -164 q0 -125 108 -413 q113 -277 198 -477.5 q85 -200.5 144 -335.5 l-397 6 q-48 105 -82.5 178.5 q-34.5 73.5 -56.5 124.5 q-330 731 -330 1079 q0 393 381 393 q323 0 643 -264 q288 -243 428 -567 q135 -326 232.5 -563.5 q97.5 -237.5 162.5 -399.5 l-420 6 Z"></path></symbol><symbol id="V" viewBox="0 -170 2048 2048"><path d="M1538 -99 q-199 266 -380 540.5 q-181 274.5 -355 569.5 q57 -407 258 -1102 l-404 8 q-59 211 -118.5 446.5 q-59.5 235.5 -118.5 509.5 q-53 231 -92.5 433.5 q-39.5 202.5 -67.5 381.5 q72 -10 145.5 -15 q73.5 -5 149.5 -5 q119 0 227 12 q118 -208 275.5 -456.5 q157.5 -248.5 357.5 -544.5 q162 -242 302 -437 q140 -195 261 -348 l-440 7 Z"></path></symbol><symbol id="W" viewBox="0 -170 2048 2048"><path d="M2132 -102 q-108 193 -185 335.5 q-77 142.5 -126 241.5 q-114 212 -179 337 q-65 125 -88 167 q35 -257 83 -491 q48 -234 110 -451 l-416 -33 q-18 66 -32.5 130.5 q-14.5 64.5 -24.5 125.5 q-57 82 -117.5 178 q-60.5 96 -126.5 207 q-26 43 -81 141 q-55 98 -142 255 q33 -211 95.5 -483.5 q62.5 -272.5 160.5 -616.5 l-404 8 q-63 229 -122.5 464.5 q-59.5 235.5 -116.5 491.5 q-53 229 -92.5 431.5 q-39.5 202.5 -67.5 383.5 q135 -18 275 -18 q111 0 221 12 q116 -196 205.5 -337.5 q89.5 -141.5 148.5 -239.5 q-29 181 -48.5 314 q-19.5 133 -29.5 226 q262 -59 473 -59 l19 0 l18 0 q6 0 12.5 0.5 q6.5 0.5 14.5 1.5 q266 -489 506.5 -916 q240.5 -427 468.5 -810 l-412 4 Z"></path></symbol><symbol id="X" viewBox="0 -170 2048 2048"><path d="M1745 -139 q-181 155 -319.5 278 q-138.5 123 -243.5 222 q-13 -174 -19 -285.5 q-6 -111.5 -6 -162.5 l0 -21 l-500 162 q13 318 60 776 q-123 123 -294 308.5 q-171 185.5 -398 443.5 l245 153 q136 -168 260.5 -306 q124.5 -138 243.5 -251 q25 169 46.5 296.5 q21.5 127.5 41.5 215.5 l473 -114 q-48 -169 -82 -374.5 q-34 -205.5 -57 -455.5 q211 -205 404.5 -377 q193.5 -172 373.5 -319 l-229 -189 Z"></path></symbol><symbol id="Y" viewBox="0 -170 2048 2048"><path d="M1513 -109 q-237 215 -522 621 q-4 -33 -6 -66 q-2 -33 -2 -67 q0 -96 18 -242 q9 -60 16 -121 q7 -61 15 -121 l-444 72 q-23 160 -35 335 q-12 175 -12 380 q0 99 5 181.5 q5 82.5 15 148.5 q-63 136 -131 304 q-68 168 -143 380 l418 -3 q34 -100 74 -200 q40 -100 83 -205 q43 -103 108.5 -209 q65.5 -106 153.5 -217 q402 -505 789 -924 l-400 -47 Z"></path></symbol><symbol id="Z" viewBox="0 -170 2048 2048"><path d="M2038 -127 q-289 29 -584 46 q-295 17 -608 24 l-242 385 q167 -2 319.5 -6.5 q152.5 -4.5 295.5 -10.5 q-90 102 -154 175 q-64 73 -107 124 q-112 8 -219 18.5 q-107 10.5 -213 22.5 l-164 400 q82 -11 142 -19 q60 -8 102 -12 q-168 203 -315.5 383 q-147.5 180 -276.5 346 q312 0 602 -18.5 q290 -18.5 564 -55.5 l272 -397 q-175 29 -351 48.5 q-176 19.5 -364 33.5 q72 -93 147.5 -185 q75.5 -92 153.5 -186 q88 -4 164.5 -6 q76.5 -2 145.5 -2 l32 0 l162 -397 q-13 1 -25.5 1.5 q-12.5 0.5 -23.5 0.5 l-43 0 l-66 0 q166 -187 327 -363 q161 -176 327 -350 Z"></path></symbol><symbol id="bracketleft" viewBox="0 -170 2048 2048"><path d="M1688 -270 q-179 22 -339.5 33.5 q-160.5 11.5 -314.5 11.5 q-33 0 -74.5 -1 q-41.5 -1 -93.5 -3 q-239 532 -454 1067.5 q-215 535.5 -412 1084.5 l797 -51 l170 -430 l-377 21 q92 -236 218 -553.5 q126 -317.5 298 -726.5 l350 -11 l232 -442 Z"></path></symbol><symbol id="backslash" viewBox="0 -170 2048 2048"><path d="M743 -98 q-16 235 -46.5 501.5 q-30.5 266.5 -73.5 575.5 q-76 535 -162 940 l459 -137 q51 -236 95 -480.5 q44 -244.5 81 -508.5 q41 -299 68.5 -559 q27.5 -260 39.5 -496 l-461 164 Z"></path></symbol><symbol id="bracketright" viewBox="0 -170 2048 2048"><path d="M1665 -276 q-401 67 -768 67 l-199 440 l365 -36 q-135 333 -267 649.5 q-132 316.5 -270 630.5 l-379 30 l-182 432 l795 -57 q131 -280 251 -551 q120 -271 232 -539 q112 -269 217 -533.5 q105 -264.5 205 -532.5 Z"></path></symbol><symbol id="asciicircum" viewBox="0 -170 2048 2048"><path d="M1454 1669 l-188 -221 l-238 18 l-399 240 l317 -8 l141 -74 l74 66 l293 -21 Z"></path></symbol><symbol id="underscore" viewBox="0 -170 2048 2048"><path d="M1229 0 l0 -305 l-1432 0 l0 305 l1432 0 Z"></path></symbol><symbol id="grave" viewBox="0 -170 2048 2048"><path d="M1417 1957 l-499 -149 l-95 217 l527 25 l67 -93 Z"></path></symbol><symbol id="a" viewBox="0 -170 2048 2048"><path d="M987 689 q-32 155 -55 269 q-23 114 -37 191 q-21 -2 -45.5 -3 q-24.5 -1 -52.5 -1 q-29 0 -54.5 1 q-25.5 1 -46.5 3 q99 -155 169.5 -270 q70.5 -115 121.5 -190 ZM985 209 q-149 225 -280 428.5 q-131 203.5 -246.5 387.5 q-115.5 184 -216 349.5 q-100.5 165.5 -187.5 315.5 l357 -22 l123 -228 q34 -4 70 -6 q36 -2 71 -2 q82 0 153 12 l-38 197 l352 -23 q108 -789 282 -1411 l-440 2 Z"></path></symbol><symbol id="b" viewBox="0 -170 2048 2048"><path d="M1130 1193 q0 91 -133 158 q-105 55 -213 64 q-5 1 -12 1.5 q-7 0.5 -16 0.5 l-27 0 l-29 0 l-18 0 q-5 0 -10 -0.5 q-5 -0.5 -10 -1.5 l141 -318 q54 -4 84.5 -7 q30.5 -3 34.5 -3 q208 0 208 106 ZM1346 614 q0 15 -7 28 q-63 175 -417 199 l122 -242 l-83 -51 q166 -12 190 -12 q195 0 195 78 ZM1753 440 q0 -207 -414 -207 q-37 0 -143 7.5 q-106 7.5 -283 23.5 q-57 4 -106 11 q-49 7 -92 17 l-76 303 q29 -8 54.5 -13 q25.5 -5 47.5 -9 q-159 352 -254.5 560 q-95.5 208 -130.5 280 l-63 -9 l-166 285 q78 10 163.5 16.5 q85.5 6.5 184.5 6.5 q66 0 125 -2.5 q59 -2.5 113 -6.5 q227 -18 428 -125 q224 -124 303 -313 q31 -75 31 -145 q0 -118 -101 -195 q274 -164 350 -360 q29 -78 29 -125 Z"></path></symbol><symbol id="c" viewBox="0 -170 2048 2048"><path d="M1712 541 q-44 -291 -360 -291 q-241 0 -486 182 q-226 169 -374 430 q-152 269 -152 506 q0 342 317 342 q219 0 437 -143 q190 -124 331 -326 l-282 -69 q-67 95 -150 151 q-100 70 -196 70 q-119 0 -119 -133 q0 -198 158 -424 q173 -242 360 -242 q170 0 176 172 l340 -225 Z"></path></symbol><symbol id="d" viewBox="0 -170 2048 2048"><path d="M1260 767 q0 198 -226 394 q-161 140 -352 180 q91 -248 176 -437 q85 -189 164 -325 l-61 -61 q125 12 202 69 q97 67 97 180 ZM1608 653 q0 -226 -213 -342 q-167 -94 -418 -94 q-69 0 -137 8 q-68 8 -138 24 l-75 303 q53 -17 94 -24 q-148 293 -271.5 577.5 q-123.5 284.5 -230.5 577.5 q94 -6 164.5 -10.5 q70.5 -4.5 118.5 -8.5 q317 -25 628 -256 q312 -231 429 -530 q49 -123 49 -225 Z"></path></symbol><symbol id="e" viewBox="0 -170 2048 2048"><path d="M1724 217 q-235 23 -485 38.5 q-250 15.5 -526 21.5 l-119 303 l121 -2 q-129 283 -245 566.5 q-116 283.5 -226 584.5 q230 -27 445 -41 q215 -14 427 -18 l133 -324 q-132 2 -261 10 q-129 8 -259 23 q20 -66 44.5 -126.5 q24.5 -60.5 55.5 -117.5 q108 -16 207.5 -23.5 q99.5 -7.5 198.5 -5.5 l51 0 l133 -323 q-112 2 -224.5 8 q-112.5 6 -229.5 20 q26 -72 49.5 -132.5 q23.5 -60.5 46.5 -108.5 q118 -13 246.5 -20.5 q128.5 -7.5 269.5 -10.5 l147 -322 Z"></path></symbol><symbol id="f" viewBox="0 -170 2048 2048"><path d="M1724 219 q-215 23 -464.5 37.5 q-249.5 14.5 -546.5 22.5 l-127 307 l123 6 q-125 271 -239 551.5 q-114 280.5 -224 585.5 l352 -25 q48 -136 105.5 -277 q57.5 -141 127.5 -290 q108 -16 206.5 -23.5 q98.5 -7.5 197.5 -5.5 l51 0 l133 -323 q-112 2 -224.5 8 q-112.5 6 -229.5 20 q26 -78 49.5 -138 q23.5 -60 46.5 -103 q112 -13 240.5 -20.5 q128.5 -7.5 275.5 -10.5 l147 -322 Z"></path></symbol><symbol id="g" viewBox="0 -170 2048 2048"><path d="M1712 537 q-44 -293 -360 -293 q-251 0 -498 192 q-116 91 -211.5 204 q-95.5 113 -171.5 251 q-149 272 -149 524 q0 295 268 295 q182 0 371 -114 l-39 94 l321 -23 l316 -766 l-340 70 q-52 127 -105 217 q-122 197 -313 197 q-127 0 -127 -131 q0 -89 61 -236 q68 -165 180 -283 q138 -147 285 -147 q162 0 172 172 l340 -223 Z"></path></symbol><symbol id="h" viewBox="0 -170 2048 2048"><path d="M1483 238 q-123 264 -192.5 416.5 q-69.5 152.5 -92.5 205.5 l-309 -12 l254 -565 l-344 2 q-392 818 -615 1437 l344 0 q52 -148 106 -281 q54 -133 111 -257 l320 16 l-176 475 l344 0 q117 -346 265.5 -701 q148.5 -355 328.5 -736 l-344 0 Z"></path></symbol><symbol id="i" viewBox="0 -170 2048 2048"><path d="M795 217 q-172 353 -321.5 715.5 q-149.5 362.5 -280.5 742.5 l352 -25 q58 -170 123.5 -343 q65.5 -173 139 -351 q73.5 -178 156 -362.5 q82.5 -184.5 175.5 -378.5 l-344 2 Z"></path></symbol><symbol id="j" viewBox="0 -170 2048 2048"><path d="M1518 235 q-66 -6 -119 -6 q-33 0 -94 6 q-61 6 -152 19 q-141 321 -243.5 557.5 q-102.5 236.5 -168.5 396.5 q-69 162 -190 162 q-55 0 -90 -35 l-299 250 q74 119 235 119 q154 0 336 -99 q259 -142 375 -405 q69 -167 118.5 -289 q49.5 -122 82.5 -209 q45 -108 96.5 -224 q51.5 -116 112.5 -243 Z"></path></symbol><symbol id="k" viewBox="0 -170 2048 2048"><path d="M1473 215 q-201 225 -545 551 q76 -192 128 -315 q52 -123 83 -189 l-344 0 q-171 345 -320.5 708 q-149.5 363 -281.5 752 l352 -25 q130 -322 198 -483 q104 133 109 469 l389 -121 q-6 -294 -151 -608 q88 -78 153 -138 q65 -60 107 -102 q129 -129 233.5 -234.5 q104.5 -105.5 190.5 -193.5 l-301 -71 Z"></path></symbol><symbol id="l" viewBox="0 -170 2048 2048"><path d="M795 218.72 q-343 699 -602 1456 l47 0 q162 2 328 -10.5 q166 -12.5 345 -36.5 l164 -342 q-111 16 -204 25.5 q-93 9.5 -175 7.5 l-32 0 q92 -240 208.5 -514.5 q116.5 -274.5 264.5 -587.5 l-344 2 Z"></path></symbol><symbol id="m" viewBox="0 -170 2048 2048"><path d="M1849 217 l-682 776 l-112 -729 l-389 203 l30 113 q-129 294 -245.5 583 q-116.5 289 -227.5 586 l355 -25 q34 -105 92 -248.5 q58 -143.5 139 -334.5 l121 506 l479 -502 q-70 152 -126 286 q-56 134 -101 252 l352 -22 q78 -193 187.5 -448 q109.5 -255 250.5 -582 q21 -48 35 -79.5 q14 -31.5 23 -45.5 q46 -84 145 -195 l-326 -94 Z"></path></symbol><symbol id="n" viewBox="0 -170 2048 2048"><path d="M1511 221 q-170 304 -315 703 l-141 -707 l-389 203 l30 113 q-130 295 -247.5 585 q-117.5 290 -225.5 582 l355 -25 q66 -179 123 -323 q57 -144 108 -262 l152 561 l331 -43 q52 -163 109 -322.5 q57 -159.5 120 -317.5 q63 -158 131.5 -315.5 q68.5 -157.5 145.5 -316.5 l-287 -115 Z"></path></symbol><symbol id="o" viewBox="0 -170 2048 2048"><path d="M1243 784 q21 44 21 101 q0 154 -154 327 q-156 181 -309 181 q-121 0 -121 -144 q0 -189 151 -407 q162 -230 340 -246 l23 0 q139 0 170 109 l-121 79 ZM1712 541 q-44 -291 -360 -291 q-235 0 -486 182 q-115 85 -208 191 q-93 106 -166 237 q-152 269 -152 504 q0 346 324 346 q269 0 540 -229 q243 -204 359 -477 q59 -151 59 -250 q0 -62 -23 -137 l113 -76 Z"></path></symbol><symbol id="p" viewBox="0 -170 2048 2048"><path d="M1307 631 q0 23 -15 57 q-40 108 -188 191 q-120 68 -262 88 l188 -404 l-57 -34 q9 0 23 -0.5 q14 -0.5 33 -1.5 q19 -1 33.5 -1.5 q14.5 -0.5 24.5 -0.5 q220 0 220 106 ZM1706 484 q0 -269 -561 -269 q-124 0 -234 10.5 q-110 10.5 -209 32.5 l-75 303 q22 -6 47.5 -11 q25.5 -5 54.5 -9 q-166 358 -297 644 q-131 286 -235 509 l325 -23 l185 -407 q144 -17 276 -62 q132 -45 258 -120 q256 -154 399 -396 q66 -108 66 -202 Z"></path></symbol><symbol id="q" viewBox="0 -170 2048 2048"><path d="M1274 686 q10 33 10 62 q0 136 -147 332 q2 -29 7 -70 q5 -41 15 -92 l-307 199 q-2 40 -3 84 q-1 44 -1 92 q-29 6 -49 6 q-121 0 -121 -148 q0 -185 158 -411 q168 -242 348 -242 q128 0 166 137 l-76 51 ZM1700 490 q-53 -338 -365 -338 q-234 0 -475 184 q-222 167 -371 430 q-149 268 -149 500 q0 348 319 348 q116 0 226 -39 q25 79 98 135 l369 -235 q-110 -27 -154 -86 q265 -225 393 -545 q51 -121 51 -223 q0 -37 -10 -86 l68 -45 Z"></path></symbol><symbol id="r" viewBox="0 -170 2048 2048"><path d="M1305 621 q0 29 -13 59 q-39 107 -188 191 q-120 68 -262 88 l188 -404 l-55 -34 l22 0 l17 0 q10 0 20 -2 q10 -2 17 -2 l16 0 l27 0 q211 0 211 104 ZM1708 469 q0 -260 -571 -260 q-239 0 -435 41 l-75 303 q20 -4 44.5 -8.5 q24.5 -4.5 53.5 -9.5 q-193 387 -328 672.5 q-135 285.5 -221 478.5 l346 -23 q31 -75 74.5 -173 q43.5 -98 103.5 -222 q114 72 158 184 q16 43 24.5 102.5 q8.5 59.5 10.5 137.5 l377 -102 q-45 -298 -217 -422 q397 -160 587 -490 q68 -116 68 -209 Z"></path></symbol><symbol id="s" viewBox="0 -170 2048 2048"><path d="M1559 227 q-43 -4 -89 -7 q-46 -3 -94 -3 q-198 0 -319 51 q-158 66 -275 195 q-137 149 -137 299 q0 57 19 143 q19 102 24 141 q2 23 3 47.5 q1 24.5 1 51.5 q0 62 -22 91 q-21 30 -80 50 q-49 17 -118 31 q-69 14 -159 24 l-106 367 q118 -8 226 -30.5 q108 -22.5 208 -57.5 q247 -90 363 -242 q35 -44 67 -127 q35 -96 35 -182 q0 -18 -6 -79 q-6 -61 -21 -167 q-8 -66 -12 -101.5 q-4 -35.5 -4 -43.5 q0 -80 137 -101 q8 -2 197 -8 l162 -342 Z"></path></symbol><symbol id="t" viewBox="0 -170 2048 2048"><path d="M1708 231 l-981 17 l-149 323 l307 -2 q-123 273 -234.5 548.5 q-111.5 275.5 -216.5 568.5 l352 -25 q105 -272 215.5 -544.5 q110.5 -272.5 239.5 -557.5 l318 -4 l149 -324 Z"></path></symbol><symbol id="u" viewBox="0 -170 2048 2048"><path d="M1874 250 l-328 5 l-340 784 q-57 135 -143 221 q-109 109 -232 109 q-100 0 -100 -125 q0 -124 146 -488 q54 -126 107.5 -247.5 q53.5 -121.5 107.5 -247.5 l-328 4 q-74 164 -111 243 q-264 582 -264 863 q0 317 307 317 q259 0 516 -213 q234 -192 344 -455 l318 -770 Z"></path></symbol><symbol id="v" viewBox="0 -170 2048 2048"><path d="M1364 250 q-156 209 -300 424 q-144 215 -278 442 q23 -156 75 -369 q52 -213 130 -491 l-334 6 q-42 148 -88 338 q-46 190 -100 428 q-47 211 -80 371.5 q-33 160.5 -51 283.5 q124 -18 248 -18 q45 0 89 3 q44 3 89 7 q92 -162 219 -360.5 q127 -198.5 289 -440.5 q135 -198 245.5 -353 q110.5 -155 208.5 -277 l-362 6 Z"></path></symbol><symbol id="w" viewBox="0 -170 2048 2048"><path d="M1839 248 q-87 153 -149.5 268 q-62.5 115 -102.5 193 q-90 167 -140 261.5 q-50 94.5 -63 119.5 q26 -186 64.5 -368 q38.5 -182 89.5 -363 l-342 -27 q-16 54 -27.5 106 q-11.5 52 -19.5 103 q-45 63 -91 136.5 q-46 73.5 -97 158.5 q-29 48 -72 123.5 q-43 75.5 -103 181.5 q23 -156 75 -369 q52 -213 130 -491 l-332 8 q-45 166 -92 355.5 q-47 189.5 -98 410.5 q-47 209 -79 370.5 q-32 161.5 -52 284.5 q60 -8 116 -12 q56 -4 113 -4 q45 0 88 3 q43 3 88 7 q94 -154 159.5 -264.5 q65.5 -110.5 113.5 -183.5 q-21 142 -35 246 q-14 104 -25 173 q102 -22 196.5 -34.5 q94.5 -12.5 188.5 -12.5 l52 0 q211 -385 404.5 -727 q193.5 -342 379.5 -657 l-338 4 Z"></path></symbol><symbol id="x" viewBox="0 -170 2048 2048"><path d="M1489 217 q-130 106 -237.5 204 q-107.5 98 -207.5 191 q-10 -144 -15 -232 q-5 -88 -5 -122 l0 -17 l-410 131 q4 108 16.5 261.5 q12.5 153.5 35.5 359.5 q-107 107 -245.5 256 q-138.5 149 -311.5 344 l204 127 q112 -138 208 -246.5 q96 -108.5 190 -195.5 q20 130 37.5 230.5 q17.5 100.5 33.5 176.5 l404 -115 q-51 -181 -84 -339.5 q-33 -158.5 -47 -301.5 q180 -174 333.5 -310 q153.5 -136 288.5 -247 l-188 -155 Z"></path></symbol><symbol id="y" viewBox="0 -170 2048 2048"><path d="M1335 227 q-92 82 -195.5 208 q-103.5 126 -226.5 300 q-2 -16 -3 -38.5 q-1 -22.5 -1 -49.5 q0 -42 4.5 -93.5 q4.5 -51.5 14.5 -115.5 q14 -99 20 -150.5 q6 -51.5 8 -56.5 l-364 58 q-22 144 -32.5 305 q-10.5 161 -10.5 342 q0 57 3 109 q3 52 11 100 q-51 109 -105 244.5 q-54 135.5 -114 300.5 l342 0 q35 -96 67.5 -181 q32.5 -85 65.5 -163 q71 -166 209 -340 q165 -206 321.5 -389.5 q156.5 -183.5 313.5 -350.5 l-328 -39 Z"></path></symbol><symbol id="z" viewBox="0 -170 2048 2048"><path d="M1794 231 q-228 23 -468 37 q-240 14 -497 19 l-198 313 q284 -2 491 -12 q-55 61 -104.5 118 q-49.5 57 -97.5 111 q-94 8 -177 15.5 q-83 7.5 -170 17.5 l-133 326 q42 -7 89.5 -13 q47.5 -6 101.5 -10 q-138 163 -254.5 306.5 q-116.5 143.5 -216.5 273.5 q264 0 496.5 -14.5 q232.5 -14.5 447.5 -43.5 l221 -327 q-142 22 -282.5 38.5 q-140.5 16.5 -288.5 26.5 q45 -55 102.5 -127 q57.5 -72 132.5 -160 q135 -6 244 -6 l29 0 l135 -323 q-14 1 -27 1.5 q-13 0.5 -24 0.5 l-39 0 l-35 0 q132 -151 261 -291 q129 -140 261 -277 Z"></path></symbol><symbol id="braceleft" viewBox="0 -170 2048 2048"><path d="M1864 -223 q-230 10 -350.5 14.5 q-120.5 4.5 -131.5 6.5 q-140 17 -288 129 q-153 115 -226 286 q-51 126 -89 218 q-38 92 -64 155 l-191 12 l-186 484 l172 -10 q-35 87 -68.5 165.5 q-33.5 78.5 -68.5 165.5 q-99 251 -99 318 q0 60 43 116 q58 76 181 76 l41 0 l444 -16 l170 -432 l-375 22 q142 -370 269 -685.5 q127 -315.5 245 -594.5 l350 -12 l222 -418 Z"></path></symbol><symbol id="bar" viewBox="0 -170 2048 2048"><path d="M885 -268 q-117 240 -240 514 q-123 274 -254 600 q-117 283 -213 540 q-96 257 -178 498 l428 -28 q72 -211 163 -448.5 q91 -237.5 208 -518.5 q129 -315 254 -601 q125 -286 254 -558 l-422 2 Z"></path></symbol><symbol id="braceright" viewBox="0 -170 2048 2048"><path d="M1554 -69 q0 -60 -43 -115 q-59 -78 -176 -78 l-8 0 l-14 0 q-4 0 -9 0.5 q-5 0.5 -12 1.5 l-446 19 l-170 432 l375 -21 q-69 180 -135 348.5 q-66 168.5 -130 327 q-64 158.5 -126 308.5 q-62 150 -123 294 l-394 12 l-174 416 q5 0 238 -6 q143 -2 239 -12 q162 -15 310 -142 q134 -114 205 -272 q63 -155 110 -267 q47 -112 78 -188 l188 -12 l189 -483 l-174 10 q202 -491 202 -573 Z"></path></symbol><symbol id="asciitilde" viewBox="0 -170 2048 2048"><path d="M1686 1274 q-213 141 -359 141 q-53 0 -117 -43 q-63 -45 -120 -45 q-179 0 -375 135 l-121 285 q229 -156 391 -156 q59 0 117 46 q61 43 123 43 q158 0 340 -121 l121 -285 Z"></path></symbol><symbol id="Adieresis" viewBox="0 -170 2048 2048"><path d="M1079 863 q-45 205 -76.5 358 q-31.5 153 -48.5 258 q-56 -6 -112 -6 q-33 0 -69.5 2 q-36.5 2 -78.5 6 q129 -208 224.5 -361.5 q95.5 -153.5 160.5 -256.5 ZM1067 293 q-373 570 -660.5 1030.5 q-287.5 460.5 -496.5 823.5 l414 12 l172 -324 q45 -4 89 -7 q44 -3 89 -3 q108 0 200 16 l-65 320 l446 -107 q70 -501 157 -939.5 q87 -438.5 196 -825.5 l-541 4 ZM1378 -32 q0 -103 -112 -103 q-95 0 -183 82 q-90 80 -90 170 q0 102 113 102 q93 0 182 -79 q90 -84 90 -172 ZM1868 -55 q0 -113 -123 -113 q-105 0 -199 88 q-96 92 -96 187 q0 110 123 110 q99 0 196 -86 q99 -88 99 -186 Z"></path></symbol><symbol id="Aring" viewBox="0 -170 2048 2048"><path d="M1079 962 q-45 209 -76.5 362 q-31.5 153 -48.5 257 q-56 -6 -127 -6 q-72 0 -133 6 q129 -208 224.5 -362 q95.5 -154 160.5 -257 ZM1538 47 q0 21 -11.5 42 q-11.5 21 -29.5 37.5 q-18 16.5 -40 27 q-22 10.5 -44 10.5 q-41 0 -41 -37 q0 -21 11.5 -42 q11.5 -21 30 -37.5 q18.5 -16.5 40.5 -27 q22 -10.5 43 -10.5 q41 0 41 37 ZM1069 393 q-191 291 -357.5 550.5 q-166.5 259.5 -310.5 490 q-144 230.5 -266.5 434 q-122.5 203.5 -224.5 381.5 l414 12 l172 -326 q48 -4 88.5 -7 q40.5 -3 79.5 -3 q106 0 210 18 l-65 320 l446 -107 q70 -501 157 -940.5 q87 -439.5 196 -824.5 l-539 2 ZM1726 -23 q0 -145 -161 -145 q-131 0 -258 115 q-127 114 -127 241 q0 146 161 146 q133 0 258 -113 q127 -115 127 -244 Z"></path></symbol><symbol id="Eacute" viewBox="0 -170 2048 2048"><path d="M1968 240 q-288 29 -599.5 47.5 q-311.5 18.5 -655.5 26.5 l-142 370 l150 -4 q-160 353 -305.5 711 q-145.5 358 -286.5 739 q280 -32 548 -50.5 q268 -18.5 531 -22.5 l162 -396 q-169 4 -327.5 14.5 q-158.5 10.5 -319.5 26.5 q22 -78 55.5 -157.5 q33.5 -79.5 75.5 -157.5 q135 -20 261 -29.5 q126 -9.5 247 -7.5 l61 0 l164 -399 q-141 2 -282 11 q-141 9 -287 26 q58 -177 125 -314 q161 -16 319.5 -26.5 q158.5 -10.5 325.5 -14.5 l180 -393 ZM2017 -141 l-663 250 l-17 106 l576 -102 l104 -254 Z"></path></symbol><symbol id="Ntilde" viewBox="0 -170 2048 2048"><path d="M1706 387 q-225 403 -403 899 l-177 -903 l-477 250 l39 139 q-162 369 -309.5 733.5 q-147.5 364.5 -282.5 732.5 l430 -28 q76 -206 150.5 -390.5 q74.5 -184.5 146.5 -359.5 l191 717 l405 -55 q125 -396 284 -791 q159 -395 351 -803 l-348 -141 ZM2118 -143 q-212 151 -365 151 q-46 0 -113 -47 q-65 -47 -122 -47 q-176 0 -375 145 l-127 310 q245 -170 395 -170 q58 0 117 49 q59 47 121 47 q159 0 342 -129 l127 -309 Z"></path></symbol><symbol id="Odieresis" viewBox="0 -170 2048 2048"><path d="M1380 1006 q25 59 25 121 q0 197 -193 420 q-198 229 -393 229 q-155 0 -155 -182 q0 -238 190 -518 q206 -298 430 -314 l29 0 q179 0 217 144 l-150 100 ZM1954 699 q-53 -363 -447 -363 q-364 0 -710 316 q-306 282 -457 649 q-92 226 -92 436 q0 201 96 316 q101 116 301 116 q332 0 674 -288 q308 -265 448 -600 q74 -183 74 -314 q0 -82 -29 -174 l142 -94 ZM1493 31 q0 -102 -113 -102 q-92 0 -184 80 q-90 80 -90 170 q0 104 115 104 q91 0 182 -80 q90 -84 90 -172 ZM1982 9 q0 -113 -124 -113 q-105 0 -199 88 q-96 90 -96 187 q0 112 123 112 q104 0 198 -88 q98 -89 98 -186 Z"></path></symbol><symbol id="Udieresis" viewBox="0 -170 2048 2048"><path d="M2144 369 l-420 6 l-401 985 q-66 161 -180 279 q-140 141 -289 141 q-141 0 -141 -168 q0 -142 106 -415 q114 -278 199 -478.5 q85 -200.5 145 -337.5 l-397 7 q-48 105 -82.5 179.5 q-34.5 74.5 -56.5 125.5 q-332 732 -332 1085 q0 393 381 393 q327 0 643 -266 q289 -244 428 -569 l397 -967 ZM1518 33 q0 -102 -113 -102 q-93 0 -182 80 q-90 80 -90 172 q0 104 114 104 q92 0 180 -82 q91 -84 91 -172 ZM2007 11 q0 -113 -123 -113 q-104 0 -198 88 q-97 85 -97 185 q0 114 123 114 q103 0 197 -88 q98 -89 98 -186 Z"></path></symbol><symbol id="aacute" viewBox="0 -170 2048 2048"><path d="M987 1113 q-33 156 -55.5 271 q-22.5 115 -36.5 193 q-21 -2 -44.5 -3 q-23.5 -1 -51.5 -1 q-29 0 -54.5 1 q-25.5 1 -46.5 3 q100 -156 170 -271 q70 -115 119 -193 ZM987 631 q-152 230 -283.5 435 q-131.5 205 -246.5 390 q-115 185 -214.5 350 q-99.5 165 -187.5 314 l357 -22 l123 -230 q34 -4 68 -6 q34 -2 63 -2 q43 0 84 3 q41 3 79 11 l-38 197 l352 -23 q109 -804 282 -1419 l-438 2 ZM1851 207 l-663 250 l-17 107 l578 -103 l102 -254 Z"></path></symbol><symbol id="agrave" viewBox="0 -170 2048 2048"><path d="M987 1041 q-33 154 -55.5 269 q-22.5 115 -36.5 193 q-21 -2 -44.5 -3 q-23.5 -1 -51.5 -1 q-29 0 -54.5 1 q-25.5 1 -46.5 3 q100 -156 170 -270 q70 -114 119 -192 ZM987 557 q-150 227 -281.5 431.5 q-131.5 204.5 -247 389.5 q-115.5 185 -216 351.5 q-100.5 166.5 -187.5 316.5 l357 -22 l123 -230 q34 -4 68 -6 q34 -2 63 -2 q84 0 163 14 l-38 197 l352 -23 q108 -801 282 -1417 l-438 0 ZM1354 377 l-494 -170 l-102 248 l526 29 l70 -107 Z"></path></symbol><symbol id="acircumflex" viewBox="0 -170 2048 2048"><path d="M987 1070 q-33 156 -55.5 271 q-22.5 115 -36.5 193 q-21 -2 -44.5 -3 q-23.5 -1 -51.5 -1 q-29 0 -54.5 1 q-25.5 1 -46.5 3 q100 -156 170 -271 q70 -115 119 -193 ZM987 588 q-299 453 -529.5 823.5 q-230.5 370.5 -402.5 665.5 l357 -22 l123 -230 q34 -4 68 -6 q34 -2 63 -2 q43 0 84 3 q41 3 79 11 l-38 197 l352 -23 q109 -804 282 -1419 l-438 2 ZM1649 459 l-181 -252 l-239 21 l-406 272 l316 -8 l145 -84 l72 76 l293 -25 Z"></path></symbol><symbol id="adieresis" viewBox="0 -170 2048 2048"><path d="M987 1145 q-33 156 -55.5 271 q-22.5 115 -36.5 193 q-59 -6 -96 -6 q-43 0 -101 6 q100 -156 170 -271 q70 -115 119 -193 ZM987 663 q-297 453 -530.5 825.5 q-233.5 372.5 -401.5 663.5 l357 -22 l123 -230 q34 -4 68 -6 q34 -2 63 -2 q43 0 84 3 q41 3 79 11 l-38 197 l352 -23 q53 -399 124.5 -749 q71.5 -350 159.5 -670 l-440 2 ZM1251 344 q0 -105 -116 -105 q-95 0 -183 82 q-88 79 -88 170 q0 103 115 103 q91 0 182 -80 q90 -79 90 -170 ZM1741 319 q0 -112 -125 -112 q-105 0 -199 88 q-96 90 -96 186 q0 111 123 111 q100 0 198 -86 q99 -88 99 -187 Z"></path></symbol><symbol id="atilde" viewBox="0 -170 2048 2048"><path d="M987 1215 q-33 156 -55.5 271 q-22.5 115 -36.5 193 q-59 -6 -96 -6 q-43 0 -101 6 q100 -156 170 -271 q70 -115 119 -193 ZM987 731 q-297 453 -527.5 821.5 q-230.5 368.5 -404.5 669.5 l357 -22 l123 -230 q34 -4 68 -6 q34 -2 63 -2 q43 0 84 3 q41 3 79 11 l-38 197 l352 -25 q53 -399 124.5 -749 q71.5 -350 159.5 -670 l-440 2 ZM1858 207 q-220 154 -363 154 q-48 0 -115 -47 q-65 -48 -123 -48 q-180 0 -372 144 l-127 309 q244 -170 393 -170 q58 0 117 49 q65 47 123 47 q157 0 340 -129 l127 -309 Z"></path></symbol><symbol id="aring" viewBox="0 -170 2048 2048"><path d="M989 1245 q-33 157 -56.5 272 q-23.5 115 -37.5 193 q-59 -6 -96 -6 q-43 0 -101 6 q99 -155 169.5 -271 q70.5 -116 121.5 -194 ZM1409 422 q0 22 -12 43 q-12 21 -31 37.5 q-19 16.5 -41 26.5 q-22 10 -43 10 q-41 0 -41 -35 q0 -21 11.5 -42 q11.5 -21 29.5 -38 q18 -17 40.5 -28 q22.5 -11 45.5 -11 q41 0 41 37 ZM987 764 q-297 453 -528.5 823.5 q-231.5 370.5 -403.5 667.5 l357 -22 l123 -230 q34 -4 70 -6 q36 -2 71 -2 q82 0 153 12 l-38 199 l352 -25 q53 -399 124.5 -749 q71.5 -350 159.5 -670 l-440 2 ZM1595 353 q0 -146 -161 -146 q-131 0 -258 115 q-127 115 -127 242 q0 145 161 145 q133 0 258 -113 q127 -114 127 -243 Z"></path></symbol><symbol id="eacute" viewBox="0 -170 2048 2048"><path d="M1726 602 q-235 23 -484 38.5 q-249 15.5 -527 21.5 l-119 305 l121 -4 q-128 276 -245.5 564 q-117.5 288 -227.5 595 q230 -27 445 -41 q215 -14 427 -18 l133 -326 q-136 2 -263 10 q-127 8 -257 23 q33 -117 102 -246 q102 -14 199 -21.5 q97 -7.5 197 -5.5 l61 0 l133 -327 q-117 2 -228 8 q-111 6 -228 20 q22 -63 46.5 -122 q24.5 -59 51.5 -119 q119 -13 246.5 -20.5 q127.5 -7.5 267.5 -10.5 l149 -324 ZM1898 217 l-665 250 l-16 107 l577 -103 l104 -254 Z"></path></symbol><symbol id="egrave" viewBox="0 -170 2048 2048"><path d="M1726 532 q-223 23 -472.5 37.5 q-249.5 14.5 -540.5 20.5 l-117 305 l119 -2 q-123 274 -241 559 q-118 285 -230 598 q230 -27 445 -41 q215 -14 427 -18 l133 -326 q-136 2 -263 10 q-127 8 -257 23 q16 -60 42 -120.5 q26 -60.5 60 -123.5 q108 -16 206.5 -23.5 q98.5 -7.5 197.5 -5.5 l53 0 l133 -325 q-126 2 -238.5 8 q-112.5 6 -217.5 18 q22 -62 46 -121.5 q24 -59.5 52 -117.5 q132 -15 258 -22 q126 -7 256 -11 l149 -322 ZM1399 389 l-494 -172 l-102 248 l526 28 l70 -104 Z"></path></symbol><symbol id="ecircumflex" viewBox="0 -170 2048 2048"><path d="M1726 559 q-235 23 -485 38.5 q-250 15.5 -526 21.5 l-119 305 l121 -2 q-131 287 -249 574.5 q-118 287.5 -224 582.5 q230 -27 445 -41 q215 -14 427 -18 l133 -326 q-136 2 -263 10 q-127 8 -257 23 q33 -117 102 -246 q102 -14 199 -21.5 q97 -7.5 197 -5.5 l61 0 l133 -325 q-126 2 -238.5 8 q-112.5 6 -217.5 18 q22 -63 46.5 -122 q24.5 -59 51.5 -119 q119 -13 246.5 -20.5 q127.5 -7.5 267.5 -10.5 l149 -324 ZM1694 467 l-181 -250 l-237 21 l-408 272 l318 -8 l143 -86 l72 76 l293 -25 Z"></path></symbol><symbol id="edieresis" viewBox="0 -170 2048 2048"><path d="M1726 634 q-235 23 -484 38.5 q-249 15.5 -527 21.5 l-119 303 l121 -2 q-129 280 -246 567 q-117 287 -227 592 q230 -27 445 -41 q215 -14 427 -18 l133 -326 q-136 2 -263 10 q-127 8 -257 23 q33 -117 102 -246 q108 -16 206.5 -23.5 q98.5 -7.5 197.5 -5.5 l53 0 l133 -325 q-117 2 -228 8 q-111 6 -228 20 q22 -63 46.5 -122 q24.5 -59 51.5 -119 q132 -15 258 -22 q126 -7 256 -11 l149 -322 ZM1296 352 q0 -103 -114 -103 q-94 0 -183 80 q-90 78 -90 168 q0 105 117 105 q90 0 180 -78 q90 -79 90 -172 ZM1786 329 q0 -112 -125 -112 q-99 0 -199 86 q-96 86 -96 186 q0 113 123 113 q97 0 197 -86 q100 -88 100 -187 Z"></path></symbol><symbol id="iacute" viewBox="0 -170 2048 2048"><path d="M797 619 q-174 352 -323.5 715.5 q-149.5 363.5 -280.5 752.5 l352 -25 q115 -335 263.5 -696 q148.5 -361 332.5 -747 l-344 0 ZM1401 215 l-666 248 l-16 108 l577 -104 l105 -252 Z"></path></symbol><symbol id="igrave" viewBox="0 -170 2048 2048"><path d="M797 578 q-172 352 -322.5 716.5 q-150.5 364.5 -281.5 749.5 l352 -25 q115 -335 263.5 -696 q148.5 -361 332.5 -747 l-344 2 ZM1317 387 l-494 -172 l-102 248 l526 29 l70 -105 Z"></path></symbol><symbol id="icircumflex" viewBox="0 -170 2048 2048"><path d="M797 590 q-174 352 -323.5 715.5 q-149.5 363.5 -280.5 752.5 l352 -25 q115 -335 263.5 -696 q148.5 -361 332.5 -747 l-344 0 ZM1403 465 l-180 -250 l-238 20 l-407 273 l317 -11 l143 -84 l72 76 l293 -24 Z"></path></symbol><symbol id="idieresis" viewBox="0 -170 2048 2048"><path d="M797 666 q-174 352 -323.5 715.5 q-149.5 363.5 -280.5 752.5 l352 -25 q115 -337 263 -695.5 q148 -358.5 333 -747.5 l-344 0 ZM1006 348 q0 -102 -115 -102 q-94 0 -182 82 q-88 79 -88 170 q0 102 114 102 q89 0 180 -80 q91 -84 91 -172 ZM1495 326 q0 -111 -123 -111 q-100 0 -198 86 q-97 85 -97 184 q0 113 123 113 q99 0 197 -86 q98 -89 98 -186 Z"></path></symbol><symbol id="ntilde" viewBox="0 -170 2048 2048"><path d="M1516 741 q-184 326 -320 707 l-139 -711 l-391 205 l32 112 q-131 301 -249.5 591 q-118.5 290 -225.5 585 l355 -25 q61 -167 119 -313 q58 -146 114 -276 l150 565 l331 -45 q105 -324 230 -639.5 q125 -315.5 278 -638.5 l-284 -117 ZM1980 217 q-219 153 -360 153 q-50 0 -117 -47 q-65 -47 -121 -47 q-181 0 -374 143 l-127 310 q244 -170 393 -170 q58 0 117 49 q65 47 122 47 q158 0 340 -129 l127 -309 Z"></path></symbol><symbol id="oacute" viewBox="0 -170 2048 2048"><path d="M1245 1196 q21 44 21 99 q0 156 -154 329 q-161 183 -311 183 q-119 0 -119 -142 q0 -185 152 -411 q164 -237 340 -250 l22 0 q141 0 170 110 l-121 82 ZM1712 951 q-44 -293 -358 -293 q-241 0 -486 182 q-228 174 -376 432 q-152 269 -152 506 q0 348 324 348 q265 0 540 -231 q250 -212 361 -480 q57 -135 57 -245 q0 -69 -23 -144 l113 -75 ZM1952 250 l-666 250 l-16 107 l577 -103 l105 -254 Z"></path></symbol><symbol id="ograve" viewBox="0 -170 2048 2048"><path d="M1245 1124 q21 44 21 99 q0 156 -154 329 q-161 183 -311 183 q-119 0 -119 -144 q0 -191 158 -417 q168 -240 356 -240 q136 0 168 108 l-119 82 ZM1712 881 q-43 -295 -360 -295 q-245 0 -486 184 q-227 168 -377 434 q-149 260 -149 502 q0 348 324 348 q265 0 540 -231 q248 -212 359 -480 q59 -150 59 -249 q0 -63 -23 -138 l113 -75 ZM1454 422 l-493 -172 l-103 250 l526 26 l70 -104 Z"></path></symbol><symbol id="ocircumflex" viewBox="0 -170 2048 2048"><path d="M1245 1153 q21 44 21 99 q0 156 -154 329 q-161 183 -311 183 q-119 0 -119 -144 q0 -191 158 -417 q168 -240 356 -240 q136 0 168 108 l-119 82 ZM1712 908 q-44 -293 -360 -293 q-241 0 -486 182 q-227 173 -374 432 q-152 269 -152 506 q0 348 324 348 q265 0 540 -231 q248 -212 359 -480 q59 -150 59 -249 q0 -65 -23 -140 l113 -75 ZM1751 500 l-182 -250 l-238 21 l-405 272 l315 -8 l143 -84 l72 74 l295 -25 Z"></path></symbol><symbol id="odieresis" viewBox="0 -170 2048 2048"><path d="M1245 1227 q21 44 21 99 q0 153 -154 331 q-161 183 -311 183 q-119 0 -119 -142 q0 -185 152 -411 q164 -237 340 -250 l22 0 q136 0 168 108 l-119 82 ZM1712 984 q-43 -295 -360 -295 q-241 0 -486 182 q-228 174 -377 436 q-149 260 -149 502 q0 350 324 350 q265 0 540 -231 q250 -212 361 -480 q57 -135 57 -247 q0 -67 -23 -142 l113 -75 ZM1350 386 q0 -103 -115 -103 q-94 0 -182 82 q-88 79 -88 170 q0 102 114 102 q90 0 181 -79 q90 -84 90 -172 ZM1839 361 q0 -111 -123 -111 q-100 0 -198 86 q-97 85 -97 185 q0 114 123 114 q103 0 197 -88 q98 -89 98 -186 Z"></path></symbol><symbol id="otilde" viewBox="0 -170 2048 2048"><path d="M1245 1296 q21 44 21 99 q0 156 -154 329 q-161 183 -311 183 q-119 0 -119 -142 q0 -193 158 -420 q168 -239 356 -239 q136 0 168 108 l-119 82 ZM1712 1053 q-43 -295 -360 -295 q-241 0 -486 182 q-227 173 -374 432 q-152 269 -152 506 q0 350 324 350 q265 0 540 -231 q249 -212 361 -482 q57 -135 57 -245 q0 -67 -23 -142 l113 -75 ZM1958 250 q-212 151 -365 151 q-46 0 -113 -47 q-65 -47 -122 -47 q-173 0 -375 146 l-125 307 q235 -168 393 -168 q59 0 117 49 q67 47 123 47 q153 0 340 -131 l127 -307 Z"></path></symbol><symbol id="uacute" viewBox="0 -170 2048 2048"><path d="M1876 682 l-328 2 l-342 791 q-29 67 -65 121.5 q-36 54.5 -78 99.5 q-110 111 -232 111 q-100 0 -100 -127 q0 -142 195 -598 q60 -137 100.5 -234.5 q40.5 -97.5 65.5 -157.5 l-326 7 q-37 82 -65 142.5 q-28 60.5 -48 100.5 q-264 582 -264 869 q0 319 307 319 q261 0 518 -215 q232 -193 342 -457 l320 -774 ZM1982 250 l-665 250 l-14 106 l575 -102 l104 -254 Z"></path></symbol><symbol id="ugrave" viewBox="0 -170 2048 2048"><path d="M1876 610 l-328 4 l-342 789 q-146 332 -375 332 q-100 0 -100 -127 q0 -140 195 -596 q57 -137 98 -233 q41 -96 68 -159 l-326 7 q-37 82 -65 142.5 q-28 60.5 -48 100.5 q-264 582 -264 867 q0 319 307 319 q259 0 516 -215 q234 -192 344 -455 l320 -776 ZM1485 422 l-494 -172 l-102 248 l526 28 l70 -104 Z"></path></symbol><symbol id="ucircumflex" viewBox="0 -170 2048 2048"><path d="M1876 639 l-328 4 l-342 789 q-146 332 -375 332 q-102 0 -102 -127 q0 -139 197 -598 q59 -142 101 -238 q42 -96 65 -154 l-326 7 q-37 82 -65 142.5 q-28 60.5 -48 100.5 q-264 582 -264 869 q0 319 307 319 q261 0 518 -215 q232 -193 342 -457 l320 -774 ZM1782 500 l-183 -250 l-237 21 l-406 272 l316 -8 l145 -84 l72 74 l293 -25 Z"></path></symbol><symbol id="udieresis" viewBox="0 -170 2048 2048"><path d="M1876 713 l-328 4 l-342 789 q-142 334 -375 334 q-100 0 -100 -127 q0 -142 195 -598 q168 -385 168 -392 l-328 7 q-37 82 -65 142.5 q-28 60.5 -48 100.5 q-264 582 -264 869 q0 319 307 319 q261 0 518 -215 q232 -193 342 -457 l320 -776 ZM1382 388 q0 -105 -116 -105 q-95 0 -183 82 q-88 79 -88 170 q0 102 115 102 q93 0 182 -79 q90 -79 90 -170 ZM1872 363 q0 -113 -125 -113 q-99 0 -199 86 q-96 86 -96 187 q0 112 123 112 q97 0 197 -86 q100 -88 100 -186 Z"></path></symbol><symbol id="degree" viewBox="0 -170 2048 2048"><path d="M1006 1420 q0 21 -12 40.5 q-12 19.5 -30 34.5 q-18 15 -40 24.5 q-22 9.5 -43 9.5 q-41 0 -41 -35 q0 -21 11 -40.5 q11 -19.5 29 -34.5 q18 -15 40.5 -24.5 q22.5 -9.5 44.5 -9.5 q41 0 41 35 ZM1192 1357 q0 -138 -164 -138 q-123 0 -250 103 q-131 107 -131 229 q0 137 164 137 q122 0 250 -102 q131 -107 131 -229 Z"></path></symbol><symbol id="cent" viewBox="0 -170 2048 2048"><path d="M1712 508 q-35 -235 -237 -281 l69 -168 l-348 23 l-72 172 q-302 106 -544 438 q-242 329 -242 649 q0 256 188 322 l-84 205 l373 -25 l86 -207 q304 -107 524 -426 l-284 -69 q-67 95 -150 151 q-100 70 -196 70 q-119 0 -119 -133 q0 -200 160 -424 q169 -244 362 -244 q164 0 174 172 l340 -225 Z"></path></symbol><symbol id="bullet" viewBox="0 -170 2048 2048"><path d="M1423 711 q0 -136 -88 -209 q-85 -68 -221 -68 q-254 0 -504 219 q-258 228 -258 477 q0 137 90 207 q83 68 222 68 q256 0 503 -217 q256 -226 256 -477 Z"></path></symbol><symbol id="paragraph" viewBox="0 -170 2048 2048"><path d="M1110 881 l-23 0 q-55 1 -100 -13.5 q-45 -14.5 -76.5 -43 q-31.5 -28.5 -49 -71.5 q-17.5 -43 -17.5 -99 q0 -231 520 -334 l-254 561 ZM2488 -14 q-214 -86 -434 -86 q-35 0 -69.5 1 q-34.5 1 -69.5 3 q-236 14 -421 43 q-185 29 -333 70 q-441 128 -614 401 q-26 42 -48.5 93 q-22.5 51 -39.5 114 q-25 90 -25 184 q0 213 133 330 q134 108 344 106 l25 0 l-236 510 l396 -28 l628 -1395 l-88 -51 q64 -8 117.5 -11.5 q53.5 -3.5 101.5 -5.5 l-628 1442 l340 12 l612 -1404 q23 10 46 21.5 q23 11.5 48 25.5 l215 -375 Z"></path></symbol><symbol id="registered" viewBox="0 -170 2048 2048"><path d="M1090 1325 q-114 49 -220 49 q-101 0 -168 -41 l164 -12 q14 -35 35.5 -82.5 q21.5 -47.5 50.5 -108.5 q81 61 82 209 l56 -14 ZM942 764 q-86 172 -150.5 307 q-64.5 135 -111.5 246 q-74 -65 -74 -176 q0 -138 103 -289 q91 -126 223 -215 l-35 135 l45 -8 ZM1239 796 q0 58 -76 103 q-57 37 -127 49 l90 -192 l-8 -5 q5 -1 11 -1.5 q6 -0.5 14 -0.5 l8 0 q88 0 88 47 ZM1495 655 q39 65 39 135 q0 123 -96 256 q-83 113 -201 195 q-26 -119 -92 -174 q106 -49 203 -142 q114 -109 114 -208 q0 -140 -288 -140 q-39 0 -78 3 q-39 3 -78 8 q142 -76 289 -76 q167 0 231 121 l-43 22 ZM1819 549 q-84 -281 -396 -281 q-306 0 -610 215 q-303 213 -418 502 q-53 138 -53 250 q0 185 119 286 q113 97 301 97 q292 0 581 -211 q290 -206 402 -475 q55 -129 55 -234 q0 -67 -20 -129 l39 -20 Z"></path></symbol><symbol id="copyright" viewBox="0 -170 2048 2048"><path d="M1450 731 q-22 -160 -193 -160 q-183 0 -350 191 q-166 187 -166 376 q0 181 177 181 q107 0 223 -78 q100 -70 170 -170 l-160 -41 q-78 111 -166 111 q-55 0 -55 -58 q0 -89 80 -205 q84 -114 170 -114 q75 0 80 92 l190 -125 ZM1495 655 q39 65 39 135 q0 71 -33 144 q-68 171 -260 305 q-191 135 -371 135 q-118 0 -188 -57 q-76 -61 -76 -176 q0 -235 236 -435 q232 -194 465 -194 q167 0 231 121 l-43 22 ZM1819 549 q-84 -281 -396 -281 q-306 0 -610 215 q-303 213 -418 502 q-53 138 -53 250 q0 185 119 286 q113 97 301 97 q292 0 581 -211 q290 -206 402 -475 q55 -129 55 -234 q0 -67 -20 -129 l39 -20 Z"></path></symbol><symbol id="trademark" viewBox="0 -170 2048 2048"><path d="M1735 946 l-330 368 l-55 -348 l-82 41 l14 -28 l-510 8 l-82 178 l154 -2 q-63 136 -117.5 270 q-54.5 134 -105.5 277 l196 -15 q51 -136 107 -268 q56 -132 116 -268 l101 -2 q-59 133 -115.5 271.5 q-56.5 138.5 -112.5 287.5 l199 -15 q21 -60 46.5 -125 q25.5 -65 58.5 -137 l57 234 l213 -217 q-27 55 -49.5 111 q-22.5 56 -44.5 116 l196 -12 q72 -175 127.5 -298 q55.5 -123 93.5 -210 q26 -61 27 -62 q27 -34 46.5 -60 q19.5 -26 33.5 -42 l-182 -53 Z"></path></symbol><symbol id="acute" viewBox="0 -170 2048 2048"><path d="M1495 1772 l-659 225 l-15 96 l576 -92 l98 -229 Z"></path></symbol><symbol id="dieresis" viewBox="0 -170 2048 2048"><path d="M1243 1923 q0 -97 -117 -97 q-86 0 -176 72 q-88 70 -88 156 q0 96 117 96 q87 0 176 -69 q88 -70 88 -158 ZM1735 1900 q0 -102 -127 -102 q-97 0 -193 78 q-96 77 -96 169 q0 103 125 103 q90 0 192 -78 q99 -76 99 -170 Z"></path></symbol><symbol id="AE" viewBox="0 -170 2048 2048"><path d="M1311 434 q-64 149 -133.5 311 q-69.5 162 -145.5 349 q-53 -6 -123 -6 q-71 0 -135 6 q179 -224 311.5 -388 q132.5 -164 225.5 -272 ZM2689 -166 q-233 17 -403 29 q-170 12 -287 18 q-133 8 -306.5 12.5 q-173.5 4.5 -392.5 6.5 q-450 577 -798 1043 q-348 466 -596 821 l411 12 l215 -326 q48 -4 90 -7 q42 -3 80 -3 q105 0 203 18 l-98 295 q264 -28 407.5 -44.5 q143.5 -16.5 174.5 -18.5 q154 -10 283 -17.5 q129 -7.5 237 -9.5 l164 -395 q-159 3 -320.5 13.5 q-161.5 10.5 -329.5 29.5 q17 -51 30 -89 q13 -38 24 -63 q18 -54 31.5 -93.5 q13.5 -39.5 23.5 -65.5 q150 -23 282.5 -33 q132.5 -10 256.5 -8 l55 0 l164 -398 q-155 2 -295.5 10.5 q-140.5 8.5 -276.5 24.5 q30 -90 61.5 -167.5 q31.5 -77.5 63.5 -145.5 q149 -16 307.5 -25.5 q158.5 -9.5 337.5 -13.5 l201 -410 Z"></path></symbol><symbol id="Oslash" viewBox="0 -170 2048 2048"><path d="M1405 715 q-12 196 -197 408 q-190 223 -381 223 q-114 0 -147 -82 l725 -549 ZM713 926 q78 -218 225 -385 q180 -204 377 -204 q66 0 123 22 l-725 567 ZM2093 195 l-65 -299 l-179 142 q-116 -123 -344 -123 q-296 0 -600 225 q-279 211 -467 532 q-188 330 -192 621 l-201 158 l88 223 l166 -121 q94 186 346 186 q333 0 674 -286 q312 -264 448 -598 q76 -177 76 -316 q0 -73 -20 -139 l270 -205 Z"></path></symbol><symbol id="plusminus" viewBox="0 -170 2048 2048"><path d="M1065 876 q-155 19 -344.5 37.5 q-189.5 18.5 -419.5 34.5 l-162 314 q212 -15 404.5 -35.5 q192.5 -20.5 380.5 -48.5 l141 -302 ZM1341 252 l-280 10 l88 -242 l-287 2 l-92 248 l-281 8 l-83 291 l253 -6 l-86 232 l289 0 l90 -242 l308 -10 l81 -291 Z"></path></symbol><symbol id="yen" viewBox="0 -170 2048 2048"><path d="M1513 -109 q-237 219 -522 621 q-4 -35 -7 -69 q-3 -34 -3 -66 q0 -96 18 -242 q9 -60 17 -120 q8 -60 16 -120 l-444 72 q-23 160 -35 322.5 q-12 162.5 -12 343.5 q0 121 6 221 l-266 22 l-131 318 l342 -27 q-23 51 -38.5 88 q-15.5 37 -25.5 62 l-336 26 l-106 260 l344 -26 l-43 119 l418 -3 q18 -51 32.5 -87.5 q14.5 -36.5 24.5 -61.5 l442 -37 l109 -260 l-449 37 q21 -51 37.5 -88 q16.5 -37 30.5 -64 l442 -34 l131 -318 l-336 27 q193 -242 378.5 -456 q185.5 -214 365.5 -413 l-400 -47 Z"></path></symbol><symbol id="ae" viewBox="0 -170 2048 2048"><path d="M1153 729 q-42 93 -91.5 210.5 q-49.5 117.5 -109.5 266.5 q-53 -6 -106 -6 q-21 0 -41.5 1 q-20.5 1 -42.5 3 q130 -161 227.5 -279 q97.5 -118 163.5 -196 ZM2251 227 q-256 27 -524.5 39 q-268.5 12 -565.5 14 q-362 465 -634.5 826.5 q-272.5 361.5 -458.5 625.5 l327 21 l172 -262 q37 -5 69 -7 q32 -2 58 -2 q39 0 78 3 q39 3 78 12 l-78 233 q157 -16 270 -28.5 q113 -12.5 189 -16.5 q87 -6 185.5 -10 q98.5 -4 221.5 -6 l136 -328 q-137 2 -262.5 9.5 q-125.5 7.5 -243.5 21.5 q12 -35 21 -62.5 q9 -27.5 16 -46.5 q14 -42 24 -71 q10 -29 19 -50 q118 -16 223 -25 q105 -9 198 -7 l41 0 l132 -320 q-112 2 -219.5 8 q-107.5 6 -225.5 21 q23 -69 46 -127 q23 -58 46 -107 q241 -24 502 -30 l160 -328 Z"></path></symbol><symbol id="oslash" viewBox="0 -170 2048 2048"><path d="M1255 915 q-13 157 -157 320 q-151 172 -301 172 q-88 0 -113 -60 l571 -432 ZM715 1067 q58 -169 178 -299 q141 -156 295 -156 q57 0 90 14 l-563 441 ZM1815 493 l-54 -243 l-145 112 q-96 -96 -277 -96 q-240 0 -481 180 q-225 167 -375 426 q-151 258 -153 494 l-162 127 l74 186 l133 -98 q78 145 276 145 q276 0 541 -229 q250 -207 360 -477 q60 -150 60 -254 q0 -65 -15 -109 l218 -164 Z"></path></symbol><symbol id="questiondown" viewBox="0 -170 2048 2048"><path d="M997 269 l-82 186 q-625 45 -788 442 q-37 89 -37 160 q0 248 404 248 q256 0 512 -53 l71 -295 q-120 28 -238.5 43.5 q-118.5 15.5 -244.5 15.5 q-125 0 -125 -70 q0 -83 96 -139 q38 -22 81 -35 q43 -13 91 -18 l357 -33 q73 -161 126.5 -276 q53.5 -115 86.5 -187 l-310 11 ZM1444 -69 q0 -93 -105 -93 q-95 0 -178 74 q-84 74 -84 166 q0 92 107 92 q93 0 176 -73 q84 -73 84 -166 Z"></path></symbol><symbol id="exclamdown" viewBox="0 -170 2048 2048"><path d="M459 240 q-117 241 -231.5 494 q-114.5 253 -231.5 532 l352 -47 q150 -445 369 -996 l-258 17 ZM883 -109 q0 -92 -107 -92 q-93 0 -176 74 q-84 72 -84 164 q0 92 105 92 q92 0 176 -72 q86 -74 86 -166 Z"></path></symbol><symbol id="guillemotleft" viewBox="0 -170 2048 2048"><path d="M1333 336 l-428 2 l-483 569 l43 539 l430 -29 l-45 -524 l483 -557 ZM1929 309 l-428 2 l-483 570 l43 538 l430 -29 l-47 -522 l485 -559 Z"></path></symbol><symbol id="guillemotright" viewBox="0 -170 2048 2048"><path d="M1108 860 l-29 -516 l-438 24 l37 516 l-504 572 l438 -31 l496 -565 ZM1716 806 l-30 -532 l-439 41 l37 516 l-504 569 l441 -28 l495 -566 Z"></path></symbol><symbol id="ellipsis" viewBox="0 -170 2048 2048"><path d="M662 440 q0 -109 -134 -109 q-102 0 -196 76 q-105 80 -105 176 q0 111 135 111 q96 0 199 -80 q101 -80 101 -174 ZM1106 438 q0 -109 -133 -109 q-103 0 -197 76 q-104 80 -104 176 q0 111 135 111 q95 0 199 -80 q100 -79 100 -174 ZM1593 335 q0 -108 -133 -108 q-99 0 -196 73 q-105 80 -105 177 q0 110 135 110 q97 0 199 -78 q100 -79 100 -174 Z"></path></symbol><symbol id="nonbreakingspace" viewBox="0 -170 2048 2048"><path d=""></path></symbol><symbol id="Agrave" viewBox="0 -170 2048 2048"><path d="M1079 758 q-45 209 -76.5 361 q-31.5 152 -48.5 257 q-56 -6 -127 -6 q-72 0 -133 6 q129 -208 224.5 -361.5 q95.5 -153.5 160.5 -256.5 ZM1067 188 q-371 567 -658.5 1027 q-287.5 460 -498.5 827 l414 12 l172 -324 q48 -4 88.5 -7 q40.5 -3 79.5 -3 q106 0 210 18 l-65 318 l446 -107 q68 -501 155 -937.5 q87 -436.5 198 -825.5 l-541 2 ZM1483 4 l-494 -172 l-102 250 l526 28 l70 -106 Z"></path></symbol><symbol id="Atilde" viewBox="0 -170 2048 2048"><path d="M1079 929 q-45 209 -76.5 362 q-31.5 153 -48.5 257 q-56 -6 -112 -6 q-33 0 -69.5 2 q-36.5 2 -78.5 6 q129 -211 224.5 -363.5 q95.5 -152.5 160.5 -257.5 ZM1069 360 q-379 578 -666.5 1038.5 q-287.5 460.5 -492.5 817.5 l414 12 l172 -324 q45 -4 89 -7 q44 -3 89 -3 q108 0 200 16 l-65 320 l446 -107 q70 -501 157 -940.5 q87 -439.5 196 -824.5 l-539 2 ZM1987 -168 q-215 153 -361 153 q-50 0 -117 -47 q-65 -47 -120 -47 q-182 0 -375 143 l-127 310 q235 -168 393 -168 q56 0 117 47 q65 47 123 47 q157 0 340 -129 l127 -309 Z"></path></symbol><symbol id="Otilde" viewBox="0 -170 2048 2048"><path d="M1380 1075 q25 59 25 121 q0 197 -193 420 q-198 229 -393 229 q-155 0 -155 -182 q0 -238 190 -518 q206 -300 430 -316 l27 0 q181 0 219 146 l-150 100 ZM1954 768 q-53 -363 -447 -363 q-364 0 -710 316 q-306 282 -457 649 q-92 226 -92 436 q0 201 96 316 q101 116 301 116 q332 0 674 -288 q308 -265 448 -600 q74 -183 74 -314 q0 -82 -29 -174 l142 -94 ZM2101 -104 q-215 153 -364 153 q-48 0 -115 -47 q-67 -47 -121 -47 q-175 0 -375 145 l-127 308 q235 -168 396 -168 q57 0 116 47 q61 47 121 47 q160 0 342 -129 l127 -309 Z"></path></symbol><symbol id="OE" viewBox="0 -170 2048 2048"><path d="M1380 666 q25 59 25 121 q0 201 -193 418 q-198 229 -393 229 q-155 0 -155 -184 q0 -241 190 -516 q205 -294 430 -311 l27 0 q186 0 219 143 l-150 100 ZM1896 396 l-63 143 q-4 -22 -9 -42.5 q-5 -20.5 -14 -43.5 l86 -57 ZM3168 -104 q-278 29 -587.5 46.5 q-309.5 17.5 -665.5 25.5 l-62 160 q-114 -129 -348 -129 q-362 0 -708 315 q-311 275 -459 645 q-92 226 -92 434 q0 201 96 316 q101 116 303 116 q227 0 463 -137 q105 -60 197.5 -137 q92.5 -77 179.5 -174 q-45 118 -83 217 q-38 99 -71 186 q273 -28 539 -46.5 q266 -18.5 540 -22.5 l162 -398 q-169 5 -328.5 15 q-159.5 10 -320.5 26 q23 -75 55.5 -153 q32.5 -78 77.5 -162 q137 -20 263 -29.5 q126 -9.5 245 -7.5 l62 0 l163 -397 q-142 2 -283.5 11 q-141.5 9 -287.5 26 q29 -82 60.5 -160 q31.5 -78 66.5 -154 q161 -16 319.5 -26.5 q158.5 -10.5 325.5 -14.5 l178 -391 Z"></path></symbol><symbol id="oe" viewBox="0 -170 2048 2048"><path d="M1296 872 q21 44 21 97 q0 157 -156 331 q-158 179 -307 179 q-121 0 -121 -142 q0 -189 150 -407 q161 -234 340 -248 l22 0 q138 0 170 108 l-119 82 ZM1704 668 l-39 88 q-2 -11 -6 -23 q-4 -12 -8 -29 l53 -36 ZM2738 254 q-236 22 -485 37.5 q-249 15.5 -527 21.5 l-47 121 q-92 -98 -278 -98 q-239 0 -483 182 q-229 174 -377 430 q-150 260 -150 502 q0 348 324 348 q339 0 659 -342 q-33 82 -61.5 159 q-28.5 77 -55.5 150 q230 -26 446 -40.5 q216 -14.5 427 -18.5 l133 -324 q-262 4 -520 33 q20 -66 46 -126 q26 -60 54 -118 q108 -16 207 -23 q99 -7 199 -5 l51 0 l135 -324 q-118 2 -228.5 8 q-110.5 6 -228.5 21 q27 -75 50.5 -134.5 q23.5 -59.5 46.5 -107.5 q115 -12 243.5 -19.5 q128.5 -7.5 272.5 -11.5 l147 -321 Z"></path></symbol><symbol id="quotedblleft" viewBox="0 -170 2048 2048"><path d="M1122 1284 l-420 180 l-98 252 l342 -10 l107 -244 l-49 -6 l65 -53 l53 -119 ZM1509 1278 l-422 180 l-96 252 l340 -10 l107 -244 l-49 -6 l65 -51 l55 -121 Z"></path></symbol><symbol id="quotedblright" viewBox="0 -170 2048 2048"><path d="M1108 1258 l-342 8 l-107 246 l50 4 l-66 53 l-53 119 l420 -181 l98 -249 ZM1493 1251 l-342 9 l-107 245 l50 4 l-66 54 l-53 121 l420 -183 l98 -250 Z"></path></symbol><symbol id="quoteleft" viewBox="0 -170 2048 2048"><path d="M1114 1257 l-420 181 l-98 252 l342 -11 l106 -243 l-49 -7 l66 -51 l53 -121 Z"></path></symbol><symbol id="quoteright" viewBox="0 -170 2048 2048"><path d="M1100 1229 l-342 8 l-107 246 l49 4 l-65 53 l-53 121 l419 -180 l99 -252 Z"></path></symbol><symbol id="divide" viewBox="0 -170 2048 2048"><path d="M901 1138 q0 -104 -121 -104 q-94 0 -186 80 q-92 78 -92 170 q0 102 119 102 q90 0 186 -78 q94 -75 94 -170 ZM1260 698 q-192 3 -379 15 q-187 12 -373 34 l-164 313 q161 -16 353.5 -31.5 q192.5 -15.5 422.5 -31.5 l140 -299 ZM1167 440 q0 -104 -125 -104 q-96 0 -190 75 q-98 84 -98 174 q0 107 127 107 q94 0 190 -78 q96 -79 96 -174 Z"></path></symbol><symbol id="ydieresis" viewBox="0 -170 2048 2048"><path d="M1337 675 q-87 78 -191.5 204.5 q-104.5 126.5 -230.5 307.5 q-2 -18 -3 -39.5 q-1 -21.5 -1 -48.5 q0 -42 4.5 -94.5 q4.5 -52.5 14.5 -116.5 q14 -105 21 -155 q7 -50 7 -54 l-364 58 q-22 144 -32.5 309 q-10.5 165 -10.5 356 q0 115 12 197 q-49 105 -104 239.5 q-55 134.5 -115 309.5 l342 0 q35 -100 67.5 -185.5 q32.5 -85.5 65.5 -160.5 q71 -169 211 -342 q166 -211 323.5 -394.5 q157.5 -183.5 311.5 -349.5 l-328 -41 ZM1196 362 q0 -103 -115 -103 q-94 0 -182 82 q-88 79 -88 170 q0 103 115 103 q89 0 180 -80 q90 -84 90 -172 ZM1686 339 q0 -112 -123 -112 q-105 0 -199 88 q-96 86 -96 184 q0 113 123 113 q99 0 196 -86 q99 -88 99 -187 Z"></path></symbol><symbol id="Ydieresis" viewBox="0 -170 2048 2048"><path d="M1516 344 q-241 220 -525 623 q-4 -29 -6 -62 q-2 -33 -2 -69 q0 -98 18 -244 q9 -63 17 -123.5 q8 -60.5 16 -120.5 l-444 72 q-25 164 -37 347.5 q-12 183.5 -12 391.5 q0 88 5 165 q5 77 15 144 q-61 131 -130 301 q-69 170 -144 388 l418 -3 q38 -105 76.5 -205.5 q38.5 -100.5 80.5 -199.5 q85 -204 264 -430 q205 -260 400.5 -488.5 q195.5 -228.5 388.5 -439.5 l-399 -47 ZM1325 27 q0 -103 -113 -103 q-92 0 -184 80 q-90 80 -90 170 q0 105 115 105 q91 0 182 -80 q90 -84 90 -172 ZM1815 4 q0 -113 -125 -113 q-101 0 -199 86 q-96 86 -96 187 q0 112 123 112 q100 0 198 -86 q99 -88 99 -186 Z"></path></symbol><symbol id="guilsinglleft" viewBox="0 -170 2048 2048"><path d="M1333 309 l-428 2 l-483 569 l43 539 l430 -29 l-47 -522 l485 -559 Z"></path></symbol><symbol id="guilsinglright" viewBox="0 -170 2048 2048"><path d="M1114 807 l-37 -518 l-432 29 l39 516 l-504 569 l438 -30 l496 -566 Z"></path></symbol><symbol id="quotesinglbase" viewBox="0 -170 2048 2048"><path d="M514 41 l-340 8 l-106 246 l49 4 l-66 53 l-53 119 l418 -180 l98 -250 Z"></path></symbol><symbol id="quotedblbase" viewBox="0 -170 2048 2048"><path d="M711 282 l-340 11 l-107 243 l49 6 l-65 52 l-55 121 l419 -181 l99 -252 ZM1096 276 l-340 10 l-107 246 l49 4 l-65 54 l-55 118 l421 -180 l97 -252 Z"></path></symbol><symbol id="perthousand" viewBox="0 -170 2048 2048"><path d="M1421 1227 q0 67 -73 131 q-71 63 -140 63 q-78 0 -78 -71 q0 -78 76 -154 q78 -78 154 -78 q15 0 39 10 l-41 19 q63 33 63 80 ZM1151 309 q0 70 -74 133 q-68 64 -139 64 q-78 0 -78 -72 q0 -80 76 -155 q78 -78 154 -78 q15 0 38 10 l-41 18 q64 33 64 80 ZM2187 1176 q0 65 -71 131 q-71 63 -140 63 q-78 0 -78 -74 q0 -74 74 -153 q76 -76 154 -76 q23 0 39 10 l-41 19 q63 32 63 80 ZM2507 1006 q-26 -222 -252 -222 q-144 0 -301 91 q-142 81 -238 210 l-4 -16 l27 -12 q-26 -221 -252 -221 q-128 0 -250 61 l842 -942 l-264 -82 l-369 422 q8 -29 8 -68 q0 -32 -12 -73 l28 -13 q-24 -223 -256 -223 q-226 0 -444 203 q-217 202 -217 426 q0 118 69 181 q69 63 189 63 q132 0 262 -70 l-899 1026 l313 -12 l355 -396 q-19 60 -19 123 q0 59 18 104 q18 45 52 75.5 q34 30.5 81.5 46.5 q47.5 16 106.5 16 q132 0 281 -80 q66 -35 123.5 -80 q57.5 -45 105.5 -100 q21 209 256 209 q210 0 422 -174 q223 -181 223 -387 q0 -33 -12 -74 l27 -12 Z"></path></symbol><symbol id="Acircumflex" viewBox="0 -170 2048 2048"><path d="M1079 787 q-45 209 -76.5 361 q-31.5 152 -48.5 257 q-56 -6 -127 -6 q-72 0 -133 6 q129 -208 224.5 -361.5 q95.5 -153.5 160.5 -256.5 ZM1067 217 q-188 285 -353 542.5 q-165 257.5 -308 486.5 q-143 230 -266.5 435 q-123.5 205 -229.5 390 l414 12 l172 -324 q48 -4 88.5 -7 q40.5 -3 79.5 -3 q106 0 210 18 l-65 318 l446 -107 q68 -501 155 -937.5 q87 -436.5 198 -825.5 l-541 2 ZM1780 84 l-183 -252 l-237 21 l-406 274 l316 -10 l145 -84 l70 76 l295 -25 Z"></path></symbol><symbol id="Ecircumflex" viewBox="0 -170 2048 2048"><path d="M1968 197 q-288 29 -599.5 47.5 q-311.5 18.5 -655.5 26.5 l-142 370 l150 -2 q-160 357 -307.5 714 q-147.5 357 -284.5 734 q280 -32 548 -50.5 q268 -18.5 531 -22.5 l162 -396 q-169 4 -327.5 14.5 q-158.5 10.5 -319.5 26.5 q22 -78 55.5 -157.5 q33.5 -79.5 75.5 -157.5 q135 -20 261 -29.5 q126 -9.5 247 -7.5 l61 0 l164 -397 q-154 2 -293.5 10 q-139.5 8 -275.5 25 q29 -91 60.5 -169 q31.5 -78 64.5 -145 q161 -16 319.5 -26.5 q158.5 -10.5 325.5 -14.5 l180 -393 ZM1817 111 l-181 -252 l-239 21 l-406 272 l316 -8 l145 -84 l72 76 l293 -25 Z"></path></symbol><symbol id="Aacute" viewBox="0 -170 2048 2048"><path d="M1079 830 q-45 209 -76.5 361 q-31.5 152 -48.5 257 q-56 -6 -127 -6 q-72 0 -133 6 q129 -208 224.5 -361.5 q95.5 -153.5 160.5 -256.5 ZM1067 260 q-371 565 -659.5 1029 q-288.5 464 -497.5 825 l414 12 l172 -324 q48 -4 88.5 -7 q40.5 -3 79.5 -3 q106 0 210 18 l-65 318 l446 -107 q68 -501 155 -937.5 q87 -436.5 198 -825.5 l-541 2 ZM1980 -168 l-665 250 l-17 109 l578 -105 l104 -254 Z"></path></symbol><symbol id="Edieresis" viewBox="0 -170 2048 2048"><path d="M1968 271 q-288 29 -599 47.5 q-311 18.5 -654 26.5 l-144 370 l150 -2 q-160 353 -307.5 711 q-147.5 358 -284.5 739 q280 -32 548 -50.5 q268 -18.5 531 -22.5 l162 -396 q-169 4 -327.5 14.5 q-158.5 10.5 -319.5 26.5 q22 -81 55.5 -160 q33.5 -79 75.5 -157 q124 -17 246 -26 q122 -9 254 -9 l69 0 l164 -399 q-141 2 -282 11 q-141 9 -287 26 q33 -97 64.5 -174.5 q31.5 -77.5 60.5 -141.5 q148 -16 306 -25.5 q158 -9.5 339 -13.5 l180 -395 ZM1417 -3 q0 -105 -114 -105 q-95 0 -183 82 q-90 80 -90 170 q0 102 113 102 q93 0 182 -79 q92 -80 92 -170 ZM1907 -28 q0 -113 -125 -113 q-101 0 -199 86 q-96 86 -96 187 q0 112 123 112 q100 0 198 -86 q99 -88 99 -186 Z"></path></symbol><symbol id="Egrave" viewBox="0 -170 2048 2048"><path d="M1968 168 q-288 29 -599.5 47.5 q-311.5 18.5 -655.5 26.5 l-144 370 l152 -2 q-160 353 -307.5 713.5 q-147.5 360.5 -284.5 734.5 q281 -32 549 -50 q268 -18 530 -23 l162 -396 q-169 4 -328.5 14.5 q-159.5 10.5 -320.5 26.5 q23 -75 55.5 -153 q32.5 -78 77.5 -162 q135 -20 261 -29.5 q126 -9.5 247 -7.5 l61 0 l164 -397 q-154 2 -293.5 10 q-139.5 8 -275.5 25 q29 -91 60.5 -169 q31.5 -78 64.5 -145 q161 -16 319.5 -26.5 q158.5 -10.5 325.5 -14.5 l180 -393 ZM1520 31 l-494 -172 l-102 250 l526 28 l70 -106 Z"></path></symbol><symbol id="Iacute" viewBox="0 -170 2048 2048"><path d="M1669 255 q-176 -12 -344 -12 q-130 0 -265 6 q-135 6 -284 21 l-162 368 q42 -4 91.5 -6 q49.5 -2 109.5 -6 q-135 291 -246.5 562.5 q-111.5 271.5 -199.5 537.5 l-213 24 l-133 357 q223 -31 438.5 -46.5 q215.5 -15.5 429.5 -15.5 l45 0 l133 -354 l-203 0 q94 -271 193 -521 q99 -250 205 -485 l-156 -69 l90 0 q130 0 309 6 l162 -367 ZM1671 -160 l-663 252 l-17 106 l576 -102 l104 -256 Z"></path></symbol><symbol id="Icircumflex" viewBox="0 -170 2048 2048"><path d="M1669 225 q-176 -12 -344 -12 q-130 0 -266 6 q-136 6 -285 21 l-160 368 q42 -4 91.5 -6 q49.5 -2 109.5 -6 q-135 291 -246.5 562.5 q-111.5 271.5 -199.5 537.5 l-213 26 l-133 355 q223 -31 438.5 -46.5 q215.5 -15.5 429.5 -15.5 l45 0 l133 -354 l-203 0 q94 -271 193 -521 q99 -250 205 -485 l-156 -69 l90 0 q130 0 309 6 l162 -367 ZM1675 90 l-180 -250 l-240 21 l-405 272 l315 -8 l146 -86 l71 76 l293 -25 Z"></path></symbol><symbol id="Idieresis" viewBox="0 -170 2048 2048"><path d="M1671 300 q-72 -4 -153 -7 q-81 -3 -175 -3 q-138 0 -278 6 q-140 6 -289 21 l-162 368 q69 -4 119 -7 q50 -3 84 -5 q-141 297 -252 570 q-111 273 -196 530 l-213 24 l-133 357 q223 -31 438.5 -46.5 q215.5 -15.5 429.5 -15.5 l45 0 l133 -356 l-203 2 q94 -271 193 -521 q99 -250 205 -485 l-158 -69 q17 -1 30.5 -1.5 q13.5 -0.5 24.5 -0.5 l39 0 l25 0 q126 0 284 6 l162 -367 ZM1278 -21 q0 -107 -117 -107 q-93 0 -182 80 q-88 79 -88 170 q0 107 117 107 q89 0 180 -80 q90 -79 90 -170 ZM1767 -48 q0 -112 -125 -112 q-104 0 -198 88 q-96 90 -96 186 q0 113 122 113 q105 0 199 -88 q98 -89 98 -187 Z"></path></symbol><symbol id="Igrave" viewBox="0 -170 2048 2048"><path d="M1669 196 q-72 -4 -153 -7 q-81 -3 -175 -3 q-138 0 -278 6 q-140 6 -289 21 l-160 366 q42 -4 91.5 -6 q49.5 -2 109.5 -6 q-135 291 -246.5 562.5 q-111.5 271.5 -199.5 537.5 l-213 26 l-133 355 q223 -31 438.5 -46.5 q215.5 -15.5 429.5 -15.5 l45 0 l133 -354 l-203 2 q99 -276 196 -525 q97 -249 202 -483 l-156 -69 l90 0 q130 0 309 6 l162 -367 ZM1380 12 l-493 -172 l-103 248 l527 28 l69 -104 Z"></path></symbol><symbol id="Oacute" viewBox="0 -170 2048 2048"><path d="M1380 975 q25 59 25 121 q0 193 -195 418 q-198 229 -391 229 q-155 0 -155 -184 q0 -241 190 -516 q206 -298 430 -314 l27 0 q181 0 219 146 l-150 100 ZM1954 666 q-53 -360 -449 -360 q-362 0 -708 315 q-155 143 -268.5 303.5 q-113.5 160.5 -188.5 343.5 q-92 226 -92 436 q0 204 94 316 q101 116 303 116 q332 0 674 -288 q308 -265 448 -600 q74 -183 74 -312 q0 -84 -29 -176 l142 -94 ZM2095 -104 l-665 250 l-17 108 l578 -102 l104 -256 Z"></path></symbol><symbol id="Ocircumflex" viewBox="0 -170 2048 2048"><path d="M1380 932 q25 59 25 121 q0 193 -195 418 q-198 229 -391 229 q-155 0 -155 -184 q0 -241 190 -516 q206 -298 430 -314 l27 0 q181 0 219 146 l-150 100 ZM1954 623 q-53 -360 -449 -360 q-362 0 -708 315 q-155 143 -268.5 303.5 q-113.5 160.5 -188.5 343.5 q-92 226 -92 436 q0 204 94 316 q101 116 303 116 q332 0 674 -288 q308 -265 448 -600 q74 -183 74 -312 q0 -84 -29 -176 l142 -94 ZM1890 148 l-180 -252 l-237 20 l-408 275 l317 -10 l144 -84 l71 75 l293 -24 Z"></path></symbol><symbol id="Ograve" viewBox="0 -170 2048 2048"><path d="M1380 903 q25 59 25 121 q0 195 -193 418 q-198 229 -393 229 q-155 0 -155 -184 q0 -241 190 -516 q206 -298 430 -314 l27 0 q181 0 219 146 l-150 100 ZM1954 596 q-53 -362 -449 -362 q-359 0 -708 317 q-306 277 -457 647 q-92 226 -92 436 q0 430 397 430 q332 0 674 -288 q308 -265 448 -600 q74 -183 74 -312 q0 -82 -29 -174 l142 -94 ZM1597 68 l-493 -172 l-103 249 l525 29 l71 -106 Z"></path></symbol><symbol id="Uacute" viewBox="0 -170 2048 2048"><path d="M2144 336 l-420 6 l-401 985 q-66 161 -180 279 q-140 141 -289 141 q-141 0 -141 -168 q0 -140 106 -413 q112 -275 197.5 -478 q85.5 -203 146.5 -340 l-397 9 q-48 105 -82.5 179.5 q-34.5 74.5 -56.5 125.5 q-332 730 -332 1083 q0 393 381 393 q327 0 643 -266 q289 -244 428 -569 l397 -967 ZM2120 -102 l-666 252 l-16 106 l577 -102 l105 -256 Z"></path></symbol><symbol id="Ucircumflex" viewBox="0 -170 2048 2048"><path d="M2144 293 l-420 6 l-401 985 q-66 161 -180 279 q-140 141 -289 141 q-141 0 -141 -168 q0 -140 106 -413 q114 -278 199 -478.5 q85 -200.5 145 -337.5 l-397 7 q-48 105 -82.5 179.5 q-34.5 74.5 -56.5 125.5 q-332 730 -332 1083 q0 393 381 393 q327 0 643 -266 q289 -244 428 -569 l397 -967 ZM1917 150 l-180 -252 l-238 20 l-407 275 l317 -10 l143 -84 l72 75 l293 -24 Z"></path></symbol><symbol id="Ugrave" viewBox="0 -170 2048 2048"><path d="M2144 264 l-420 6 l-401 983 q-72 170 -180 279 q-140 141 -289 141 q-141 0 -141 -168 q0 -140 106 -413 q114 -278 199 -478.5 q85 -200.5 145 -337.5 l-397 7 q-48 105 -82.5 179.5 q-34.5 74.5 -56.5 125.5 q-332 730 -332 1083 q0 393 381 393 q327 0 643 -266 q289 -244 428 -569 l397 -965 ZM1622 70 l-494 -172 l-102 247 l526 29 l70 -104 Z"></path></symbol><symbol id="circumflex" viewBox="0 -170 2048 2048"><path d="M1604 2037 l-189 -222 l-237 19 l-400 239 l318 -8 l141 -73 l74 67 l293 -22 Z"></path></symbol><symbol id="tilde" viewBox="0 -170 2048 2048"><path d="M1878 1747 q-213 141 -362 141 q-53 0 -115 -43 q-65 -45 -121 -45 q-177 0 -373 135 l-121 285 q229 -156 392 -156 q59 0 116 45 q61 43 123 43 q161 0 340 -118 l121 -287 Z"></path></symbol><symbol id="space" viewBox="0 -170 2048 2048"><path d=""></path></symbol><symbol id="Scaron" viewBox="0 -170 2048 2048"><path d="M1749 199 q-60 -8 -117 -11 q-57 -3 -114 -3 q-240 0 -388 63 q-143 59 -282 186 q-147 138 -199 273 q-33 78 -33 176 q0 39 6 95.5 q6 56.5 19 131.5 q13 76 19 132.5 q6 56.5 6 93.5 q0 89 -17 135 q-29 71 -121 102 q-148 46 -344 72 l-131 450 q295 -18 539 -112 q305 -111 446 -299 q133 -182 133 -443 q0 -48 -6 -120.5 q-6 -72.5 -16 -174.5 q-10 -93 -15.5 -137.5 q-5.5 -44.5 -5.5 -46.5 q0 -143 320 -143 l102 0 l199 -420 ZM1827 -184 l-305 16 l-140 90 l-82 -69 l-309 33 l199 233 l233 -12 l404 -291 Z"></path></symbol><symbol id="scaron" viewBox="0 -170 2048 2048"><path d="M1561 600 q-104 -12 -183 -12 q-183 0 -319 53 q-153 65 -277 197 q-137 149 -137 299 q0 31 6 78 q6 47 19 112 q24 128 24 195 q0 64 -22 93 q-21 29 -80 50 q-48 17 -117.5 31 q-69.5 14 -161.5 24 l-106 369 q118 -8 224.5 -29.5 q106.5 -21.5 211.5 -60.5 q247 -90 363 -242 q33 -47 65 -127 q35 -96 35 -184 q0 -19 -6 -79.5 q-6 -60.5 -21 -168.5 q-8 -66 -12 -101.5 q-4 -35.5 -4 -43.5 q0 -80 137 -101 q4 0 53.5 -2 q49.5 -2 143.5 -6 l164 -344 ZM1733 217 l-306 16 l-141 91 l-80 -70 l-311 33 l201 231 l233 -10 l404 -291 Z"></path></symbol><symbol id="Yacute" viewBox="0 -170 2048 2048"><path d="M1516 311 q-120 112 -250 265.5 q-130 153.5 -275 359.5 q-4 -29 -6 -62 q-2 -33 -2 -69 q0 -100 18 -246 q9 -60 17 -120.5 q8 -60.5 16 -123.5 l-444 72 q-25 164 -37 347.5 q-12 183.5 -12 391.5 q0 88 5 165 q5 77 15 144 q-61 129 -130 300 q-69 171 -144 389 l418 -3 q38 -106 76.5 -206 q38.5 -100 80.5 -199 q85 -204 264 -430 q205 -262 400.5 -490.5 q195.5 -228.5 388.5 -437.5 l-399 -47 ZM1927 -109 l-665 250 l-17 107 l578 -103 l104 -254 Z"></path></symbol><symbol id="yacute" viewBox="0 -170 2048 2048"><path d="M1337 645 q-93 85 -195.5 210 q-102.5 125 -226.5 300 q-2 -18 -3 -40.5 q-1 -22.5 -1 -49.5 q0 -42 4.5 -93.5 q4.5 -51.5 12.5 -115.5 q8 -54 14 -104.5 q6 -50.5 14 -104.5 l-364 60 q-12 87 -21.5 193.5 q-9.5 106.5 -13.5 244.5 q-6 170 -6 225 q0 115 12 197 q-49 105 -104 239.5 q-55 134.5 -115 309.5 l342 0 q35 -100 67.5 -185.5 q32.5 -85.5 65.5 -160.5 q71 -169 211 -342 q166 -211 323.5 -394.5 q157.5 -183.5 311.5 -349.5 l-328 -39 ZM1798 227 l-665 250 l-17 107 l578 -103 l104 -254 Z"></path></symbol><symbol id="minus" viewBox="0 -170 2048 2048"><path d="M1268 676 q-172 19 -361.5 35.5 q-189.5 16.5 -400.5 31.5 l-158 291 q212 -14 403.5 -32.5 q191.5 -18.5 378.5 -45.5 l138 -280 Z"></path></symbol><symbol id="multiply" viewBox="0 -170 2048 2048"><path d="M1405 627 l-174 -164 l-287 199 l-147 -166 l-293 199 l149 170 l-329 231 l168 166 l305 -213 l135 184 l295 -196 l-140 -191 l318 -219 Z"></path></symbol></defs></svg>