<?xml version="1.0" standalone="no"?><!DOCTYPE svg PUBLIC "-//W3C//DTD SVG 1.1//EN" "http://www.w3.org/Graphics/SVG/1.1/DTD/svg11.dtd" ><svg xmlns="http://www.w3.org/2000/svg"><metadata></metadata><defs><font id="SF Fedora" horiz-adv-x="2542"><font-face font-family="SF Fedora" font-weight="400" font-stretch="normal" units-per-em="2048" panose-1="0 0 4 0 0 0 0 0 0 0" ascent="1106" descent="-170" x-height="0" bbox="-203 -346 3168 2263" underline-thickness="20" underline-position="-133" unicode-range="U+0020-2212" /><missing-glyph horiz-adv-x="1024"  /><glyph glyph-name="exclam" unicode="!" d="M588 467 q0 -93 -84 -166 q-85 -74 -178 -74 q-105 0 -105 92 q0 92 84 166 q83 74 176 74 q107 0 107 -92 ZM1100 1671 q-117 -235 -228.5 -483 q-111.5 -248 -228.5 -518 l-258 -19 q82 242 175 495 q93 253 204 525 l336 0 Z" /><glyph glyph-name="quotedbl" unicode="&quot;" d="M1010 1432 l-420 -181 l53 119 l66 53 l-50 4 l107 246 l342 8 l-98 -249 ZM1395 1438 l-420 -183 l53 121 l66 54 l-50 4 l107 245 l342 9 l-98 -250 Z" /><glyph glyph-name="numbersign" unicode="#" d="M995 1307 l-51 -123 l96 4 l52 123 l-97 -4 ZM1454 1327 l-129 -6 l-51 -125 l145 6 l-76 -229 l-165 -6 l-58 -138 l-225 11 l49 118 l-94 -4 l-55 -133 l-232 4 l49 119 l-133 -6 l76 229 l154 7 l49 120 l-154 -6 l90 217 l156 8 l70 170 l231 -2 l-64 -155 l95 2 l75 180 l224 -10 l-66 -158 l158 8 l-119 -221 Z" /><glyph glyph-name="dollar" unicode="$" d="M1757 1270 l-4 0 q-16 0 -43 1.5 q-27 1.5 -59.5 3.5 q-32.5 2 -67.5 4 q-35 2 -67 4 q-32 2 -59 3.5 q-27 1.5 -42 1.5 q-313 0 -313 -168 q0 -73 102 -274 q103 -200 103 -320 q0 -149 -107 -286 q-46 -64 -104 -115.5 q-58 -51.5 -129 -93.5 q-72 -208 -148 -346 l-434 -31 q26 45 50.5 95 q24.5 50 47.5 108 q-75 -16 -182 -28 q-107 -12 -250 -22 l129 451 q100 10 155.5 17.5 q55.5 7.5 72.5 11.5 q131 18 219 55 q123 49 123 117 q0 37 -21 90 q-22 57 -46 114.5 q-24 57.5 -46 114.5 q-49 134 -49 240 q0 223 209 432 q193 195 426 246 q24 48 61 117.5 q37 69.5 88 168.5 l432 29 q-16 -35 -49.5 -105.5 q-33.5 -70.5 -87.5 -176.5 l78 0 q72 0 132 -3.5 q60 -3.5 112 -7.5 l-232 -448 Z" /><glyph glyph-name="percent" unicode="%" d="M1421 393 q0 47 -63 80 l41 19 q-24 10 -39 10 q-76 0 -154 -78 q-76 -76 -76 -154 q0 -71 78 -71 q69 0 140 63 q73 64 73 131 ZM1151 1311 q0 47 -64 80 l41 18 q-23 10 -38 10 q-76 0 -154 -78 q-76 -75 -76 -155 q0 -72 78 -72 q71 0 139 64 q74 63 74 133 ZM1237 723 q122 61 250 61 q226 0 252 -221 l-27 -12 q12 -41 12 -74 q0 -207 -221 -387 q-212 -174 -422 -174 q-59 0 -106.5 16 q-47.5 16 -81.5 46.5 q-34 30.5 -52 75.5 q-18 45 -18 104 q0 63 19 123 l-355 -396 l-313 -12 l899 1026 q-130 -70 -262 -70 q-120 0 -189 63 q-69 63 -69 181 q0 227 217 426 q218 203 444 203 q232 0 256 -223 l-28 -13 q12 -41 12 -73 q0 -39 -8 -68 l369 422 l264 -82 l-842 -942 Z" /><glyph glyph-name="ampersand" unicode="&amp;" d="M1204 668 l-24 0 q-7 0 -14 -0.5 q-7 -0.5 -15 -1.5 q-76 -4 -146.5 -21.5 q-70.5 -17.5 -140.5 -50.5 q-168 -72 -213 -191 q-8 -18 -8 -38 q0 -109 234 -109 q26 0 79 7 q53 7 140 22 l147 383 l-39 0 ZM1958 1333 q-73 16 -155.5 23.5 q-82.5 7.5 -176.5 7.5 q-54 0 -108.5 -2 q-54.5 -2 -114.5 -6 q-350 -26 -422 -189 q-6 -17 -6 -30 q0 -78 155 -123 q58 -17 113 -25 q55 -8 109 -10 l53 147 l330 -71 q-41 -123 -101.5 -300 q-60.5 -177 -142.5 -419 l92 22 l-82 -344 q-485 -116 -831 -116 q-177 0 -310 59 q-165 76 -165 242 q0 70 34 163 q100 256 447 439 q-125 117 -125 274 q0 74 35 164 q124 301 483 412 q234 73 660 73 q346 0 460 -18 l-231 -373 Z" /><glyph glyph-name="quotesingle" unicode="&#39;" d="M1001 1409 l-419 -180 l53 121 l65 53 l-49 4 l107 246 l342 8 l-99 -252 Z" /><glyph glyph-name="parenleft" unicode="(" d="M1620 1862 q-138 -118 -247 -225.5 q-109 -107.5 -191 -213.5 q-197 -243 -318 -530 q-149 -357 -149 -610 q0 -206 96 -414 l-465 -119 q-86 225 -86 432 q0 258 164 666 q66 161 147.5 304 q81.5 143 180.5 271 q162 216 454 482 l414 -43 Z" /><glyph glyph-name="parenright" unicode=")" d="M1362 1495 q0 -255 -143 -604 q-143 -349 -345 -623 q-183 -241 -489 -514 l-401 62 q149 123 267.5 243.5 q118.5 120.5 211.5 241.5 q208 270 338 598 q114 291 114 498 q0 206 -94 413 l463 101 q78 -224 78 -416 Z" /><glyph glyph-name="asterisk" unicode="*" d="M1589 1102 l-366 -29 l170 -250 l-389 -239 l-37 303 l-299 -324 l-240 164 l397 315 l-340 -34 l181 340 l333 -64 l127 402 l392 38 l-226 -409 l359 110 l-62 -323 Z" /><glyph glyph-name="plus" unicode="+" d="M1262 750 l-308 -11 l-88 -235 l-288 -2 l86 229 l-256 -8 l81 287 l281 8 l92 242 l287 2 l-88 -236 l282 8 l-81 -284 Z" /><glyph glyph-name="comma" unicode="," d="M520 227 l-420 -180 l54 121 l65 51 l-49 6 l106 244 l342 10 l-98 -252 Z" /><glyph glyph-name="hyphen" unicode="-&#x2010;" d="M1130 754 q-187 -27 -378.5 -45.5 q-191.5 -18.5 -403.5 -32.5 l158 291 q211 15 400.5 31.5 q189.5 16.5 361.5 35.5 l-138 -280 Z" /><glyph glyph-name="period" unicode="." d="M662 473 q0 -96 -105 -172 q-97 -74 -192 -74 q-138 0 -138 109 q0 94 105 172 q96 72 194 72 q136 0 136 -107 Z" /><glyph glyph-name="slash" unicode="/" d="M1722 1819 q-99 -135 -196.5 -272 q-97.5 -137 -195 -277.5 q-97.5 -140.5 -197 -285.5 q-99.5 -145 -201.5 -296 q-184 -274 -335 -509.5 q-151 -235.5 -280 -446.5 l-370 80 q73 123 150 247 q77 124 158 251.5 q81 127.5 167 259.5 q86 132 178 270 q211 313 399.5 582.5 q188.5 269.5 366.5 504.5 l356 -108 Z" /><glyph glyph-name="zero" unicode="0" d="M1411 1120 q6 174 -188 174 l-15 0 q-264 -19 -477 -538 q-86 -210 -86 -324 q0 -147 137 -147 q181 0 363 225 q174 211 174 403 q0 62 -21 115 l111 74 l2 18 ZM1817 1333 q0 -10 -1 -26.5 q-1 -16.5 -4 -36.5 l-77 -51 q18 -68 18 -146 q0 -132 -74 -313 q-134 -325 -424 -582 q-322 -284 -641 -284 q-189 0 -284 110 q-90 109 -90 297 q0 358 258 768 q257 411 581 569 q166 78 324 78 q193 0 299 -94 q115 -102 115 -289 Z" /><glyph glyph-name="one" unicode="1" d="M1536 1702 q-78 -186 -152.5 -367.5 q-74.5 -181.5 -146.5 -362 q-72 -180.5 -141.5 -360.5 q-69.5 -180 -137.5 -362 l203 14 l-141 -346 q-237 -6 -441.5 -19.5 q-204.5 -13.5 -381.5 -35.5 l147 356 l186 12 q41 111 138.5 355.5 q97.5 244.5 257.5 632.5 q-48 -23 -111.5 -45.5 q-63.5 -22.5 -150.5 -49.5 l-60 299 q168 66 331.5 136.5 q163.5 70.5 326.5 146.5 l274 -4 Z" /><glyph glyph-name="two" unicode="2" d="M1851 1384 q0 -175 -133 -356 q-68 -99 -262 -287 q-78 -78 -194 -194 q-116 -116 -273 -277 q103 3 233 12 q130 9 291 25 l-155 -364 q-248 -25 -560.5 -46.5 q-312.5 -21.5 -697.5 -37.5 q259 262 479.5 481 q220.5 219 409.5 401 q51 48 126 121 q75 73 175 172 q23 23 37 39.5 q14 16.5 25 26.5 q61 73 61 135 q0 98 -133 98 q-107 0 -207 -69 q-94 -61 -153 -158 l-400 -19 q134 258 383 439 q265 192 543 192 q170 0 280 -80 q125 -89 125 -254 Z" /><glyph glyph-name="three" unicode="3" d="M1450 1077 q195 -68 195 -274 q0 -120 -52 -236 q-113 -270 -395 -475 q-293 -209 -577 -209 q-175 0 -287 82 q-127 90 -127 258 q0 97 43 201 l403 35 q-10 -39 -10 -66 q0 -127 150 -127 l16 0 q72 6 135 37 q88 39 162 123 q84 96 84 178 q0 117 -172 117 q-17 0 -97 -5 q-80 -5 -229 -16 l531 625 l-615 -31 l156 379 l1266 66 l-580 -662 Z" /><glyph glyph-name="four" unicode="4" d="M1141 944 q-124 -132 -222 -240.5 q-98 -108.5 -180 -201.5 l31 0 q48 -2 94.5 2 q46.5 4 98.5 14 l178 426 ZM1890 1722 q-86 -198 -207.5 -488 q-121.5 -290 -287.5 -685 l184 12 l-152 -399 l-190 -12 l-104 -263 l-443 -22 l111 258 q-175 -16 -360 -28 q-185 -12 -384 -21 l127 313 q245 260 404 428.5 q159 168.5 235 247.5 q185 192 346.5 354 q161.5 162 309.5 303 l411 2 Z" /><glyph glyph-name="five" unicode="5" d="M1772 1358 l-541 -17 q-57 -81 -98 -144.5 q-41 -63.5 -68 -111.5 q96 21 190 21 q167 0 271 -68 q121 -79 121 -237 q0 -99 -54 -234 q-109 -267 -397 -475 q-293 -209 -578 -209 q-178 0 -284 82 q-127 91 -127 258 q0 97 43 201 l403 35 q-10 -39 -10 -68 q0 -125 150 -125 q129 0 260 107 q135 106 135 231 q0 117 -154 117 q-171 0 -325 -172 l-312 113 q72 123 157 257.5 q85 134.5 185 294.5 q100 155 177.5 274 q77.5 119 140.5 206 q88 -6 166 -6 q54 0 159.5 5 q105.5 5 268.5 15 q57 2 142.5 7 q85.5 5 203.5 14 l-225 -371 Z" /><glyph glyph-name="six" unicode="6" d="M1143 598 q0 32 -12.5 56.5 q-12.5 24.5 -33.5 41.5 q-21 17 -50 26 q-29 9 -62 9 q-124 0 -254 -106 q-133 -109 -133 -226 q0 -125 160 -125 q122 0 250 99 q135 103 135 225 ZM1139 1106 l32 0 q172 1 293 -64 q135 -84 135 -251 q0 -104 -49 -226 q-107 -267 -391 -467 q-293 -207 -569 -207 q-178 0 -293 84 q-129 93 -129 267 q0 147 90 299 q28 43 76.5 105.5 q48.5 62.5 120.5 144.5 l788 913 l438 31 l-542 -629 Z" /><glyph glyph-name="seven" unicode="7" d="M2025 1729 q-174 -205 -367.5 -455 q-193.5 -250 -414.5 -549 q-365 -496 -592 -862 l-432 41 q86 135 209 320.5 q123 185.5 295 426.5 q106 151 165.5 233.5 q59.5 82.5 69.5 98.5 q69 94 130 173.5 q61 79.5 116 148.5 l-63 0 q-48 0 -113.5 -1 q-65.5 -1 -153.5 -4 q-197 -6 -266 -6 l156 379 q387 7 700.5 20.5 q313.5 13.5 560.5 35.5 Z" /><glyph glyph-name="eight" unicode="8" d="M1133 543 q0 119 -168 119 q-115 0 -242 -84 q-135 -93 -135 -207 q0 -117 166 -117 q115 0 243 84 q136 88 136 205 ZM1364 1300 q-40 37 -102 37 q-105 0 -213 -84 q-117 -90 -117 -190 q0 -102 131 -102 q91 0 188 59 q105 67 105 158 q0 47 -56 82 l64 40 ZM1806 1341 q0 -56 -34 -149 q-74 -187 -267 -305 q72 -84 72 -197 q0 -97 -49 -213 q-107 -252 -389 -422 q-275 -164 -555 -164 q-172 0 -293 72 q-144 82 -144 248 q0 77 37 172 q111 287 420 461 q-63 69 -63 172 q0 90 45 192 q94 226 358 371 q242 137 504 137 q248 0 352 -200 l-49 -33 q55 -59 55 -142 Z" /><glyph glyph-name="nine" unicode="9" d="M1389 1282 q-43 55 -125 55 q-130 0 -269 -104 q-147 -111 -147 -238 q0 -123 158 -123 q105 0 211 62 q105 62 143 160 q12 31 12 61 q0 47 -41 88 l58 39 ZM1802 1417 q23 -64 23 -114 q0 -90 -49 -207 q-66 -152 -258 -332 l-988 -907 l-471 0 l705 649 q-153 18 -248 108 q-94 91 -94 244 q0 105 43 207 q109 271 401 459 q291 192 582 192 q309 0 393 -274 l-39 -25 Z" /><glyph glyph-name="colon" unicode=":" d="M664 496 q0 -99 -101 -185 q-102 -84 -201 -84 q-133 0 -133 115 q0 98 105 184 q98 80 198 80 q132 0 132 -110 ZM981 1262 q0 -100 -102 -185 q-104 -84 -201 -84 q-131 0 -131 113 q0 100 100 182 q103 84 203 84 q131 0 131 -110 Z" /><glyph glyph-name="semicolon" unicode=";" d="M549 240 l-422 -191 l55 127 l66 55 l-49 7 l110 260 l342 10 l-102 -268 ZM981 1262 q0 -100 -103 -185 q-103 -86 -200 -86 q-131 0 -131 115 q0 100 100 182 q103 84 203 84 q131 0 131 -110 Z" /><glyph glyph-name="less" unicode="&lt;" d="M848 860 l47 -522 l-430 -29 l-43 539 l483 569 l428 2 l-485 -559 Z" /><glyph glyph-name="equal" unicode="=" d="M1067 557 q-135 -10 -331.5 -28.5 q-196.5 -18.5 -467.5 -43.5 l178 291 q218 17 406 35 q188 18 356 37 l-141 -291 ZM1233 948 q-185 -39 -379 -59.5 q-194 -20.5 -405 -24.5 l153 289 q194 8 381 24.5 q187 16.5 381 45.5 l-131 -275 Z" /><glyph glyph-name="greater" unicode="&gt;" d="M618 319 l-438 -30 l504 569 l-39 516 l432 29 l37 -518 l-496 -566 Z" /><glyph glyph-name="question" unicode="?" d="M680 473 q0 -93 -84 -166 q-85 -74 -178 -74 q-105 0 -105 93 q0 92 84 166 q82 73 176 73 q107 0 107 -92 ZM1667 1454 q0 -73 -37 -160 q-163 -399 -788 -444 l-82 -184 l-311 -13 q60 130 112 244.5 q52 114.5 103 220.5 q60 4 148 12 q88 8 208 19 q92 7 172 55 q94 55 94 139 q0 68 -119 68 q-130 0 -248.5 -15.5 q-118.5 -15.5 -238.5 -43.5 l72 297 q128 28 255 41.5 q127 13.5 257 13.5 q403 0 403 -250 Z" /><glyph glyph-name="at" unicode="@" d="M1006 575 l20 99 q-47 6 -84 6 l-18 0 l-13 0 q-4 0 -14 -2 l-63 -115 l-191 -14 q68 -80 211 -80 q165 0 346 119 l-194 -13 ZM1108 1303 q-195 -66 -348 -228 q-170 -182 -170 -370 q0 -83 47 -150 q86 147 203.5 332.5 q117.5 185.5 267.5 415.5 ZM1094 1008 q-35 -54 -60.5 -95 q-25.5 -41 -42.5 -69 l21 0 l26 0 q17 0 25 -2 q4 28 12 69 q8 41 19 97 ZM1520 1212 q-61 121 -230 121 q-82 0 -164 -24 l224 2 q-48 -167 -83.5 -344.5 q-35.5 -177.5 -62.5 -376.5 q64 42 116 91.5 q52 49.5 95 106.5 q103 139 103 267 q0 70 -39 135 l41 22 ZM1761 1272 q21 -56 21 -129 q0 -92 -53 -230 q-58 -138 -158 -254.5 q-100 -116.5 -244 -222.5 q-290 -211 -582 -211 q-189 0 -301 99 q-118 100 -118 286 q0 112 53 250 q115 289 418 502 q302 215 608 215 q313 0 397 -283 l-41 -22 Z" /><glyph glyph-name="A" unicode="a" d="M1077 1126 q-65 -104 -159.5 -254.5 q-94.5 -150.5 -223.5 -361.5 q61 6 133 6 q69 0 125 -6 q17 105 48.5 258 q31.5 153 76.5 358 ZM1606 1696 q-214 -762 -351 -1757 l-446 -107 l63 318 q-104 18 -210 18 q-37 0 -77.5 -3 q-40.5 -3 -88.5 -7 l-172 -324 l-414 12 q207 357 494.5 816.5 q287.5 459.5 662.5 1031.5 l539 2 Z" /><glyph glyph-name="B" unicode="b" d="M1233 516 q0 135 -264 135 q-44 0 -156 -12 l-170 -387 q42 -2 68 -3 q26 -1 39 -1 q150 0 297 61 q186 79 186 207 ZM1503 1241 q0 102 -250 102 q-42 0 -105 -3 q-63 -3 -151 -11 l115 -72 l-151 -307 q455 38 534 254 q8 18 8 37 ZM2001 1462 q0 -67 -37 -157 q-102 -250 -442 -455 q137 -95 137 -238 q0 -74 -37 -166 q-96 -241 -377 -391 q-244 -132 -532 -155 q-66 -4 -137.5 -7.5 q-71.5 -3.5 -153.5 -3.5 q-118 0 -225 7.5 q-107 7.5 -207 21.5 l200 346 q53 -11 80 -12 q64 135 182.5 394 q118.5 259 299.5 652 q-38 -6 -70.5 -12.5 q-32.5 -6.5 -58.5 -13.5 l92 370 q109 23 239 35 q230 21 363 30 q133 9 174 9 q510 0 510 -254 Z" /><glyph glyph-name="C" unicode="c" d="M1516 1171 q-49 127 -201 127 l-27 0 q-182 -17 -344 -200 q-131 -150 -215 -348 q-76 -176 -76 -308 q0 -155 135 -155 q143 0 283 104 q64 48 114 105 q50 57 85 127 l344 -86 q-78 -132 -181 -242 q-103 -110 -235 -203 q-286 -196 -567 -196 q-387 0 -387 417 q0 228 94 447 q151 363 453 641 q349 317 700 317 q393 0 440 -362 l-415 -185 Z" /><glyph glyph-name="D" unicode="d" d="M1401 1004 q0 143 -129 229 q-102 66 -262 86 l80 -84 q-105 -180 -211.5 -417.5 q-106.5 -237.5 -216.5 -545.5 q218 45 421 207 q205 161 283 365 q35 99 35 160 ZM1823 1145 q0 -127 -62 -283 q-151 -379 -532 -661 q-382 -287 -783 -320 q-57 -6 -348 -24 q67 182 139.5 361.5 q72.5 179.5 150.5 359.5 q78 180 163 361.5 q85 181.5 178 367.5 q-29 -9 -59.5 -16 q-30.5 -7 -61.5 -15 l92 371 q168 39 334 39 q308 0 520 -115 q269 -146 269 -426 Z" /><glyph glyph-name="E" unicode="e" d="M1788 1352 q-167 -4 -327 -14.5 q-160 -10.5 -320 -26.5 q-33 -67 -64.5 -145 q-31.5 -78 -60.5 -169 q146 17 287.5 26 q141.5 9 283.5 11 l-164 -397 l-61 0 q-120 2 -246 -7.5 q-126 -9.5 -262 -29.5 q-45 -84 -77.5 -162 q-32.5 -78 -55.5 -153 q161 16 320.5 26.5 q159.5 10.5 328.5 14.5 l-162 -396 q-274 -4 -540.5 -22.5 q-266.5 -18.5 -538.5 -48.5 q139 379 286 739.5 q147 360.5 304 704.5 l-150 -3 l144 369 q341 7 652.5 25.5 q311.5 18.5 600.5 48.5 l-178 -391 Z" /><glyph glyph-name="F" unicode="f" d="M1788 1350 q-181 -4 -340 -13.5 q-159 -9.5 -307 -25.5 q-29 -60 -60.5 -137 q-31.5 -77 -64.5 -177 q146 17 287.5 26 q141.5 9 283.5 11 l-164 -397 l-61 0 q-120 2 -246 -7.5 q-126 -9.5 -262 -29.5 q-87 -179 -157.5 -354 q-70.5 -175 -133.5 -357 l-434 -30 q131 366 276.5 721.5 q145.5 355.5 307.5 705.5 l-156 6 l156 377 q366 11 677 29.5 q311 18.5 576 44.5 l-178 -393 Z" /><glyph glyph-name="G" unicode="g" d="M1538 1085 q-11 213 -217 213 l-29 0 q-178 -16 -344 -196 q-134 -149 -217 -348 q-72 -182 -72 -297 q0 -170 156 -170 q103 0 199 41 q190 88 358 555 l420 94 l-426 -1034 l-389 -27 l51 123 q-236 -148 -471 -148 q-332 0 -332 367 q0 315 187 655 q188 345 473 568 q310 239 620 239 q393 0 447 -360 l-414 -275 Z" /><glyph glyph-name="H" unicode="h" d="M2081 1737 q-115 -240 -218 -469 q-103 -229 -194 -452 q-91 -223 -173 -440.5 q-82 -217.5 -157 -434.5 l-419 0 l219 594 l-406 22 q-76 -161 -143.5 -328 q-67.5 -167 -130.5 -348 l-422 0 q67 187 163.5 422.5 q96.5 235.5 225.5 530.5 q119 274 213 481 q94 207 166 360 l422 2 l-322 -708 l398 -19 q32 80 122 276 q90 196 236 509 l420 2 Z" /><glyph glyph-name="I" unicode="i" d="M1507 1319 q-179 6 -307 6 l-94 0 l156 -70 q-105 -229 -201 -477 q-96 -248 -195 -524 l203 2 l-133 -354 l-45 0 q-214 0 -429.5 -15.5 q-215.5 -15.5 -438.5 -46.5 l133 355 l211 26 q85 251 196 523 q111 272 252 571 q-60 -4 -109.5 -6 q-49.5 -2 -91.5 -6 l160 366 q149 14 289 20.5 q140 6.5 278 6.5 q94 0 175 -3 q81 -3 153 -7 l-162 -367 Z" /><glyph glyph-name="J" unicode="j" d="M1808 1352 q-17 -2 -115 -8 q-98 -6 -280 -17 l146 -63 q-33 -70 -72 -166 q-39 -96 -84 -219 q-53 -148 -89 -243 q-36 -95 -59 -147 q-146 -345 -499 -538 q-239 -129 -445 -129 q-212 0 -303 151 l387 324 q43 -43 115 -43 q164 0 260 221 q57 141 141 345 q84 204 201 485 q-37 -5 -91.5 -9 q-54.5 -4 -129.5 -8 l180 387 q248 33 437.5 48.5 q189.5 15.5 330.5 15.5 q82 0 150 -6 l-181 -381 Z" /><glyph glyph-name="K" unicode="k" d="M2013 1649 q-118 -120 -247 -252 q-129 -132 -279 -283 q-54 -51 -135 -127 q-81 -76 -193 -176 q154 -341 154 -750 q0 -26 -1 -53.5 q-1 -27.5 -3 -56.5 l-467 -60 q12 106 12 189 q0 262 -123 414 q-45 -106 -107.5 -255.5 q-62.5 -149.5 -144.5 -355.5 l-432 -28 q80 235 166 464.5 q86 229.5 180 456 q94 226.5 195.5 450.5 q101.5 224 212.5 449 l420 2 q-31 -65 -98.5 -226 q-67.5 -161 -172.5 -421 q230 217 402 390 q172 173 295 315 l366 -86 Z" /><glyph glyph-name="L" unicode="l" d="M1223 1677 q-187 -389 -331 -732 q-144 -343 -261 -652 l47 0 q105 -2 220 8 q115 10 245 31 l-201 -418 q-218 -29 -421 -44 q-203 -15 -406 -13 l-64 0 q328 954 750 1818 l422 2 Z" /><glyph glyph-name="M" unicode="m" d="M2519 1653 q-126 -146 -176 -240 q-10 -16 -27.5 -56 q-17.5 -40 -44.5 -104 l-547 -1286 l-432 -28 q48 125 120 297.5 q72 172.5 177 396.5 l-616 -645 l-152 643 q-88 -200 -161.5 -385.5 q-73.5 -185.5 -133.5 -360.5 l-430 -28 q140 378 287 741 q147 363 303 721 l-39 137 l479 250 l140 -918 l856 979 l397 -114 Z" /><glyph glyph-name="N" unicode="n" d="M2052 1559 q-386 -807 -633 -1586 l-405 -55 l-191 713 q-75 -180 -150 -363.5 q-75 -183.5 -147 -382.5 l-430 -28 q137 374 283.5 734.5 q146.5 360.5 306.5 725.5 l-39 139 l477 248 l179 -899 q180 500 401 895 l348 -141 Z" /><glyph glyph-name="O" unicode="o" d="M1528 1153 q-33 143 -217 143 l-27 0 q-226 -17 -428 -311 q-190 -274 -190 -514 q0 -184 155 -184 q192 0 389 227 q193 217 193 416 q0 64 -25 123 l150 100 ZM1810 1266 q31 -89 31 -176 q0 -127 -74 -310 q-136 -332 -448 -598 q-341 -286 -674 -286 q-202 0 -303 116 q-96 115 -96 316 q0 203 92 432 q148 366 459 645 q346 315 708 315 q393 0 447 -360 l-142 -94 Z" /><glyph glyph-name="P" unicode="p" d="M1456 1184 q0 135 -278 135 l-37 0 l-21 0 q-5 0 -10 -0.5 q-5 -0.5 -10 -1.5 q-8 -1 -15.5 -1.5 q-7.5 -0.5 -13.5 -0.5 l-22 0 l-27 0 l80 -49 l-238 -512 q170 20 334 110 q191 107 242 244 q16 51 16 76 ZM1950 1376 q0 -119 -86 -262 q-183 -302 -498 -496 q-306 -183 -668 -227 l-231 -510 l-395 -26 q129 280 296 637.5 q167 357.5 371 810.5 q-35 -5 -67.5 -11.5 q-32.5 -6.5 -61.5 -13.5 l90 369 q109 25 245.5 37 q136.5 12 301.5 12 q703 0 703 -320 Z" /><glyph glyph-name="Q" unicode="q" d="M1563 1122 q-46 178 -209 178 q-230 0 -445 -305 q-198 -278 -198 -522 q0 -188 153 -188 q39 0 68 8 q0 35 2 90 q2 55 6 131 l371 242 q-13 -70 -20 -122 q-7 -52 -9 -87 q39 48 70.5 99.5 q31.5 51.5 58.5 105.5 q74 142 74 225 q0 36 -17 82 l95 63 ZM1905 1249 q14 -53 14 -112 q0 -109 -66 -277 q-161 -401 -495 -686 q55 -78 186 -111 l-448 -284 q-80 63 -117 172 q-156 -55 -285 -55 q-201 0 -301 118 q-94 112 -94 316 q0 208 90 432 q150 362 455 643 q346 319 696 319 q96 0 173 -28 q77 -28 134 -81.5 q57 -53.5 93 -131 q36 -77.5 51 -176.5 l-86 -58 Z" /><glyph glyph-name="R" unicode="r" d="M1503 1204 q0 123 -231 123 q-23 0 -51.5 -1 q-28.5 -1 -65.5 -3 q-90 -6 -119 -6 l99 -70 l-222 -469 q173 21 334 111 q190 101 242 244 q14 36 14 71 ZM1999 1397 q0 -117 -86 -260 q-247 -417 -739 -613 q268 -178 268 -516 l0 -28 q0 -10 -0.5 -17 q-0.5 -7 -1.5 -12 l-463 -57 q0 173 -53 264 q-54 94 -207 184 q-66 -142 -115 -248.5 q-49 -106.5 -84 -187.5 l-424 -29 q187 406 357 759 q170 353 325 671 q-84 -8 -166 -27 l90 367 q262 57 646 57 q653 0 653 -307 Z" /><glyph glyph-name="S" unicode="s" d="M1550 1288 l-102 0 q-115 0 -197 -24 q-123 -38 -123 -119 q0 -2 5.5 -46.5 q5.5 -44.5 15.5 -137.5 q10 -100 16 -172.5 q6 -72.5 6 -120.5 q0 -259 -133 -441 q-141 -188 -446 -299 q-244 -94 -539 -112 l131 448 q190 26 344 72 q92 31 121 102 q17 46 17 135 q0 37 -6 93.5 q-6 56.5 -19 132.5 q-13 75 -19 131.5 q-6 56.5 -6 95.5 q0 96 33 174 q60 148 215 285 q151 134 310 186 q146 49 352 49 q51 0 107 -3 q56 -3 116 -11 l-199 -418 Z" /><glyph glyph-name="T" unicode="t" d="M1763 1292 l-544 -8 l131 -65 q-174 -371 -315.5 -706 q-141.5 -335 -254.5 -650 l-413 14 q61 178 127 353.5 q66 175.5 138 349.5 q72 174 150.5 348 q78.5 174 165.5 350 l-399 -6 l182 397 l1217 21 l-185 -398 Z" /><glyph glyph-name="U" unicode="u" d="M2142 1692 q-65 -162 -162.5 -399.5 q-97.5 -237.5 -232.5 -563.5 q-140 -324 -428 -567 q-320 -264 -643 -264 q-381 0 -381 393 q0 348 330 1079 q22 51 56.5 124.5 q34.5 73.5 82.5 178.5 l397 6 q-59 -135 -144 -335.5 q-85 -200.5 -198 -477.5 q-108 -288 -108 -413 q0 -164 135 -164 q154 0 293 137 q117 117 182 279 l401 981 l420 6 Z" /><glyph glyph-name="V" unicode="v" d="M1978 1688 q-121 -153 -261 -348 q-140 -195 -302 -437 q-200 -296 -357.5 -544.5 q-157.5 -248.5 -275.5 -456.5 q-108 12 -227 12 q-76 0 -149.5 -5 q-73.5 -5 -145.5 -15 q28 179 67.5 381.5 q39.5 202.5 92.5 433.5 q59 274 118.5 509.5 q59.5 235.5 118.5 446.5 l404 8 q-201 -695 -258 -1102 q174 295 355 569.5 q181 274.5 380 540.5 l440 7 Z" /><glyph glyph-name="W" unicode="w" d="M2544 1720 q-228 -383 -468.5 -810 q-240.5 -427 -506.5 -916 q-8 1 -14.5 1.5 q-6.5 0.5 -12.5 0.5 l-18 0 l-19 0 q-211 0 -473 -59 q10 93 29.5 226 q19.5 133 48.5 314 q-59 -98 -148.5 -239.5 q-89.5 -141.5 -205.5 -337.5 q-110 12 -221 12 q-140 0 -275 -18 q28 181 67.5 383.5 q39.5 202.5 92.5 431.5 q57 256 116.5 491.5 q59.5 235.5 122.5 464.5 l404 8 q-98 -344 -160.5 -616.5 q-62.5 -272.5 -95.5 -483.5 q87 157 142 255 q55 98 81 141 q66 111 126.5 207 q60.5 96 117.5 178 q10 61 24.5 125.5 q14.5 64.5 32.5 130.5 l416 -33 q-62 -217 -110 -451 q-48 -234 -83 -491 q23 42 88 167 q65 125 179 337 q49 99 126 241.5 q77 142.5 185 335.5 l412 4 Z" /><glyph glyph-name="X" unicode="x" d="M1974 1546 q-180 -147 -373.5 -319 q-193.5 -172 -404.5 -377 q23 -250 57 -455.5 q34 -205.5 82 -374.5 l-473 -114 q-20 88 -41.5 215.5 q-21.5 127.5 -46.5 296.5 q-119 -113 -243.5 -251 q-124.5 -138 -260.5 -306 l-245 153 q227 258 398 443.5 q171 185.5 294 308.5 q-47 458 -60 776 l500 162 l0 -21 q0 -51 6 -162.5 q6 -111.5 19 -285.5 q105 99 243.5 222 q138.5 123 319.5 278 l229 -189 Z" /><glyph glyph-name="Y" unicode="y" d="M1913 1649 q-387 -419 -789 -924 q-88 -111 -153.5 -217 q-65.5 -106 -108.5 -209 q-43 -105 -83 -205 q-40 -100 -74 -200 l-418 -3 q75 212 143 380 q68 168 131 304 q-10 66 -15 148.5 q-5 82.5 -5 181.5 q0 205 12 380 q12 175 35 335 l444 72 q-8 -60 -15 -121 q-7 -61 -16 -121 q-18 -146 -18 -242 q0 -34 2 -67 q2 -33 6 -66 q285 406 522 621 l400 -47 Z" /><glyph glyph-name="Z" unicode="z" d="M2038 1749 q-166 -174 -327 -350 q-161 -176 -327 -363 l66 0 l43 0 q11 0 23.5 0.5 q12.5 0.5 25.5 1.5 l-162 -397 l-32 0 q-69 0 -145.5 -2 q-76.5 -2 -164.5 -6 q-78 -94 -153.5 -186 q-75.5 -92 -147.5 -185 q188 14 364 33.5 q176 19.5 351 48.5 l-272 -397 q-274 -37 -564 -55.5 q-290 -18.5 -602 -18.5 q129 166 276.5 346 q147.5 180 315.5 383 q-42 -4 -102 -12 q-60 -8 -142 -19 l164 400 q106 12 213 22.5 q107 10.5 219 18.5 q43 51 107 124 q64 73 154 175 q-143 -6 -295.5 -10.5 q-152.5 -4.5 -319.5 -6.5 l242 385 q313 7 608 24 q295 17 584 46 Z" /><glyph glyph-name="bracketleft" unicode="[" d="M1456 1481 l-350 -11 q-172 -409 -298 -726.5 q-126 -317.5 -218 -553.5 l377 21 l-170 -430 l-797 -51 q197 549 412 1084.5 q215 535.5 454 1067.5 q52 -2 93.5 -3 q41.5 -1 74.5 -1 q154 0 314.5 11.5 q160.5 11.5 339.5 33.5 l-232 -442 Z" /><glyph glyph-name="backslash" unicode="\" d="M1204 1919 q-12 -236 -39.5 -496 q-27.5 -260 -68.5 -559 q-37 -264 -81 -508.5 q-44 -244.5 -95 -480.5 l-459 -137 q86 405 162 940 q43 309 73.5 575.5 q30.5 266.5 46.5 501.5 l461 164 Z" /><glyph glyph-name="bracketright" unicode="]" d="M1665 1937 q-100 -268 -205 -532.5 q-105 -264.5 -217 -533.5 q-112 -268 -232 -539 q-120 -271 -251 -551 l-795 -57 l182 432 l379 30 q138 314 270 630.5 q132 316.5 267 649.5 l-365 -36 l199 440 q367 0 768 67 Z" /><glyph glyph-name="asciicircum" unicode="^" d="M1161 1464 l-74 66 l-141 -74 l-317 -8 l399 240 l238 18 l188 -221 l-293 -21 Z" /><glyph glyph-name="underscore" unicode="_" d="M-203 -305 l0 305 l1432 0 l0 -305 l-1432 0 Z" /><glyph glyph-name="grave" unicode="`" d="M1350 1808 l-527 25 l95 217 l499 -149 l-67 -93 Z" /><glyph glyph-name="a" unicode="a" d="M987 1208 q-51 -75 -121.5 -190 q-70.5 -115 -169.5 -270 q21 2 46.5 3 q25.5 1 54.5 1 q28 0 52.5 -1 q24.5 -1 45.5 -3 q14 77 37 191 q23 114 55 269 ZM1425 1690 q-174 -622 -282 -1411 l-352 -23 l38 197 q-71 12 -153 12 q-35 0 -71 -2 q-36 -2 -70 -6 l-123 -228 l-357 -22 q87 150 187.5 315.5 q100.5 165.5 216 349.5 q115.5 184 246.5 387.5 q131 203.5 280 428.5 l440 2 Z" /><glyph glyph-name="b" unicode="b" d="M1130 752 q0 106 -208 106 q-4 0 -34.5 -3 q-30.5 -3 -84.5 -7 l-141 -318 q5 -1 10 -1.5 q5 -0.5 10 -0.5 l18 0 l29 0 l27 0 q9 0 16 0.5 q7 0.5 12 1.5 q108 9 213 64 q133 67 133 158 ZM1346 1331 q0 78 -195 78 q-24 0 -190 -12 l83 -51 l-122 -242 q354 24 417 199 q7 13 7 28 ZM1753 1505 q0 -47 -29 -125 q-76 -196 -350 -360 q101 -77 101 -195 q0 -70 -31 -145 q-79 -189 -303 -313 q-201 -107 -428 -125 q-54 -4 -113 -6.5 q-59 -2.5 -125 -2.5 q-99 0 -184.5 6.5 q-85.5 6.5 -163.5 16.5 l166 285 l63 -9 q35 72 130.5 280 q95.5 208 254.5 560 q-22 -4 -47.5 -9 q-25.5 -5 -54.5 -13 l76 303 q43 10 92 17 q49 7 106 11 q177 16 283 23.5 q106 7.5 143 7.5 q414 0 414 -207 Z" /><glyph glyph-name="c" unicode="c" d="M1372 1194 q-6 172 -176 172 q-187 0 -360 -242 q-158 -226 -158 -424 q0 -133 119 -133 q96 0 196 70 q83 56 150 151 l282 -69 q-141 -202 -331 -326 q-218 -143 -437 -143 q-317 0 -317 342 q0 237 152 506 q148 261 374 430 q245 182 486 182 q316 0 360 -291 l-340 -225 Z" /><glyph glyph-name="d" unicode="d" d="M1260 1133 q0 113 -97 180 q-77 57 -202 69 l61 -61 q-79 -136 -164 -325 q-85 -189 -176 -437 q191 40 352 180 q226 196 226 394 ZM1608 1247 q0 -102 -49 -225 q-117 -299 -429 -530 q-311 -231 -628 -256 q-48 -4 -118.5 -8.5 q-70.5 -4.5 -164.5 -10.5 q107 293 230.5 577.5 q123.5 284.5 271.5 577.5 q-41 -7 -94 -24 l75 303 q70 16 138 24 q68 8 137 8 q251 0 418 -94 q213 -116 213 -342 Z" /><glyph glyph-name="e" unicode="e" d="M1577 1407 q-141 -3 -269.5 -10.5 q-128.5 -7.5 -246.5 -20.5 q-23 -48 -46.5 -108.5 q-23.5 -60.5 -49.5 -132.5 q117 14 229.5 20 q112.5 6 224.5 8 l-133 -323 l-51 0 q-99 2 -198.5 -5.5 q-99.5 -7.5 -207.5 -23.5 q-31 -57 -55.5 -117.5 q-24.5 -60.5 -44.5 -126.5 q130 15 259 23 q129 8 261 10 l-133 -324 q-212 -4 -427 -18 q-215 -14 -445 -41 q110 301 226 584.5 q116 283.5 245 566.5 l-121 -2 l119 303 q276 6 526 21.5 q250 15.5 485 38.5 l-147 -322 Z" /><glyph glyph-name="f" unicode="f" d="M1577 1407 q-147 -3 -275.5 -10.5 q-128.5 -7.5 -240.5 -20.5 q-23 -43 -46.5 -103 q-23.5 -60 -49.5 -138 q117 14 229.5 20 q112.5 6 224.5 8 l-133 -323 l-51 0 q-99 2 -197.5 -5.5 q-98.5 -7.5 -206.5 -23.5 q-70 -149 -127.5 -290 q-57.5 -141 -105.5 -277 l-352 -25 q110 305 224 585.5 q114 280.5 239 551.5 l-123 6 l127 307 q297 8 546.5 22.5 q249.5 14.5 464.5 37.5 l-147 -322 Z" /><glyph glyph-name="g" unicode="g" d="M1372 1194 q-10 172 -172 172 q-147 0 -285 -147 q-112 -118 -180 -283 q-61 -147 -61 -236 q0 -131 127 -131 q191 0 313 197 q53 90 105 217 l340 70 l-316 -766 l-321 -23 l39 94 q-189 -114 -371 -114 q-268 0 -268 295 q0 252 149 524 q76 138 171.5 251 q95.5 113 211.5 204 q247 192 498 192 q316 0 360 -293 l-340 -223 Z" /><glyph glyph-name="h" unicode="h" d="M1827 1722 q-180 -381 -328.5 -736 q-148.5 -355 -265.5 -701 l-344 0 l176 475 l-320 16 q-57 -124 -111 -257 q-54 -133 -106 -281 l-344 0 q223 619 615 1437 l344 2 l-254 -565 l309 -12 q23 53 92.5 205.5 q69.5 152.5 192.5 416.5 l344 0 Z" /><glyph glyph-name="i" unicode="i" d="M1139 1675 q-93 -194 -175.5 -378.5 q-82.5 -184.5 -156 -362.5 q-73.5 -178 -139 -351 q-65.5 -173 -123.5 -343 l-352 -25 q131 380 280.5 742.5 q149.5 362.5 321.5 715.5 l344 2 Z" /><glyph glyph-name="j" unicode="j" d="M1518 1698 q-61 -127 -112.5 -243 q-51.5 -116 -96.5 -224 q-33 -87 -82.5 -209 q-49.5 -122 -118.5 -289 q-116 -263 -375 -405 q-182 -99 -336 -99 q-161 0 -235 119 l299 250 q35 -35 90 -35 q121 0 190 162 q66 160 168.5 396.5 q102.5 236.5 243.5 557.5 q91 13 152 19 q61 6 94 6 q53 0 119 -6 Z" /><glyph glyph-name="k" unicode="k" d="M1774 1651 q-86 -88 -190.5 -193.5 q-104.5 -105.5 -233.5 -234.5 q-42 -42 -107 -102 q-65 -60 -153 -138 q145 -314 151 -608 l-389 -121 q-5 336 -109 469 q-68 -161 -198 -483 l-352 -25 q132 389 281.5 752 q149.5 363 320.5 708 l344 0 q-31 -66 -83 -189 q-52 -123 -128 -315 q344 326 545 551 l301 -71 Z" /><glyph glyph-name="l" unicode="l" d="M1139 1675 q-148 -313 -264.5 -587.5 q-116.5 -274.5 -208.5 -514.5 l32 0 q82 -2 175 7.5 q93 9.5 204 25.5 l-164 -342 q-179 -24 -345 -36.5 q-166 -12.5 -328 -10.5 l-47 0 q259 757 602 1456 l344 2 Z" /><glyph glyph-name="m" unicode="m" d="M2175 1655 q-99 -111 -145 -195 q-9 -14 -23 -45.5 q-14 -31.5 -35 -79.5 q-141 -327 -250.5 -582 q-109.5 -255 -187.5 -448 l-352 -22 q45 118 101 252 q56 134 126 286 l-479 -502 l-121 506 q-81 -191 -139 -334.5 q-58 -143.5 -92 -248.5 l-355 -25 q111 297 227.5 586 q116.5 289 245.5 583 l-30 113 l389 203 l112 -729 l682 776 l326 -94 Z" /><glyph glyph-name="n" unicode="n" d="M1798 1581 q-77 -159 -145.5 -316.5 q-68.5 -157.5 -131.5 -315.5 q-63 -158 -120 -317.5 q-57 -159.5 -109 -322.5 l-331 -43 l-152 561 q-51 -118 -108 -262 q-57 -144 -123 -323 l-355 -25 q108 292 225.5 582 q117.5 290 247.5 585 l-30 113 l389 203 l141 -707 q145 399 315 703 l287 -115 Z" /><glyph glyph-name="o" unicode="o" d="M1364 1255 q-31 109 -170 109 l-23 0 q-178 -16 -340 -246 q-151 -218 -151 -407 q0 -144 121 -144 q153 0 309 181 q154 173 154 327 q0 57 -21 101 l121 79 ZM1599 1343 q23 -75 23 -137 q0 -99 -59 -250 q-116 -273 -359 -477 q-271 -229 -540 -229 q-324 0 -324 346 q0 235 152 504 q73 131 166 237 q93 106 208 191 q251 182 486 182 q316 0 360 -291 l-113 -76 Z" /><glyph glyph-name="p" unicode="p" d="M1307 1278 q0 106 -220 106 q-10 0 -24.5 -0.5 q-14.5 -0.5 -33.5 -1.5 q-19 -1 -33 -1.5 q-14 -0.5 -23 -0.5 l57 -34 l-188 -404 q142 20 262 88 q148 83 188 191 q15 34 15 57 ZM1706 1425 q0 -94 -66 -202 q-143 -242 -399 -396 q-126 -75 -258 -120 q-132 -45 -276 -62 l-185 -407 l-325 -23 q104 223 235 509 q131 286 297 644 q-29 -4 -54.5 -9 q-25.5 -5 -47.5 -11 l75 303 q99 22 209 32.5 q110 10.5 234 10.5 q561 0 561 -269 Z" /><glyph glyph-name="q" unicode="q" d="M1350 1227 q-38 137 -166 137 q-180 0 -348 -242 q-158 -226 -158 -411 q0 -148 121 -148 q20 0 49 6 q0 48 1 92 q1 44 3 84 l307 199 q-10 -51 -15 -92 q-5 -41 -7 -70 q147 196 147 332 q0 29 -10 62 l76 51 ZM1632 1327 q10 -49 10 -86 q0 -102 -51 -223 q-128 -320 -393 -545 q44 -59 154 -86 l-369 -235 q-73 56 -98 135 q-110 -39 -226 -39 q-319 0 -319 348 q0 232 149 500 q149 263 371 430 q241 184 475 184 q312 0 365 -338 l-68 -45 Z" /><glyph glyph-name="r" unicode="r" d="M1305 1280 q0 104 -211 104 l-27 0 l-16 0 q-7 0 -17 -2 q-10 -2 -20 -2 l-17 0 l-22 0 l55 -34 l-188 -404 q142 20 262 88 q149 84 188 191 q13 30 13 59 ZM1708 1432 q0 -93 -68 -209 q-190 -330 -587 -490 q172 -124 217 -422 l-377 -102 q-2 78 -10.5 137.5 q-8.5 59.5 -24.5 102.5 q-44 112 -158 184 q-60 -124 -103.5 -222 q-43.5 -98 -74.5 -173 l-346 -23 q86 193 221 478.5 q135 285.5 328 672.5 q-29 -5 -53.5 -9.5 q-24.5 -4.5 -44.5 -8.5 l75 303 q196 41 435 41 q571 0 571 -260 Z" /><glyph glyph-name="s" unicode="s" d="M1397 1356 q-189 -6 -197 -8 q-137 -21 -137 -101 q0 -8 4 -43.5 q4 -35.5 12 -101.5 q15 -106 21 -167 q6 -61 6 -79 q0 -86 -35 -182 q-32 -83 -67 -127 q-116 -152 -363 -242 q-100 -35 -208 -57.5 q-108 -22.5 -226 -30.5 l106 367 q90 10 159 24 q69 14 118 31 q59 20 80 50 q22 29 22 91 q0 27 -1 51.5 q-1 24.5 -3 47.5 q-5 39 -24 141 q-19 86 -19 143 q0 150 137 299 q117 129 275 195 q121 51 319 51 q48 0 94 -3 q46 -3 89 -7 l-162 -342 Z" /><glyph glyph-name="t" unicode="t" d="M1559 1362 l-318 -4 q-129 -285 -239.5 -557.5 q-110.5 -272.5 -215.5 -544.5 l-352 -25 q105 293 216.5 568.5 q111.5 275.5 234.5 548.5 l-307 -2 l149 323 l981 17 l-149 -324 Z" /><glyph glyph-name="u" unicode="u" d="M1556 918 q-110 -263 -344 -455 q-257 -213 -516 -213 q-307 0 -307 317 q0 281 264 863 q37 79 111 243 l328 4 q-54 -126 -107.5 -247.5 q-53.5 -121.5 -107.5 -247.5 q-146 -364 -146 -488 q0 -125 100 -125 q123 0 232 109 q86 86 143 221 l340 784 l328 5 l-318 -770 Z" /><glyph glyph-name="v" unicode="v" d="M1726 1683 q-98 -122 -208.5 -277 q-110.5 -155 -245.5 -353 q-162 -242 -289 -440.5 q-127 -198.5 -219 -360.5 q-45 4 -89 7 q-44 3 -89 3 q-124 0 -248 -18 q18 123 51 283.5 q33 160.5 80 371.5 q54 238 100 428 q46 190 88 338 l334 6 q-78 -278 -130 -491 q-52 -213 -75 -369 q134 227 278 442 q144 215 300 424 l362 6 Z" /><glyph glyph-name="w" unicode="w" d="M2177 1710 q-186 -315 -379.5 -657 q-193.5 -342 -404.5 -727 l-52 0 q-94 0 -188.5 -12.5 q-94.5 -12.5 -196.5 -34.5 q11 69 25 173 q14 104 35 246 q-48 -73 -113.5 -183.5 q-65.5 -110.5 -159.5 -264.5 q-45 4 -88 7 q-43 3 -88 3 q-57 0 -113 -4 q-56 -4 -116 -12 q20 123 52 284.5 q32 161.5 79 370.5 q51 221 98 410.5 q47 189.5 92 355.5 l332 8 q-78 -278 -130 -491 q-52 -213 -75 -369 q60 106 103 181.5 q43 75.5 72 123.5 q51 85 97 158.5 q46 73.5 91 136.5 q8 51 19.5 103 q11.5 52 27.5 106 l342 -27 q-51 -181 -89.5 -363 q-38.5 -182 -64.5 -368 q13 25 63 119.5 q50 94.5 140 261.5 q40 78 102.5 193 q62.5 115 149.5 268 l338 4 Z" /><glyph glyph-name="x" unicode="x" d="M1677 1565 q-135 -111 -288.5 -247 q-153.5 -136 -333.5 -310 q14 -143 47 -301.5 q33 -158.5 84 -339.5 l-404 -115 q-16 76 -33.5 176.5 q-17.5 100.5 -37.5 230.5 q-94 -87 -190 -195.5 q-96 -108.5 -208 -246.5 l-204 127 q173 195 311.5 344 q138.5 149 245.5 256 q-23 206 -35.5 359.5 q-12.5 153.5 -16.5 261.5 l410 131 l0 -17 q0 -34 5 -122 q5 -88 15 -232 q100 93 207.5 191 q107.5 98 237.5 204 l188 -155 Z" /><glyph glyph-name="y" unicode="y" d="M1663 1651 q-157 -167 -313.5 -350.5 q-156.5 -183.5 -321.5 -389.5 q-138 -174 -209 -340 q-33 -78 -65.5 -163 q-32.5 -85 -67.5 -181 l-342 0 q60 165 114 300.5 q54 135.5 105 244.5 q-8 48 -11 100 q-3 52 -3 109 q0 181 10.5 342 q10.5 161 32.5 305 l364 58 q-2 -5 -8 -56.5 q-6 -51.5 -20 -150.5 q-10 -64 -14.5 -115.5 q-4.5 -51.5 -4.5 -93.5 q0 -27 1 -49.5 q1 -22.5 3 -38.5 q123 174 226.5 300 q103.5 126 195.5 208 l328 -39 Z" /><glyph glyph-name="z" unicode="z" d="M1794 1733 q-132 -137 -261 -277 q-129 -140 -261 -291 l35 0 l39 0 q11 0 24 0.5 q13 0.5 27 1.5 l-135 -323 l-29 0 q-109 0 -244 -6 q-75 -88 -132.5 -160 q-57.5 -72 -102.5 -127 q148 10 288.5 26.5 q140.5 16.5 282.5 38.5 l-221 -327 q-215 -29 -447.5 -43.5 q-232.5 -14.5 -496.5 -14.5 q100 130 216.5 273.5 q116.5 143.5 254.5 306.5 q-54 -4 -101.5 -10 q-47.5 -6 -89.5 -13 l133 326 q87 10 170 17.5 q83 7.5 177 15.5 q48 54 97.5 111 q49.5 57 104.5 118 q-207 -10 -491 -12 l198 313 q257 5 497 19 q240 14 468 37 Z" /><glyph glyph-name="braceleft" unicode="{" d="M1642 1495 l-350 -12 q-118 -279 -245 -594.5 q-127 -315.5 -269 -685.5 l375 22 l-170 -432 l-444 -16 l-41 0 q-123 0 -181 76 q-43 56 -43 116 q0 67 99 318 q35 87 68.5 165.5 q33.5 78.5 68.5 165.5 l-172 -10 l186 484 l191 12 q26 63 64 155 q38 92 89 218 q73 171 226 286 q148 112 288 129 q11 2 131.5 6.5 q120.5 4.5 350.5 14.5 l-222 -418 Z" /><glyph glyph-name="bar" unicode="|" d="M1307 1884 q-129 -272 -254 -558 q-125 -286 -254 -601 q-117 -281 -208 -518.5 q-91 -237.5 -163 -448.5 l-428 -28 q82 241 178 498 q96 257 213 540 q131 326 254 600 q123 274 240 514 l422 2 Z" /><glyph glyph-name="braceright" unicode="}" d="M1554 1683 q0 -82 -202 -573 l174 10 l-189 -483 l-188 -12 q-31 -76 -78 -188 q-47 -112 -110 -267 q-71 -158 -205 -272 q-148 -127 -310 -142 q-96 -10 -239 -12 q-233 -6 -238 -6 l174 416 l394 12 q61 144 123 294 q62 150 126 308.5 q64 158.5 130 327 q66 168.5 135 348.5 l-375 -21 l170 432 l446 19 q7 1 12 1.5 q5 0.5 9 0.5 l14 0 l8 0 q117 0 176 -78 q43 -55 43 -115 Z" /><glyph glyph-name="asciitilde" unicode="~" d="M1565 1462 q-182 -121 -340 -121 q-62 0 -123 43 q-58 46 -117 46 q-162 0 -391 -156 l121 285 q196 135 375 135 q57 0 120 -45 q64 -43 117 -43 q146 0 359 141 l-121 -285 Z" /><glyph glyph-name="Adieresis" unicode="ä" d="M1079 1130 q-65 -103 -160.5 -256.5 q-95.5 -153.5 -224.5 -361.5 q42 4 78.5 6 q36.5 2 69.5 2 q56 0 112 -6 q17 105 48.5 258 q31.5 153 76.5 358 ZM1608 1704 q-109 -387 -196 -825.5 q-87 -438.5 -157 -939.5 l-446 -107 l65 320 q-92 16 -200 16 q-45 0 -89 -3 q-44 -3 -89 -7 l-172 -324 l-414 12 q209 363 496.5 823.5 q287.5 460.5 660.5 1030.5 l541 4 ZM1378 2025 q0 -88 -90 -172 q-89 -79 -182 -79 q-113 0 -113 102 q0 90 90 170 q88 82 183 82 q112 0 112 -103 ZM1868 2048 q0 -98 -99 -186 q-97 -86 -196 -86 q-123 0 -123 110 q0 95 96 187 q94 88 199 88 q123 0 123 -113 Z" /><glyph glyph-name="Aring" unicode="å" d="M1079 1133 q-65 -103 -160.5 -257 q-95.5 -154 -224.5 -362 q61 6 133 6 q71 0 127 -6 q17 104 48.5 257 q31.5 153 76.5 362 ZM1538 2048 q0 37 -41 37 q-21 0 -43 -10.5 q-22 -10.5 -40.5 -27 q-18.5 -16.5 -30 -37.5 q-11.5 -21 -11.5 -42 q0 -37 41 -37 q22 0 44 10.5 q22 10.5 40 27 q18 16.5 29.5 37.5 q11.5 21 11.5 42 ZM1608 1704 q-109 -385 -196 -824.5 q-87 -439.5 -157 -940.5 l-446 -107 l65 320 q-104 18 -210 18 q-39 0 -79.5 -3 q-40.5 -3 -88.5 -7 l-172 -326 l-414 12 q102 178 224.5 381.5 q122.5 203.5 266.5 434 q144 230.5 310.5 490 q166.5 259.5 357.5 550.5 l539 2 ZM1726 2118 q0 -129 -127 -244 q-125 -113 -258 -113 q-161 0 -161 146 q0 127 127 241 q127 115 258 115 q161 0 161 -145 Z" /><glyph glyph-name="Eacute" unicode="é" d="M1788 1356 q-167 -4 -325.5 -14.5 q-158.5 -10.5 -319.5 -26.5 q-67 -137 -125 -314 q146 17 287 26 q141 9 282 11 l-164 -399 l-61 0 q-121 2 -247 -7.5 q-126 -9.5 -261 -29.5 q-42 -78 -75.5 -157.5 q-33.5 -79.5 -55.5 -157.5 q161 16 319.5 26.5 q158.5 10.5 327.5 14.5 l-162 -396 q-263 -4 -531 -22.5 q-268 -18.5 -548 -50.5 q141 381 286.5 739 q145.5 358 305.5 711 l-150 -4 l142 370 q344 8 655.5 26.5 q311.5 18.5 599.5 47.5 l-180 -393 ZM1913 1876 l-576 -102 l17 106 l663 250 l-104 -254 Z" /><glyph glyph-name="Ntilde" unicode="ñ" d="M2054 1567 q-192 -408 -351 -803 q-159 -395 -284 -791 l-405 -55 l-191 717 q-72 -175 -146.5 -359.5 q-74.5 -184.5 -150.5 -390.5 l-430 -28 q135 368 282.5 732.5 q147.5 364.5 309.5 733.5 l-39 139 l477 250 l177 -903 q178 496 403 899 l348 -141 ZM1991 1929 q-183 -129 -342 -129 q-62 0 -121 47 q-59 49 -117 49 q-150 0 -395 -170 l127 310 q199 145 375 145 q57 0 122 -47 q67 -47 113 -47 q153 0 365 151 l-127 -309 Z" /><glyph glyph-name="Odieresis" unicode="ö" d="M1530 1159 q-38 144 -217 144 l-29 0 q-224 -16 -430 -314 q-190 -280 -190 -518 q0 -182 155 -182 q195 0 393 229 q193 223 193 420 q0 62 -25 121 l150 100 ZM1812 1272 q29 -92 29 -174 q0 -131 -74 -314 q-140 -335 -448 -600 q-342 -288 -674 -288 q-200 0 -301 116 q-96 115 -96 316 q0 210 92 436 q151 367 457 649 q346 316 710 316 q394 0 447 -363 l-142 -94 ZM1493 2034 q0 -88 -90 -172 q-91 -80 -182 -80 q-115 0 -115 104 q0 90 90 170 q92 80 184 80 q113 0 113 -102 ZM1982 2056 q0 -97 -98 -186 q-94 -88 -198 -88 q-123 0 -123 112 q0 97 96 187 q94 88 199 88 q124 0 124 -113 Z" /><glyph glyph-name="Udieresis" unicode="ü" d="M1747 733 q-139 -325 -428 -569 q-316 -266 -643 -266 q-381 0 -381 393 q0 353 332 1085 q22 51 56.5 125.5 q34.5 74.5 82.5 179.5 l397 7 q-60 -137 -145 -337.5 q-85 -200.5 -199 -478.5 q-106 -273 -106 -415 q0 -168 141 -168 q149 0 289 141 q114 118 180 279 l401 985 l420 6 l-397 -967 ZM1518 2036 q0 -88 -91 -172 q-88 -82 -180 -82 q-114 0 -114 104 q0 92 90 172 q89 80 182 80 q113 0 113 -102 ZM2007 2058 q0 -97 -98 -186 q-94 -88 -197 -88 q-123 0 -123 114 q0 100 97 185 q94 88 198 88 q123 0 123 -113 Z" /><glyph glyph-name="aacute" unicode="á" d="M987 1214 q-49 -78 -119 -193 q-70 -115 -170 -271 q21 2 46.5 3 q25.5 1 54.5 1 q28 0 51.5 -1 q23.5 -1 44.5 -3 q14 78 36.5 193 q22.5 115 55.5 271 ZM1425 1698 q-173 -615 -282 -1419 l-352 -23 l38 197 q-38 8 -79 11 q-41 3 -84 3 q-29 0 -63 -2 q-34 -2 -68 -6 l-123 -230 l-357 -22 q88 149 187.5 314 q99.5 165 214.5 350 q115 185 246.5 390 q131.5 205 283.5 435 l438 2 ZM1749 1866 l-578 -103 l17 107 l663 250 l-102 -254 Z" /><glyph glyph-name="agrave" unicode="à" d="M987 1212 q-49 -78 -119 -192 q-70 -114 -170 -270 q21 2 46.5 3 q25.5 1 54.5 1 q28 0 51.5 -1 q23.5 -1 44.5 -3 q14 78 36.5 193 q22.5 115 55.5 269 ZM1425 1696 q-174 -616 -282 -1417 l-352 -23 l38 197 q-79 14 -163 14 q-29 0 -63 -2 q-34 -2 -68 -6 l-123 -230 l-357 -22 q87 150 187.5 316.5 q100.5 166.5 216 351.5 q115.5 185 247 389.5 q131.5 204.5 281.5 431.5 l438 0 ZM1284 1769 l-526 29 l102 248 l494 -170 l-70 -107 Z" /><glyph glyph-name="acircumflex" unicode="â" d="M987 1214 q-49 -78 -119 -193 q-70 -115 -170 -271 q21 2 46.5 3 q25.5 1 54.5 1 q28 0 51.5 -1 q23.5 -1 44.5 -3 q14 78 36.5 193 q22.5 115 55.5 271 ZM1425 1698 q-173 -615 -282 -1419 l-352 -23 l38 197 q-38 8 -79 11 q-41 3 -84 3 q-29 0 -63 -2 q-34 -2 -68 -6 l-123 -230 l-357 -22 q172 295 402.5 665.5 q230.5 370.5 529.5 823.5 l438 2 ZM1356 1800 l-72 76 l-145 -84 l-316 -8 l406 272 l239 21 l181 -252 l-293 -25 Z" /><glyph glyph-name="adieresis" unicode="ä" d="M987 1214 q-49 -78 -119 -193 q-70 -115 -170 -271 q58 6 101 6 q37 0 96 -6 q14 78 36.5 193 q22.5 115 55.5 271 ZM1427 1698 q-88 -320 -159.5 -670 q-71.5 -350 -124.5 -749 l-352 -23 l38 197 q-38 8 -79 11 q-41 3 -84 3 q-29 0 -63 -2 q-34 -2 -68 -6 l-123 -230 l-357 -22 q168 291 401.5 663.5 q233.5 372.5 530.5 825.5 l440 2 ZM1251 2015 q0 -91 -90 -170 q-91 -80 -182 -80 q-115 0 -115 103 q0 91 88 170 q88 82 183 82 q116 0 116 -105 ZM1741 2040 q0 -99 -99 -187 q-98 -86 -198 -86 q-123 0 -123 111 q0 96 96 186 q94 88 199 88 q125 0 125 -112 Z" /><glyph glyph-name="atilde" unicode="ã" d="M987 1214 q-49 -78 -119 -193 q-70 -115 -170 -271 q58 6 101 6 q37 0 96 -6 q14 78 36.5 193 q22.5 115 55.5 271 ZM1427 1700 q-88 -320 -159.5 -670 q-71.5 -350 -124.5 -749 l-352 -25 l38 197 q-38 8 -79 11 q-41 3 -84 3 q-29 0 -63 -2 q-34 -2 -68 -6 l-123 -230 l-357 -22 q174 301 404.5 669.5 q230.5 368.5 527.5 821.5 l440 2 ZM1731 1913 q-183 -129 -340 -129 q-58 0 -123 47 q-59 49 -117 49 q-149 0 -393 -170 l127 309 q192 144 372 144 q58 0 123 -48 q67 -47 115 -47 q143 0 363 154 l-127 -309 Z" /><glyph glyph-name="aring" unicode="å" d="M989 1217 q-51 -78 -121.5 -194 q-70.5 -116 -169.5 -271 q58 6 101 6 q37 0 96 -6 q14 78 37.5 193 q23.5 115 56.5 272 ZM1409 2040 q0 37 -41 37 q-23 0 -45.5 -11 q-22.5 -11 -40.5 -28 q-18 -17 -29.5 -38 q-11.5 -21 -11.5 -42 q0 -35 41 -35 q21 0 43 10 q22 10 41 26.5 q19 16.5 31 37.5 q12 21 12 43 ZM1427 1700 q-88 -320 -159.5 -670 q-71.5 -350 -124.5 -749 l-352 -25 l38 199 q-71 12 -153 12 q-35 0 -71 -2 q-36 -2 -70 -6 l-123 -230 l-357 -22 q172 297 403.5 667.5 q231.5 370.5 528.5 823.5 l440 2 ZM1595 2109 q0 -129 -127 -243 q-125 -113 -258 -113 q-161 0 -161 145 q0 127 127 242 q127 115 258 115 q161 0 161 -146 Z" /><glyph glyph-name="eacute" unicode="é" d="M1577 1413 q-140 -3 -267.5 -10.5 q-127.5 -7.5 -246.5 -20.5 q-27 -60 -51.5 -119 q-24.5 -59 -46.5 -122 q117 14 228 20 q111 6 228 8 l-133 -327 l-61 0 q-100 2 -197 -5.5 q-97 -7.5 -199 -21.5 q-69 -129 -102 -246 q130 15 257 23 q127 8 263 10 l-133 -326 q-212 -4 -427 -18 q-215 -14 -445 -41 q110 307 227.5 595 q117.5 288 245.5 564 l-121 -4 l119 305 q278 6 527 21.5 q249 15.5 484 38.5 l-149 -324 ZM1794 1868 l-577 -103 l16 107 l665 250 l-104 -254 Z" /><glyph glyph-name="egrave" unicode="è" d="M1577 1413 q-130 -4 -256 -11 q-126 -7 -258 -22 q-28 -58 -52 -117.5 q-24 -59.5 -46 -121.5 q105 12 217.5 18 q112.5 6 238.5 8 l-133 -325 l-53 0 q-99 2 -197.5 -5.5 q-98.5 -7.5 -206.5 -23.5 q-34 -63 -60 -123.5 q-26 -60.5 -42 -120.5 q130 15 257 23 q127 8 263 10 l-133 -326 q-212 -4 -427 -18 q-215 -14 -445 -41 q112 313 230 598 q118 285 241 559 l-119 -2 l117 305 q291 6 540.5 20.5 q249.5 14.5 472.5 37.5 l-149 -322 ZM1329 1774 l-526 28 l102 248 l494 -172 l-70 -104 Z" /><glyph glyph-name="ecircumflex" unicode="ê" d="M1577 1413 q-140 -3 -267.5 -10.5 q-127.5 -7.5 -246.5 -20.5 q-27 -60 -51.5 -119 q-24.5 -59 -46.5 -122 q105 12 217.5 18 q112.5 6 238.5 8 l-133 -325 l-61 0 q-100 2 -197 -5.5 q-97 -7.5 -199 -21.5 q-69 -129 -102 -246 q130 15 257 23 q127 8 263 10 l-133 -326 q-212 -4 -427 -18 q-215 -14 -445 -41 q106 295 224 582.5 q118 287.5 249 574.5 l-121 -2 l119 305 q276 6 526 21.5 q250 15.5 485 38.5 l-149 -324 ZM1401 1804 l-72 76 l-143 -86 l-318 -8 l408 272 l237 21 l181 -250 l-293 -25 Z" /><glyph glyph-name="edieresis" unicode="ë" d="M1577 1415 q-130 -4 -256 -11 q-126 -7 -258 -22 q-27 -60 -51.5 -119 q-24.5 -59 -46.5 -122 q117 14 228 20 q111 6 228 8 l-133 -325 l-53 0 q-99 2 -197.5 -5.5 q-98.5 -7.5 -206.5 -23.5 q-69 -129 -102 -246 q130 15 257 23 q127 8 263 10 l-133 -326 q-212 -4 -427 -18 q-215 -14 -445 -41 q110 305 227 592 q117 287 246 567 l-121 -2 l119 303 q278 6 527 21.5 q249 15.5 484 38.5 l-149 -322 ZM1296 2019 q0 -93 -90 -172 q-90 -78 -180 -78 q-117 0 -117 105 q0 90 90 168 q89 80 183 80 q114 0 114 -103 ZM1786 2042 q0 -99 -100 -187 q-100 -86 -197 -86 q-123 0 -123 113 q0 100 96 186 q100 86 199 86 q125 0 125 -112 Z" /><glyph glyph-name="iacute" unicode="í" d="M1141 1683 q-184 -386 -332.5 -747 q-148.5 -361 -263.5 -696 l-352 -25 q131 389 280.5 752.5 q149.5 363.5 323.5 715.5 l344 0 ZM1296 1835 l-577 -104 l16 108 l666 248 l-105 -252 Z" /><glyph glyph-name="igrave" unicode="ì" d="M1141 1683 q-184 -386 -332.5 -747 q-148.5 -361 -263.5 -696 l-352 -25 q131 385 281.5 749.5 q150.5 364.5 322.5 716.5 l344 2 ZM1247 1767 l-526 29 l102 248 l494 -172 l-70 -105 Z" /><glyph glyph-name="icircumflex" unicode="î" d="M1141 1683 q-184 -386 -332.5 -747 q-148.5 -361 -263.5 -696 l-352 -25 q131 389 280.5 752.5 q149.5 363.5 323.5 715.5 l344 0 ZM1110 1784 l-72 76 l-143 -84 l-317 -11 l407 273 l238 20 l180 -250 l-293 -24 Z" /><glyph glyph-name="idieresis" unicode="ï" d="M1141 1683 q-185 -389 -333 -747.5 q-148 -358.5 -263 -695.5 l-352 -25 q131 389 280.5 752.5 q149.5 363.5 323.5 715.5 l344 0 ZM1006 2001 q0 -88 -91 -172 q-91 -80 -180 -80 q-114 0 -114 102 q0 91 88 170 q88 82 182 82 q115 0 115 -102 ZM1495 2023 q0 -97 -98 -186 q-98 -86 -197 -86 q-123 0 -123 113 q0 99 97 184 q98 86 198 86 q123 0 123 -111 Z" /><glyph glyph-name="ntilde" unicode="ñ" d="M1800 1589 q-153 -323 -278 -638.5 q-125 -315.5 -230 -639.5 l-331 -45 l-150 565 q-56 -130 -114 -276 q-58 -146 -119 -313 l-355 -25 q107 295 225.5 585 q118.5 290 249.5 591 l-32 112 l391 205 l139 -711 q136 381 320 707 l284 -117 ZM1853 1921 q-182 -129 -340 -129 q-57 0 -122 47 q-59 49 -117 49 q-149 0 -393 -170 l127 310 q193 143 374 143 q56 0 121 -47 q67 -47 117 -47 q141 0 360 153 l-127 -309 Z" /><glyph glyph-name="oacute" unicode="ó" d="M1366 1262 q-29 110 -170 110 l-22 0 q-176 -13 -340 -250 q-152 -226 -152 -411 q0 -142 119 -142 q150 0 311 183 q154 173 154 329 q0 55 -21 99 l121 82 ZM1599 1350 q23 -75 23 -144 q0 -110 -57 -245 q-111 -268 -361 -480 q-275 -231 -540 -231 q-324 0 -324 348 q0 237 152 506 q148 258 376 432 q245 182 486 182 q314 0 358 -293 l-113 -75 ZM1847 1872 l-577 -103 l16 107 l666 250 l-105 -254 Z" /><glyph glyph-name="ograve" unicode="ò" d="M1364 1262 q-32 108 -168 108 q-188 0 -356 -240 q-158 -226 -158 -417 q0 -144 119 -144 q150 0 311 183 q154 173 154 329 q0 55 -21 99 l119 82 ZM1599 1348 q23 -75 23 -138 q0 -99 -59 -249 q-111 -268 -359 -480 q-275 -231 -540 -231 q-324 0 -324 348 q0 242 149 502 q150 266 377 434 q241 184 486 184 q317 0 360 -295 l-113 -75 ZM1384 1778 l-526 26 l103 250 l493 -172 l-70 -104 Z" /><glyph glyph-name="ocircumflex" unicode="ô" d="M1364 1262 q-32 108 -168 108 q-188 0 -356 -240 q-158 -226 -158 -417 q0 -144 119 -144 q150 0 311 183 q154 173 154 329 q0 55 -21 99 l119 82 ZM1599 1350 q23 -75 23 -140 q0 -99 -59 -249 q-111 -268 -359 -480 q-275 -231 -540 -231 q-324 0 -324 348 q0 237 152 506 q147 259 374 432 q245 182 486 182 q316 0 360 -293 l-113 -75 ZM1456 1808 l-72 74 l-143 -84 l-315 -8 l405 272 l238 21 l182 -250 l-295 -25 Z" /><glyph glyph-name="odieresis" unicode="ö" d="M1364 1264 q-32 108 -168 108 l-22 0 q-176 -13 -340 -250 q-152 -226 -152 -411 q0 -142 119 -142 q150 0 311 183 q154 178 154 331 q0 55 -21 99 l119 82 ZM1599 1350 q23 -75 23 -142 q0 -112 -57 -247 q-111 -268 -361 -480 q-275 -231 -540 -231 q-324 0 -324 350 q0 242 149 502 q149 262 377 436 q245 182 486 182 q317 0 360 -295 l-113 -75 ZM1350 2023 q0 -88 -90 -172 q-91 -79 -181 -79 q-114 0 -114 102 q0 91 88 170 q88 82 182 82 q115 0 115 -103 ZM1839 2048 q0 -97 -98 -186 q-94 -88 -197 -88 q-123 0 -123 114 q0 100 97 185 q98 86 198 86 q123 0 123 -111 Z" /><glyph glyph-name="otilde" unicode="õ" d="M1364 1264 q-32 108 -168 108 q-188 0 -356 -239 q-158 -227 -158 -420 q0 -142 119 -142 q150 0 311 183 q154 173 154 329 q0 55 -21 99 l119 82 ZM1599 1350 q23 -75 23 -142 q0 -110 -57 -245 q-112 -270 -361 -482 q-275 -231 -540 -231 q-324 0 -324 350 q0 237 152 506 q147 259 374 432 q245 182 486 182 q317 0 360 -295 l-113 -75 ZM1831 1921 q-187 -131 -340 -131 q-56 0 -123 47 q-58 49 -117 49 q-158 0 -393 -168 l125 307 q202 146 375 146 q57 0 122 -47 q67 -47 113 -47 q153 0 365 151 l-127 -307 Z" /><glyph glyph-name="uacute" unicode="ú" d="M1556 922 q-110 -264 -342 -457 q-257 -215 -518 -215 q-307 0 -307 319 q0 287 264 869 q20 40 48 100.5 q28 60.5 65 142.5 l326 7 q-25 -60 -65.5 -157.5 q-40.5 -97.5 -100.5 -234.5 q-195 -456 -195 -598 q0 -127 100 -127 q122 0 232 111 q42 45 78 99.5 q36 54.5 65 121.5 l342 791 l328 2 l-320 -774 ZM1878 1874 l-575 -102 l14 106 l665 250 l-104 -254 Z" /><glyph glyph-name="ugrave" unicode="ù" d="M1556 920 q-110 -263 -344 -455 q-257 -215 -516 -215 q-307 0 -307 319 q0 285 264 867 q20 40 48 100.5 q28 60.5 65 142.5 l326 7 q-27 -63 -68 -159 q-41 -96 -98 -233 q-195 -456 -195 -596 q0 -127 100 -127 q229 0 375 332 l342 789 l328 4 l-320 -776 ZM1415 1780 l-526 28 l102 248 l494 -172 l-70 -104 Z" /><glyph glyph-name="ucircumflex" unicode="û" d="M1556 922 q-110 -264 -342 -457 q-257 -215 -518 -215 q-307 0 -307 319 q0 287 264 869 q20 40 48 100.5 q28 60.5 65 142.5 l326 7 q-23 -58 -65 -154 q-42 -96 -101 -238 q-197 -459 -197 -598 q0 -127 102 -127 q229 0 375 332 l342 789 l328 4 l-320 -774 ZM1489 1810 l-72 74 l-145 -84 l-316 -8 l406 272 l237 21 l183 -250 l-293 -25 Z" /><glyph glyph-name="udieresis" unicode="ü" d="M1556 922 q-110 -264 -342 -457 q-257 -215 -518 -215 q-307 0 -307 319 q0 287 264 869 q20 40 48 100.5 q28 60.5 65 142.5 l328 7 q0 -7 -168 -392 q-195 -456 -195 -598 q0 -127 100 -127 q233 0 375 334 l342 789 l328 4 l-320 -776 ZM1382 2023 q0 -91 -90 -170 q-89 -79 -182 -79 q-115 0 -115 102 q0 91 88 170 q88 82 183 82 q116 0 116 -105 ZM1872 2048 q0 -98 -100 -186 q-100 -86 -197 -86 q-123 0 -123 112 q0 101 96 187 q100 86 199 86 q125 0 125 -113 Z" /><glyph glyph-name="degree" unicode="°" d="M1006 1487 q0 35 -41 35 q-22 0 -44.5 -9.5 q-22.5 -9.5 -40.5 -24.5 q-18 -15 -29 -34.5 q-11 -19.5 -11 -40.5 q0 -35 41 -35 q21 0 43 9.5 q22 9.5 40 24.5 q18 15 30 34.5 q12 19.5 12 40.5 ZM1192 1550 q0 -122 -131 -229 q-128 -102 -250 -102 q-164 0 -164 137 q0 122 131 229 q127 103 250 103 q164 0 164 -138 Z" /><glyph glyph-name="cent" unicode="¢" d="M1372 1194 q-10 172 -174 172 q-193 0 -362 -244 q-160 -224 -160 -424 q0 -133 119 -133 q96 0 196 70 q83 56 150 151 l284 -69 q-220 -319 -524 -426 l-86 -207 l-373 -25 l84 205 q-188 66 -188 322 q0 320 242 649 q242 332 544 438 l72 172 l348 23 l-69 -168 q202 -46 237 -281 l-340 -225 Z" /><glyph glyph-name="bullet" unicode="&#x2022;" d="M1423 1128 q0 -251 -256 -477 q-247 -217 -503 -217 q-139 0 -222 68 q-90 70 -90 207 q0 249 258 477 q250 219 504 219 q136 0 221 -68 q88 -73 88 -209 Z" /><glyph glyph-name="paragraph" unicode="¶" d="M1364 1335 q-520 -103 -520 -334 q0 -56 17.5 -99 q17.5 -43 49 -71.5 q31.5 -28.5 76.5 -43 q45 -14.5 100 -13.5 l23 0 l254 561 ZM2273 1294 q-25 14 -48 25.5 q-23 11.5 -46 21.5 l-612 -1404 l-340 12 l628 1442 q-48 -2 -101.5 -5.5 q-53.5 -3.5 -117.5 -11.5 l88 -51 l-628 -1395 l-396 -28 l236 510 l-25 0 q-210 -2 -344 106 q-133 117 -133 330 q0 94 25 184 q17 63 39.5 114 q22.5 51 48.5 93 q173 273 614 401 q148 41 333 70 q185 29 421 43 q35 2 69.5 3 q34.5 1 69.5 1 q220 0 434 -86 l-215 -375 Z" /><glyph glyph-name="registered" unicode="®" d="M1034 547 q-1 148 -82 209 q-29 -61 -50.5 -108.5 q-21.5 -47.5 -35.5 -82.5 l-164 -12 q67 -41 168 -41 q106 0 220 49 l-56 -14 ZM897 1114 l35 135 q-132 -89 -223 -215 q-103 -151 -103 -289 q0 -111 74 -176 q47 111 111.5 246 q64.5 135 150.5 307 l-45 -8 ZM1239 1090 q0 47 -88 47 l-8 0 q-8 0 -14 -0.5 q-6 -0.5 -11 -1.5 l8 -5 l-90 -192 q70 12 127 49 q76 45 76 103 ZM1538 1253 q-64 121 -231 121 q-147 0 -289 -76 q39 5 78 8 q39 3 78 3 q288 0 288 -140 q0 -99 -114 -208 q-97 -93 -203 -142 q66 -55 92 -174 q118 82 201 195 q96 133 96 256 q0 70 -39 135 l43 22 ZM1780 1317 q20 -62 20 -129 q0 -105 -55 -234 q-112 -269 -402 -475 q-289 -211 -581 -211 q-188 0 -301 97 q-119 101 -119 286 q0 112 53 250 q115 289 418 502 q304 215 610 215 q312 0 396 -281 l-39 -20 Z" /><glyph glyph-name="copyright" unicode="©" d="M1260 1030 q-5 92 -80 92 q-86 0 -170 -114 q-80 -116 -80 -205 q0 -58 55 -58 q88 0 166 111 l160 -41 q-70 -100 -170 -170 q-116 -78 -223 -78 q-177 0 -177 181 q0 189 166 376 q167 191 350 191 q171 0 193 -160 l-190 -125 ZM1538 1253 q-64 121 -231 121 q-233 0 -465 -194 q-236 -200 -236 -435 q0 -115 76 -176 q70 -57 188 -57 q180 0 371 135 q192 134 260 305 q33 73 33 144 q0 70 -39 135 l43 22 ZM1780 1317 q20 -62 20 -129 q0 -105 -55 -234 q-112 -269 -402 -475 q-289 -211 -581 -211 q-188 0 -301 97 q-119 101 -119 286 q0 112 53 250 q115 289 418 502 q304 215 610 215 q312 0 396 -281 l-39 -20 Z" /><glyph glyph-name="trademark" unicode="&#x2122;" d="M1917 1663 q-14 -16 -33.5 -42 q-19.5 -26 -46.5 -60 q-1 -1 -27 -62 q-38 -87 -93.5 -210 q-55.5 -123 -127.5 -298 l-196 -12 q22 60 44.5 116 q22.5 56 49.5 111 l-213 -217 l-57 234 q-33 -72 -58.5 -137 q-25.5 -65 -46.5 -125 l-199 -15 q56 149 112.5 287.5 q56.5 138.5 115.5 271.5 l-101 -2 q-60 -136 -116 -268 q-56 -132 -107 -268 l-196 -15 q51 143 105.5 277 q54.5 134 117.5 270 l-154 -2 l82 178 l510 8 l-14 -28 l82 41 l55 -348 l330 368 l182 -53 Z" /><glyph glyph-name="acute" unicode="´" d="M1397 1864 l-576 -92 l15 96 l659 225 l-98 -229 Z" /><glyph glyph-name="dieresis" unicode="¨" d="M1243 2025 q0 -88 -88 -158 q-89 -69 -176 -69 q-117 0 -117 96 q0 86 88 156 q90 72 176 72 q117 0 117 -97 ZM1735 2048 q0 -94 -99 -170 q-102 -78 -192 -78 q-125 0 -125 103 q0 92 96 169 q96 78 193 78 q127 0 127 -102 Z" /><glyph glyph-name="AE" unicode="æ" d="M1311 1176 q-93 -108 -225.5 -272 q-132.5 -164 -311.5 -388 q64 6 135 6 q70 0 123 -6 q76 187 145.5 349 q69.5 162 133.5 311 ZM2488 1366 q-179 -4 -337.5 -13.5 q-158.5 -9.5 -307.5 -25.5 q-32 -68 -63.5 -145.5 q-31.5 -77.5 -61.5 -167.5 q136 16 276.5 24.5 q140.5 8.5 295.5 10.5 l-164 -398 l-55 0 q-124 2 -256.5 -8 q-132.5 -10 -282.5 -33 q-10 -26 -23.5 -65.5 q-13.5 -39.5 -31.5 -93.5 q-11 -25 -24 -63 q-13 -38 -30 -89 q168 19 329.5 29.5 q161.5 10.5 320.5 13.5 l-164 -395 q-108 -2 -237 -9.5 q-129 -7.5 -283 -17.5 q-31 -2 -174.5 -18.5 q-143.5 -16.5 -407.5 -44.5 l98 295 q-98 18 -203 18 q-38 0 -80 -3 q-42 -3 -90 -7 l-215 -326 l-411 12 q248 355 596 821 q348 466 798 1043 q219 2 392.5 6.5 q173.5 4.5 306.5 12.5 q117 6 287 18 q170 12 403 29 l-201 -410 Z" /><glyph glyph-name="Oslash" unicode="ø" d="M680 371 q33 -82 147 -82 q191 0 381 223 q185 212 197 408 l-725 -549 ZM1438 1276 q-57 22 -123 22 q-197 0 -377 -204 q-147 -167 -225 -385 l725 567 ZM1823 1235 q20 -66 20 -139 q0 -139 -76 -316 q-136 -334 -448 -598 q-341 -286 -674 -286 q-252 0 -346 186 l-166 -121 l-88 223 l201 158 q4 291 192 621 q188 321 467 532 q304 225 600 225 q228 0 344 -123 l179 142 l65 -299 l-270 -205 Z" /><glyph glyph-name="plusminus" unicode="±" d="M924 104 q-188 -28 -380.5 -48.5 q-192.5 -20.5 -404.5 -35.5 l162 314 q230 16 419.5 34.5 q189.5 18.5 344.5 37.5 l-141 -302 ZM1260 739 l-308 -10 l-90 -242 l-289 0 l86 232 l-253 -6 l83 291 l281 8 l92 248 l287 2 l-88 -242 l280 10 l-81 -291 Z" /><glyph glyph-name="yen" unicode="¥" d="M1913 1649 q-180 -199 -365.5 -413 q-185.5 -214 -378.5 -456 l336 27 l-131 -318 l-442 -34 q-14 -27 -30.5 -64 q-16.5 -37 -37.5 -88 l449 37 l-109 -260 l-442 -37 q-10 -25 -24.5 -61.5 q-14.5 -36.5 -32.5 -87.5 l-418 -3 l43 119 l-344 -26 l106 260 l336 26 q10 25 25.5 62 q15.5 37 38.5 88 l-342 -27 l131 318 l266 22 q-6 100 -6 221 q0 181 12 343.5 q12 162.5 35 322.5 l444 72 q-8 -60 -16 -120 q-8 -60 -17 -120 q-18 -146 -18 -242 q0 -32 3 -66 q3 -34 7 -69 q285 402 522 621 l400 -47 Z" /><glyph glyph-name="ae" unicode="æ" d="M1153 1251 q-66 -78 -163.5 -196 q-97.5 -118 -227.5 -279 q22 2 42.5 3 q20.5 1 41.5 1 q53 0 106 -6 q60 149 109.5 266.5 q49.5 117.5 91.5 210.5 ZM2091 1425 q-261 -6 -502 -30 q-23 -49 -46 -107 q-23 -58 -46 -127 q118 15 225.5 21 q107.5 6 219.5 8 l-132 -320 l-41 0 q-93 2 -198 -7 q-105 -9 -223 -25 q-9 -21 -19 -50 q-10 -29 -24 -71 q-7 -19 -16 -46.5 q-9 -27.5 -21 -62.5 q118 14 243.5 21.5 q125.5 7.5 262.5 9.5 l-136 -328 q-123 -2 -221.5 -6 q-98.5 -4 -185.5 -10 q-76 -4 -189 -16.5 q-113 -12.5 -270 -28.5 l78 233 q-39 9 -78 12 q-39 3 -78 3 q-26 0 -58 -2 q-32 -2 -69 -7 l-172 -262 l-327 21 q186 264 458.5 625.5 q272.5 361.5 634.5 826.5 q297 2 565.5 14 q268.5 12 524.5 39 l-160 -328 Z" /><glyph glyph-name="oslash" unicode="ø" d="M684 629 q25 -60 113 -60 q150 0 301 172 q144 163 157 320 l-571 -432 ZM1278 1350 q-33 14 -90 14 q-154 0 -295 -156 q-120 -130 -178 -299 l563 441 ZM1597 1319 q15 -44 15 -109 q0 -104 -60 -254 q-110 -270 -360 -477 q-265 -229 -541 -229 q-198 0 -276 145 l-133 -98 l-74 186 l162 127 q2 236 153 494 q150 259 375 426 q241 180 481 180 q181 0 277 -96 l145 112 l54 -243 l-218 -164 Z" /><glyph glyph-name="questiondown" unicode="¿" d="M1307 885 q-33 -72 -86.5 -187 q-53.5 -115 -126.5 -276 l-357 -33 q-48 -5 -91 -18 q-43 -13 -81 -35 q-96 -56 -96 -139 q0 -70 125 -70 q126 0 244.5 15.5 q118.5 15.5 238.5 43.5 l-71 -295 q-256 -53 -512 -53 q-404 0 -404 248 q0 71 37 160 q163 397 788 442 l82 186 l310 11 ZM1444 1212 q0 -93 -84 -166 q-83 -73 -176 -73 q-107 0 -107 92 q0 92 84 166 q83 74 178 74 q105 0 105 -93 Z" /><glyph glyph-name="exclamdown" unicode="¡" d="M717 842 q-219 -551 -369 -996 l-352 -47 q117 279 231.5 532 q114.5 253 231.5 494 l258 17 ZM883 1174 q0 -92 -86 -166 q-84 -72 -176 -72 q-105 0 -105 92 q0 92 84 164 q83 74 176 74 q107 0 107 -92 Z" /><glyph glyph-name="guillemotleft" unicode="«" d="M850 862 l45 -524 l-430 -29 l-43 539 l483 569 l428 2 l-483 -557 ZM1444 887 l47 -522 l-430 -29 l-43 538 l483 570 l428 2 l-485 -559 Z" /><glyph glyph-name="guillemotright" unicode="»" d="M612 305 l-438 -31 l504 572 l-37 516 l438 24 l29 -516 l-496 -565 ZM1221 358 l-441 -28 l504 569 l-37 516 l439 41 l30 -532 l-495 -566 Z" /><glyph glyph-name="ellipsis" unicode="&#x2026;" d="M662 481 q0 -94 -101 -174 q-103 -80 -199 -80 q-135 0 -135 111 q0 96 105 176 q94 76 196 76 q134 0 134 -109 ZM1106 483 q0 -95 -100 -174 q-104 -80 -199 -80 q-135 0 -135 111 q0 96 104 176 q94 76 197 76 q133 0 133 -109 ZM1593 586 q0 -95 -100 -174 q-102 -78 -199 -78 q-135 0 -135 110 q0 97 105 177 q97 73 196 73 q133 0 133 -108 Z" /><glyph glyph-name="nonbreakingspace" unicode=" " d="" /><glyph glyph-name="Agrave" unicode="à" d="M1079 1130 q-65 -103 -160.5 -256.5 q-95.5 -153.5 -224.5 -361.5 q61 6 133 6 q71 0 127 -6 q17 105 48.5 257 q31.5 152 76.5 361 ZM1608 1702 q-111 -389 -198 -825.5 q-87 -436.5 -155 -937.5 l-446 -107 l65 318 q-104 18 -210 18 q-39 0 -79.5 -3 q-40.5 -3 -88.5 -7 l-172 -324 l-414 12 q211 367 498.5 827 q287.5 460 658.5 1027 l541 2 ZM1413 1778 l-526 28 l102 250 l494 -172 l-70 -106 Z" /><glyph glyph-name="Atilde" unicode="ã" d="M1079 1133 q-65 -105 -160.5 -257.5 q-95.5 -152.5 -224.5 -363.5 q42 4 78.5 6 q36.5 2 69.5 2 q56 0 112 -6 q17 104 48.5 257 q31.5 153 76.5 362 ZM1608 1704 q-109 -385 -196 -824.5 q-87 -439.5 -157 -940.5 l-446 -107 l65 320 q-92 16 -200 16 q-45 0 -89 -3 q-44 -3 -89 -7 l-172 -324 l-414 12 q205 357 492.5 817.5 q287.5 460.5 666.5 1038.5 l539 2 ZM1860 1921 q-183 -129 -340 -129 q-58 0 -123 47 q-61 47 -117 47 q-158 0 -393 -168 l127 310 q193 143 375 143 q55 0 120 -47 q67 -47 117 -47 q146 0 361 153 l-127 -309 Z" /><glyph glyph-name="Otilde" unicode="õ" d="M1530 1159 q-38 146 -219 146 l-27 0 q-224 -16 -430 -316 q-190 -280 -190 -518 q0 -182 155 -182 q195 0 393 229 q193 223 193 420 q0 62 -25 121 l150 100 ZM1812 1272 q29 -92 29 -174 q0 -131 -74 -314 q-140 -335 -448 -600 q-342 -288 -674 -288 q-200 0 -301 116 q-96 115 -96 316 q0 210 92 436 q151 367 457 649 q346 316 710 316 q394 0 447 -363 l-142 -94 ZM1974 1929 q-182 -129 -342 -129 q-60 0 -121 47 q-59 47 -116 47 q-161 0 -396 -168 l127 308 q200 145 375 145 q54 0 121 -47 q67 -47 115 -47 q149 0 364 153 l-127 -309 Z" /><glyph glyph-name="OE" unicode="&#x152;" d="M1530 1155 q-33 143 -219 143 l-27 0 q-225 -17 -430 -311 q-190 -275 -190 -516 q0 -184 155 -184 q195 0 393 229 q193 217 193 418 q0 62 -25 121 l150 100 ZM1810 1268 q9 -23 14 -43.5 q5 -20.5 9 -42.5 l63 143 l-86 -57 ZM2990 1434 q-167 -4 -325.5 -14.5 q-158.5 -10.5 -319.5 -26.5 q-35 -76 -66.5 -154 q-31.5 -78 -60.5 -160 q146 17 287.5 26 q141.5 9 283.5 11 l-163 -397 l-62 0 q-119 2 -245 -7.5 q-126 -9.5 -263 -29.5 q-45 -84 -77.5 -162 q-32.5 -78 -55.5 -153 q161 16 320.5 26 q159.5 10 328.5 15 l-162 -398 q-274 -4 -540 -22.5 q-266 -18.5 -539 -46.5 q33 87 71 186 q38 99 83 217 q-87 -97 -179.5 -174 q-92.5 -77 -197.5 -137 q-236 -137 -463 -137 q-202 0 -303 116 q-96 115 -96 316 q0 208 92 434 q148 370 459 645 q346 315 708 315 q234 0 348 -129 l62 160 q356 8 665.5 25.5 q309.5 17.5 587.5 46.5 l-178 -391 Z" /><glyph glyph-name="oe" unicode="&#x153;" d="M1415 1262 q-32 108 -170 108 l-22 0 q-179 -14 -340 -248 q-150 -218 -150 -407 q0 -142 121 -142 q149 0 307 179 q156 174 156 331 q0 53 -21 97 l119 82 ZM1651 1348 q4 -17 8 -29 q4 -12 6 -23 l39 88 l-53 -36 ZM2591 1477 q-144 -4 -272.5 -11.5 q-128.5 -7.5 -243.5 -19.5 q-23 -48 -46.5 -107.5 q-23.5 -59.5 -50.5 -134.5 q118 15 228.5 21 q110.5 6 228.5 8 l-135 -324 l-51 0 q-100 2 -199 -5 q-99 -7 -207 -23 q-28 -58 -54 -118 q-26 -60 -46 -126 q258 29 520 33 l-133 -324 q-211 -4 -427 -18.5 q-216 -14.5 -446 -40.5 q27 73 55.5 150 q28.5 77 61.5 159 q-320 -342 -659 -342 q-324 0 -324 348 q0 242 150 502 q148 256 377 430 q244 182 483 182 q186 0 278 -98 l47 121 q278 6 527 21.5 q249 15.5 485 37.5 l-147 -321 Z" /><glyph glyph-name="quotedblleft" unicode="&#x201c;" d="M1069 1591 l-65 -53 l49 -6 l-107 -244 l-342 -10 l98 252 l420 180 l-53 -119 ZM1454 1595 l-65 -51 l49 -6 l-107 -244 l-340 -10 l96 252 l422 180 l-55 -121 Z" /><glyph glyph-name="quotedblright" unicode="&#x201d;" d="M1010 1432 l-420 -181 l53 119 l66 53 l-50 4 l107 246 l342 8 l-98 -249 ZM1395 1438 l-420 -183 l53 121 l66 54 l-50 4 l107 245 l342 9 l-98 -250 Z" /><glyph glyph-name="quoteleft" unicode="&#x2018;" d="M1061 1569 l-66 -51 l49 -7 l-106 -243 l-342 -11 l98 252 l420 181 l-53 -121 Z" /><glyph glyph-name="quoteright" unicode="&#x2019;" d="M1001 1409 l-419 -180 l53 121 l65 53 l-49 4 l107 246 l342 8 l-99 -252 Z" /><glyph glyph-name="divide" unicode="÷" d="M901 584 q0 -95 -94 -170 q-96 -78 -186 -78 q-119 0 -119 102 q0 92 92 170 q92 80 186 80 q121 0 121 -104 ZM1120 725 q-230 -16 -422.5 -31.5 q-192.5 -15.5 -353.5 -31.5 l164 313 q186 22 373 34 q187 12 379 15 l-140 -299 ZM1167 1282 q0 -95 -96 -174 q-96 -78 -190 -78 q-127 0 -127 107 q0 90 98 174 q94 75 190 75 q125 0 125 -104 Z" /><glyph glyph-name="ydieresis" unicode="ÿ" d="M1665 1659 q-154 -166 -311.5 -349.5 q-157.5 -183.5 -323.5 -394.5 q-140 -173 -211 -342 q-33 -75 -65.5 -160.5 q-32.5 -85.5 -67.5 -185.5 l-342 0 q60 175 115 309.5 q55 134.5 104 239.5 q-12 82 -12 197 q0 191 10.5 356 q10.5 165 32.5 309 l364 58 q0 -4 -7 -54 q-7 -50 -21 -155 q-10 -64 -14.5 -116.5 q-4.5 -52.5 -4.5 -94.5 q0 -27 1 -48.5 q1 -21.5 3 -39.5 q126 181 230.5 307.5 q104.5 126.5 191.5 204.5 l328 -41 ZM1196 2013 q0 -88 -90 -172 q-91 -80 -180 -80 q-115 0 -115 103 q0 91 88 170 q88 82 182 82 q115 0 115 -103 ZM1686 2036 q0 -99 -99 -187 q-97 -86 -196 -86 q-123 0 -123 113 q0 98 96 184 q94 88 199 88 q123 0 123 -112 Z" /><glyph glyph-name="Ydieresis" unicode="&#x178;" d="M1915 1657 q-193 -211 -388.5 -439.5 q-195.5 -228.5 -400.5 -488.5 q-179 -226 -264 -430 q-42 -99 -80.5 -199.5 q-38.5 -100.5 -76.5 -205.5 l-418 -3 q75 218 144 388 q69 170 130 301 q-10 67 -15 144 q-5 77 -5 165 q0 208 12 391.5 q12 183.5 37 347.5 l444 72 q-8 -60 -16 -120.5 q-8 -60.5 -17 -123.5 q-18 -146 -18 -244 q0 -36 2 -69 q2 -33 6 -62 q284 403 525 623 l399 -47 ZM1325 2021 q0 -88 -90 -172 q-91 -80 -182 -80 q-115 0 -115 105 q0 90 90 170 q92 80 184 80 q113 0 113 -103 ZM1815 2044 q0 -98 -99 -186 q-98 -86 -198 -86 q-123 0 -123 112 q0 101 96 187 q98 86 199 86 q125 0 125 -113 Z" /><glyph glyph-name="guilsinglleft" unicode="&#x2039;" d="M848 860 l47 -522 l-430 -29 l-43 539 l483 569 l428 2 l-485 -559 Z" /><glyph glyph-name="guilsinglright" unicode="&#x203a;" d="M618 319 l-438 -30 l504 569 l-39 516 l432 29 l37 -518 l-496 -566 Z" /><glyph glyph-name="quotesinglbase" unicode="&#x201a;" d="M416 221 l-418 -180 l53 119 l66 53 l-49 4 l106 246 l340 8 l-98 -250 Z" /><glyph glyph-name="quotedblbase" unicode="&#x201e;" d="M612 457 l-419 -181 l55 121 l65 52 l-49 6 l107 243 l340 11 l-99 -252 ZM999 463 l-421 -180 l55 118 l65 54 l-49 4 l107 246 l340 10 l-97 -252 Z" /><glyph glyph-name="perthousand" unicode="&#x2030;" d="M1421 393 q0 47 -63 80 l41 19 q-24 10 -39 10 q-76 0 -154 -78 q-76 -76 -76 -154 q0 -71 78 -71 q69 0 140 63 q73 64 73 131 ZM1151 1311 q0 47 -64 80 l41 18 q-23 10 -38 10 q-76 0 -154 -78 q-76 -75 -76 -155 q0 -72 78 -72 q71 0 139 64 q74 63 74 133 ZM2187 444 q0 48 -63 80 l41 19 q-16 10 -39 10 q-78 0 -154 -76 q-74 -79 -74 -153 q0 -74 78 -74 q69 0 140 63 q71 66 71 131 ZM2480 602 q12 -41 12 -74 q0 -206 -223 -387 q-212 -174 -422 -174 q-235 0 -256 209 q-48 -55 -105.5 -100 q-57.5 -45 -123.5 -80 q-149 -80 -281 -80 q-59 0 -106.5 16 q-47.5 16 -81.5 46.5 q-34 30.5 -52 75.5 q-18 45 -18 104 q0 63 19 123 l-355 -396 l-313 -12 l899 1026 q-130 -70 -262 -70 q-120 0 -189 63 q-69 63 -69 181 q0 224 217 426 q218 203 444 203 q232 0 256 -223 l-28 -13 q12 -41 12 -73 q0 -39 -8 -68 l369 422 l264 -82 l-842 -942 q122 61 250 61 q226 0 252 -221 l-27 -12 l4 -16 q96 129 238 210 q157 91 301 91 q226 0 252 -222 l-27 -12 Z" /><glyph glyph-name="Acircumflex" unicode="â" d="M1079 1130 q-65 -103 -160.5 -256.5 q-95.5 -153.5 -224.5 -361.5 q61 6 133 6 q71 0 127 -6 q17 105 48.5 257 q31.5 152 76.5 361 ZM1608 1702 q-111 -389 -198 -825.5 q-87 -436.5 -155 -937.5 l-446 -107 l65 318 q-104 18 -210 18 q-39 0 -79.5 -3 q-40.5 -3 -88.5 -7 l-172 -324 l-414 12 q106 185 229.5 390 q123.5 205 266.5 435 q143 229 308 486.5 q165 257.5 353 542.5 l541 2 ZM1485 1808 l-70 76 l-145 -84 l-316 -10 l406 274 l237 21 l183 -252 l-295 -25 Z" /><glyph glyph-name="Ecircumflex" unicode="ê" d="M1788 1356 q-167 -4 -325.5 -14.5 q-158.5 -10.5 -319.5 -26.5 q-33 -67 -64.5 -145 q-31.5 -78 -60.5 -169 q136 17 275.5 25 q139.5 8 293.5 10 l-164 -397 l-61 0 q-121 2 -247 -7.5 q-126 -9.5 -261 -29.5 q-42 -78 -75.5 -157.5 q-33.5 -79.5 -55.5 -157.5 q161 16 319.5 26.5 q158.5 10.5 327.5 14.5 l-162 -396 q-263 -4 -531 -22.5 q-268 -18.5 -548 -50.5 q137 377 284.5 734 q147.5 357 307.5 714 l-150 -2 l142 370 q344 8 655.5 26.5 q311.5 18.5 599.5 47.5 l-180 -393 ZM1524 1810 l-72 76 l-145 -84 l-316 -8 l406 272 l239 21 l181 -252 l-293 -25 Z" /><glyph glyph-name="Aacute" unicode="á" d="M1079 1130 q-65 -103 -160.5 -256.5 q-95.5 -153.5 -224.5 -361.5 q61 6 133 6 q71 0 127 -6 q17 105 48.5 257 q31.5 152 76.5 361 ZM1608 1702 q-111 -389 -198 -825.5 q-87 -436.5 -155 -937.5 l-446 -107 l65 318 q-104 18 -210 18 q-39 0 -79.5 -3 q-40.5 -3 -88.5 -7 l-172 -324 l-414 12 q209 361 497.5 825 q288.5 464 659.5 1029 l541 2 ZM1876 1874 l-578 -105 l17 109 l665 250 l-104 -254 Z" /><glyph glyph-name="Edieresis" unicode="ë" d="M1788 1356 q-181 -4 -339 -13.5 q-158 -9.5 -306 -25.5 q-29 -64 -60.5 -141.5 q-31.5 -77.5 -64.5 -174.5 q146 17 287 26 q141 9 282 11 l-164 -399 l-69 0 q-132 0 -254 -9 q-122 -9 -246 -26 q-42 -78 -75.5 -157 q-33.5 -79 -55.5 -160 q161 16 319.5 26.5 q158.5 10.5 327.5 14.5 l-162 -396 q-263 -4 -531 -22.5 q-268 -18.5 -548 -50.5 q137 381 284.5 739 q147.5 358 307.5 711 l-150 -2 l144 370 q343 8 654 26.5 q311 18.5 599 47.5 l-180 -395 ZM1417 2025 q0 -90 -92 -170 q-89 -79 -182 -79 q-113 0 -113 102 q0 90 90 170 q88 82 183 82 q114 0 114 -105 ZM1907 2050 q0 -98 -99 -186 q-98 -86 -198 -86 q-123 0 -123 112 q0 101 96 187 q98 86 199 86 q125 0 125 -113 Z" /><glyph glyph-name="Egrave" unicode="è" d="M1788 1356 q-167 -4 -325.5 -14.5 q-158.5 -10.5 -319.5 -26.5 q-33 -67 -64.5 -145 q-31.5 -78 -60.5 -169 q136 17 275.5 25 q139.5 8 293.5 10 l-164 -397 l-61 0 q-121 2 -247 -7.5 q-126 -9.5 -261 -29.5 q-45 -84 -77.5 -162 q-32.5 -78 -55.5 -153 q161 16 320.5 26.5 q159.5 10.5 328.5 14.5 l-162 -396 q-262 -5 -530 -23 q-268 -18 -549 -50 q137 374 284.5 734.5 q147.5 360.5 307.5 713.5 l-152 -2 l144 370 q344 8 655.5 26.5 q311.5 18.5 599.5 47.5 l-180 -393 ZM1450 1780 l-526 28 l102 250 l494 -172 l-70 -106 Z" /><glyph glyph-name="Iacute" unicode="í" d="M1507 1325 q-179 6 -309 6 l-90 0 l156 -69 q-106 -235 -205 -485 q-99 -250 -193 -521 l203 0 l-133 -354 l-45 0 q-214 0 -429.5 -15.5 q-215.5 -15.5 -438.5 -46.5 l133 357 l213 24 q88 266 199.5 537.5 q111.5 271.5 246.5 562.5 q-60 -4 -109.5 -6 q-49.5 -2 -91.5 -6 l162 368 q149 15 284 21 q135 6 265 6 q168 0 344 -12 l-162 -367 ZM1567 1851 l-576 -102 l17 106 l663 252 l-104 -256 Z" /><glyph glyph-name="Icircumflex" unicode="î" d="M1507 1325 q-179 6 -309 6 l-90 0 l156 -69 q-106 -235 -205 -485 q-99 -250 -193 -521 l203 0 l-133 -354 l-45 0 q-214 0 -429.5 -15.5 q-215.5 -15.5 -438.5 -46.5 l133 355 l213 26 q88 266 199.5 537.5 q111.5 271.5 246.5 562.5 q-60 -4 -109.5 -6 q-49.5 -2 -91.5 -6 l160 368 q149 15 285 21 q136 6 266 6 q168 0 344 -12 l-162 -367 ZM1382 1802 l-71 76 l-146 -86 l-315 -8 l405 272 l240 21 l180 -250 l-293 -25 Z" /><glyph glyph-name="Idieresis" unicode="ï" d="M1509 1327 q-158 6 -284 6 l-25 0 l-39 0 q-11 0 -24.5 -0.5 q-13.5 -0.5 -30.5 -1.5 l158 -69 q-106 -235 -205 -485 q-99 -250 -193 -521 l203 2 l-133 -356 l-45 0 q-214 0 -429.5 -15.5 q-215.5 -15.5 -438.5 -46.5 l133 357 l213 24 q85 257 196 530 q111 273 252 570 q-34 -2 -84 -5 q-50 -3 -119 -7 l162 368 q149 15 289 21 q140 6 278 6 q94 0 175 -3 q81 -3 153 -7 l-162 -367 ZM1278 2015 q0 -91 -90 -170 q-91 -80 -180 -80 q-117 0 -117 107 q0 91 88 170 q89 80 182 80 q117 0 117 -107 ZM1767 2042 q0 -98 -98 -187 q-94 -88 -199 -88 q-122 0 -122 113 q0 96 96 186 q94 88 198 88 q125 0 125 -112 Z" /><glyph glyph-name="Igrave" unicode="ì" d="M1507 1325 q-179 6 -309 6 l-90 0 l156 -69 q-105 -234 -202 -483 q-97 -249 -196 -525 l203 2 l-133 -354 l-45 0 q-214 0 -429.5 -15.5 q-215.5 -15.5 -438.5 -46.5 l133 355 l213 26 q88 266 199.5 537.5 q111.5 271.5 246.5 562.5 q-60 -4 -109.5 -6 q-49.5 -2 -91.5 -6 l160 366 q149 15 289 21 q140 6 278 6 q94 0 175 -3 q81 -3 153 -7 l-162 -367 ZM1311 1772 l-527 28 l103 248 l493 -172 l-69 -104 Z" /><glyph glyph-name="Oacute" unicode="ó" d="M1530 1157 q-38 146 -219 146 l-27 0 q-224 -16 -430 -314 q-190 -275 -190 -516 q0 -184 155 -184 q193 0 391 229 q195 225 195 418 q0 62 -25 121 l150 100 ZM1812 1272 q29 -92 29 -176 q0 -129 -74 -312 q-140 -335 -448 -600 q-342 -288 -674 -288 q-202 0 -303 116 q-94 112 -94 316 q0 210 92 436 q75 183 188.5 343.5 q113.5 160.5 268.5 303.5 q346 315 708 315 q396 0 449 -360 l-142 -94 ZM1991 1880 l-578 -102 l17 108 l665 250 l-104 -256 Z" /><glyph glyph-name="Ocircumflex" unicode="ô" d="M1530 1157 q-38 146 -219 146 l-27 0 q-224 -16 -430 -314 q-190 -275 -190 -516 q0 -184 155 -184 q193 0 391 229 q195 225 195 418 q0 62 -25 121 l150 100 ZM1812 1272 q29 -92 29 -176 q0 -129 -74 -312 q-140 -335 -448 -600 q-342 -288 -674 -288 q-202 0 -303 116 q-94 112 -94 316 q0 210 92 436 q75 183 188.5 343.5 q113.5 160.5 268.5 303.5 q346 315 708 315 q396 0 449 -360 l-142 -94 ZM1597 1817 l-71 75 l-144 -84 l-317 -10 l408 275 l237 20 l180 -252 l-293 -24 Z" /><glyph glyph-name="Ograve" unicode="ò" d="M1530 1157 q-38 146 -219 146 l-27 0 q-224 -16 -430 -314 q-190 -275 -190 -516 q0 -184 155 -184 q195 0 393 229 q193 223 193 418 q0 62 -25 121 l150 100 ZM1812 1270 q29 -92 29 -174 q0 -129 -74 -312 q-140 -335 -448 -600 q-342 -288 -674 -288 q-397 0 -397 430 q0 210 92 436 q151 370 457 647 q349 317 708 317 q396 0 449 -362 l-142 -94 ZM1526 1786 l-525 29 l103 249 l493 -172 l-71 -106 Z" /><glyph glyph-name="Uacute" unicode="ú" d="M1747 733 q-139 -325 -428 -569 q-316 -266 -643 -266 q-381 0 -381 393 q0 353 332 1083 q22 51 56.5 125.5 q34.5 74.5 82.5 179.5 l397 9 q-61 -137 -146.5 -340 q-85.5 -203 -197.5 -478 q-106 -273 -106 -413 q0 -168 141 -168 q149 0 289 141 q114 118 180 279 l401 985 l420 6 l-397 -967 ZM2015 1882 l-577 -102 l16 106 l666 252 l-105 -256 Z" /><glyph glyph-name="Ucircumflex" unicode="û" d="M1747 733 q-139 -325 -428 -569 q-316 -266 -643 -266 q-381 0 -381 393 q0 353 332 1083 q22 51 56.5 125.5 q34.5 74.5 82.5 179.5 l397 7 q-60 -137 -145 -337.5 q-85 -200.5 -199 -478.5 q-106 -273 -106 -413 q0 -168 141 -168 q149 0 289 141 q114 118 180 279 l401 985 l420 6 l-397 -967 ZM1624 1819 l-72 75 l-143 -84 l-317 -10 l407 275 l238 20 l180 -252 l-293 -24 Z" /><glyph glyph-name="Ugrave" unicode="ù" d="M1747 733 q-139 -325 -428 -569 q-316 -266 -643 -266 q-381 0 -381 393 q0 353 332 1083 q22 51 56.5 125.5 q34.5 74.5 82.5 179.5 l397 7 q-60 -137 -145 -337.5 q-85 -200.5 -199 -478.5 q-106 -273 -106 -413 q0 -168 141 -168 q149 0 289 141 q108 109 180 279 l401 983 l420 6 l-397 -965 ZM1552 1788 l-526 29 l102 247 l494 -172 l-70 -104 Z" /><glyph glyph-name="circumflex" unicode="&#x2c6;" d="M1311 1829 l-74 67 l-141 -73 l-318 -8 l400 239 l237 19 l189 -222 l-293 -22 Z" /><glyph glyph-name="tilde" unicode="&#x2dc;" d="M1757 1933 q-179 -118 -340 -118 q-62 0 -123 43 q-57 45 -116 45 q-163 0 -392 -156 l121 285 q196 135 373 135 q56 0 121 -45 q62 -43 115 -43 q149 0 362 141 l-121 -287 Z" /><glyph glyph-name="space" unicode=" " d="" /><glyph glyph-name="Scaron" unicode="&#x160;" d="M1550 1292 l-102 0 q-320 0 -320 -143 q0 -2 5.5 -46.5 q5.5 -44.5 15.5 -137.5 q10 -102 16 -174.5 q6 -72.5 6 -120.5 q0 -261 -133 -443 q-141 -188 -446 -299 q-244 -94 -539 -112 l131 450 q196 26 344 72 q92 31 121 102 q17 46 17 135 q0 37 -6 93.5 q-6 56.5 -19 132.5 q-13 75 -19 131.5 q-6 56.5 -6 95.5 q0 98 33 176 q52 135 199 273 q139 127 282 186 q148 63 388 63 q57 0 114 -3 q57 -3 117 -11 l-199 -420 ZM1423 1804 l-233 -12 l-199 233 l309 33 l82 -69 l140 90 l305 16 l-404 -291 Z" /><glyph glyph-name="scaron" unicode="&#x161;" d="M1397 1362 q-94 -4 -143.5 -6 q-49.5 -2 -53.5 -2 q-137 -21 -137 -101 q0 -8 4 -43.5 q4 -35.5 12 -101.5 q15 -108 21 -168.5 q6 -60.5 6 -79.5 q0 -88 -35 -184 q-32 -80 -65 -127 q-116 -152 -363 -242 q-105 -39 -211.5 -60.5 q-106.5 -21.5 -224.5 -29.5 l106 369 q92 10 161.5 24 q69.5 14 117.5 31 q59 21 80 50 q22 29 22 93 q0 67 -24 195 q-13 65 -19 112 q-6 47 -6 78 q0 150 137 299 q124 132 277 197 q136 53 319 53 q79 0 183 -12 l-164 -344 ZM1329 1798 l-233 -10 l-201 231 l311 33 l80 -70 l141 91 l306 16 l-404 -291 Z" /><glyph glyph-name="Yacute" unicode="ý" d="M1915 1657 q-193 -209 -388.5 -437.5 q-195.5 -228.5 -400.5 -490.5 q-179 -226 -264 -430 q-42 -99 -80.5 -199 q-38.5 -100 -76.5 -206 l-418 -3 q75 218 144 389 q69 171 130 300 q-10 67 -15 144 q-5 77 -5 165 q0 208 12 391.5 q12 183.5 37 347.5 l444 72 q-8 -63 -16 -123.5 q-8 -60.5 -17 -120.5 q-18 -146 -18 -246 q0 -36 2 -69 q2 -33 6 -62 q145 206 275 359.5 q130 153.5 250 265.5 l399 -47 ZM1823 1870 l-578 -103 l17 107 l665 250 l-104 -254 Z" /><glyph glyph-name="yacute" unicode="ý" d="M1665 1659 q-154 -166 -311.5 -349.5 q-157.5 -183.5 -323.5 -394.5 q-140 -173 -211 -342 q-33 -75 -65.5 -160.5 q-32.5 -85.5 -67.5 -185.5 l-342 0 q60 175 115 309.5 q55 134.5 104 239.5 q-12 82 -12 197 q0 55 6 225 q4 138 13.5 244.5 q9.5 106.5 21.5 193.5 l364 60 q-8 -54 -14 -104.5 q-6 -50.5 -14 -104.5 q-8 -64 -12.5 -115.5 q-4.5 -51.5 -4.5 -93.5 q0 -27 1 -49.5 q1 -22.5 3 -40.5 q124 175 226.5 300 q102.5 125 195.5 210 l328 -39 ZM1694 1862 l-578 -103 l17 107 l665 250 l-104 -254 Z" /><glyph glyph-name="minus" unicode="­&#x2212;" d="M1130 754 q-187 -27 -378.5 -45.5 q-191.5 -18.5 -403.5 -32.5 l158 291 q211 15 400.5 31.5 q189.5 16.5 361.5 35.5 l-138 -280 Z" /><glyph glyph-name="multiply" unicode="×" d="M1087 879 l140 -191 l-295 -196 l-135 184 l-305 -213 l-168 166 l329 231 l-149 170 l293 199 l147 -166 l287 199 l174 -164 l-318 -219 Z" /></font>
</defs>
</svg>
